M48
; DRILL file {KiCad (5.1.10)-1} date 12/24/21 05:38:55
; FORMAT={-:-/ absolute / metric / decimal}
; #@! TF.CreationDate,2021-12-24T05:38:55+09:00
; #@! TF.GenerationSoftware,Kicad,Pcbnew,(5.1.10)-1
; #@! TF.FileFunction,NonPlated,1,2,NPTH
FMAT,2
METRIC
T1C1.200
T2C1.700
T3C1.900
T4C3.000
T5C4.100
T6C4.300
T7C5.000
%
G90
G05
T1
X95.425Y-105.535
X95.425Y-107.285
X102.425Y-105.535
X102.425Y-107.285
T2
X90.603Y-132.933
X99.06Y-129.855
X111.319Y-126.659
X117.76Y-62.23
X117.76Y-81.28
X117.76Y-100.33
X120.183Y-125.097
X126.76Y-62.23
X126.76Y-81.28
X126.76Y-100.33
X132.81Y-124.08
X136.81Y-59.73
X136.81Y-78.78
X136.81Y-97.83
X141.81Y-124.08
X145.81Y-59.73
X145.81Y-78.78
X145.81Y-97.83
X155.86Y-57.23
X155.86Y-76.28
X155.86Y-95.33
X155.86Y-114.38
X164.86Y-57.23
X164.86Y-76.28
X164.86Y-95.33
X164.86Y-114.38
X174.91Y-61.93
X174.91Y-80.98
X174.91Y-100.03
X174.91Y-119.08
X183.91Y-61.93
X183.91Y-80.98
X183.91Y-100.03
X183.91Y-119.08
X193.96Y-68.93
X193.96Y-87.98
X193.96Y-107.03
X193.96Y-126.08
X202.96Y-68.93
X202.96Y-87.98
X202.96Y-107.03
X202.96Y-126.08
T3
X89.663Y-133.275
X90.058Y-133.131
X99.605Y-129.657
X100.0Y-129.513
X110.335Y-126.833
X110.748Y-126.76
X117.18Y-62.23
X117.18Y-81.28
X117.18Y-100.33
X120.754Y-124.996
X121.167Y-124.923
X127.34Y-62.23
X127.34Y-81.28
X127.34Y-100.33
X131.81Y-124.08
X132.23Y-124.08
X136.23Y-59.73
X136.23Y-78.78
X136.23Y-97.83
X142.39Y-124.08
X142.81Y-124.08
X146.39Y-59.73
X146.39Y-78.78
X146.39Y-97.83
X155.28Y-57.23
X155.28Y-76.28
X155.28Y-95.33
X155.28Y-114.38
X165.44Y-57.23
X165.44Y-76.28
X165.44Y-95.33
X165.44Y-114.38
X174.33Y-61.93
X174.33Y-80.98
X174.33Y-100.03
X174.33Y-119.08
X184.49Y-61.93
X184.49Y-80.98
X184.49Y-100.03
X184.49Y-119.08
X193.38Y-68.93
X193.38Y-87.98
X193.38Y-107.03
X193.38Y-126.08
X203.54Y-68.93
X203.54Y-87.98
X203.54Y-107.03
X203.54Y-126.08
T4
X88.868Y-129.627
X92.12Y-135.084
X92.814Y-125.85
X92.814Y-125.85
X94.182Y-137.036
X98.265Y-126.207
X98.956Y-135.299
X99.281Y-132.478
X110.184Y-123.102
X112.44Y-129.041
X114.132Y-131.322
X114.726Y-120.068
X114.726Y-120.068
X118.45Y-59.69
X118.45Y-78.74
X118.45Y-97.79
X119.135Y-130.44
X119.72Y-57.15
X119.72Y-76.2
X119.72Y-95.25
X119.944Y-127.718
X120.033Y-121.366
X124.8Y-57.15
X124.8Y-76.2
X124.8Y-95.25
X126.07Y-59.69
X126.07Y-78.74
X126.07Y-97.79
X132.31Y-120.38
X133.5Y-126.62
X134.77Y-129.16
X137.31Y-118.18
X137.31Y-118.18
X137.5Y-57.19
X137.5Y-76.24
X137.5Y-95.29
X138.77Y-54.65
X138.77Y-73.7
X138.77Y-92.75
X139.85Y-129.16
X141.12Y-126.62
X142.31Y-120.38
X143.85Y-54.65
X143.85Y-73.7
X143.85Y-92.75
X145.12Y-57.19
X145.12Y-76.24
X145.12Y-95.29
X156.55Y-54.69
X156.55Y-73.74
X156.55Y-92.79
X156.55Y-111.84
X157.82Y-52.15
X157.82Y-71.2
X157.82Y-90.25
X157.82Y-109.3
X162.9Y-52.15
X162.9Y-71.2
X162.9Y-90.25
X162.9Y-109.3
X164.17Y-54.69
X164.17Y-73.74
X164.17Y-92.79
X164.17Y-111.84
X175.6Y-59.39
X175.6Y-78.44
X175.6Y-97.49
X175.6Y-116.54
X176.87Y-56.85
X176.87Y-75.9
X176.87Y-94.95
X176.87Y-114.0
X181.95Y-56.85
X181.95Y-75.9
X181.95Y-94.95
X181.95Y-114.0
X183.22Y-59.39
X183.22Y-78.44
X183.22Y-97.49
X183.22Y-116.54
X194.65Y-66.39
X194.65Y-85.44
X194.65Y-104.49
X194.65Y-123.54
X195.92Y-63.85
X195.92Y-82.9
X195.92Y-101.95
X195.92Y-121.0
X201.0Y-63.85
X201.0Y-82.9
X201.0Y-101.95
X201.0Y-121.0
X202.27Y-66.39
X202.27Y-85.44
X202.27Y-104.49
X202.27Y-123.54
T5
X94.832Y-131.394
X115.751Y-125.878
X122.26Y-62.23
X122.26Y-81.28
X122.26Y-100.33
X137.31Y-124.08
X141.31Y-59.73
X141.31Y-78.78
X141.31Y-97.83
X160.36Y-57.23
X160.36Y-76.28
X160.36Y-95.33
X160.36Y-114.38
X179.41Y-61.93
X179.41Y-80.98
X179.41Y-100.03
X179.41Y-119.08
X198.46Y-68.93
X198.46Y-87.98
X198.46Y-107.03
X198.46Y-126.08
T6
X105.889Y-130.868
X113.853Y-115.12
X126.644Y-126.289
X130.685Y-90.805
X132.885Y-69.255
X187.835Y-71.455
X187.835Y-109.555
T7
X94.832Y-131.394
X115.751Y-125.878
X137.31Y-124.08
T0
M30
