G04 #@! TF.GenerationSoftware,KiCad,Pcbnew,(5.1.10)-1*
G04 #@! TF.CreationDate,2021-12-24T05:38:29+09:00*
G04 #@! TF.ProjectId,keyball39_Left,6b657962-616c-46c3-9339-5f4c6566742e,rev?*
G04 #@! TF.SameCoordinates,Original*
G04 #@! TF.FileFunction,Soldermask,Bot*
G04 #@! TF.FilePolarity,Negative*
%FSLAX46Y46*%
G04 Gerber Fmt 4.6, Leading zero omitted, Abs format (unit mm)*
G04 Created by KiCad (PCBNEW (5.1.10)-1) date 2021-12-24 05:38:29*
%MOMM*%
%LPD*%
G01*
G04 APERTURE LIST*
%ADD10C,1.524000*%
%ADD11C,1.397000*%
%ADD12C,4.400000*%
%ADD13C,4.300000*%
%ADD14C,1.200000*%
%ADD15R,2.100000X0.800000*%
%ADD16R,1.143000X0.635000*%
%ADD17R,0.635000X1.143000*%
%ADD18R,0.381000X0.250000*%
%ADD19R,1.700000X1.000000*%
%ADD20R,2.300000X2.000000*%
%ADD21C,3.000000*%
%ADD22C,4.100000*%
%ADD23C,1.900000*%
%ADD24C,1.700000*%
%ADD25R,2.600000X2.600000*%
%ADD26C,0.100000*%
%ADD27C,2.000000*%
%ADD28R,1.300000X0.950000*%
G04 APERTURE END LIST*
D10*
X109379000Y-62475000D03*
X109379000Y-65015000D03*
X109379000Y-67555000D03*
X109379000Y-70095000D03*
X109379000Y-72635000D03*
X109379000Y-75175000D03*
X109379000Y-77715000D03*
X109379000Y-80255000D03*
X109379000Y-82795000D03*
X109379000Y-85335000D03*
X109379000Y-87875000D03*
X109379000Y-90415000D03*
X94139000Y-90415000D03*
X94139000Y-87875000D03*
X94139000Y-85335000D03*
X94139000Y-82795000D03*
X94139000Y-80255000D03*
X94139000Y-77715000D03*
X94139000Y-75175000D03*
X94139000Y-72635000D03*
X94139000Y-70095000D03*
X94139000Y-67555000D03*
X94139000Y-65015000D03*
X94139000Y-62475000D03*
X110685400Y-61205000D03*
X110685400Y-63745000D03*
X110685400Y-66285000D03*
X110685400Y-68825000D03*
X110685400Y-71365000D03*
X110685400Y-73905000D03*
X110685400Y-76445000D03*
X110685400Y-78985000D03*
X110685400Y-81525000D03*
X110685400Y-84065000D03*
X110685400Y-86605000D03*
X110685400Y-89145000D03*
X95465400Y-89145000D03*
X95465400Y-86605000D03*
X95465400Y-84065000D03*
X95465400Y-81525000D03*
X95465400Y-78985000D03*
X95465400Y-76445000D03*
X95465400Y-73905000D03*
X95465400Y-71365000D03*
X95465400Y-68825000D03*
X95465400Y-66285000D03*
X95465400Y-63745000D03*
X95465400Y-61205000D03*
D11*
X98585000Y-93955000D03*
X101125000Y-93955000D03*
X103665000Y-93955000D03*
X106205000Y-93955000D03*
D12*
X94988600Y-113193000D03*
X109589000Y-107880000D03*
D13*
X132885000Y-69255100D03*
X130685000Y-90805100D03*
X187835000Y-109555000D03*
X113853000Y-115120000D03*
X187835000Y-71455100D03*
X126644000Y-126289000D03*
D14*
X102425000Y-107285000D03*
X95425000Y-107285000D03*
D15*
X104225000Y-109385000D03*
X105725000Y-105185000D03*
X97225000Y-109385000D03*
X100225000Y-109385000D03*
D14*
X95425000Y-105535000D03*
X102425000Y-105535000D03*
D15*
X97225000Y-103435000D03*
X100225000Y-103435000D03*
X104225000Y-103435000D03*
X105725000Y-107635000D03*
D16*
X99059600Y-90280480D03*
X99059600Y-89279720D03*
X101160000Y-89279720D03*
X101160000Y-90280480D03*
X103660000Y-90280480D03*
X103660000Y-89279720D03*
X105760000Y-89279720D03*
X105760000Y-90280480D03*
D17*
X98889980Y-100640000D03*
X97889220Y-100640000D03*
D18*
X98389600Y-100640000D03*
D19*
X163110000Y-61430100D03*
X157610000Y-62830100D03*
X163110000Y-62830100D03*
X157610000Y-61430100D03*
X163110000Y-80480100D03*
X157610000Y-81880100D03*
X163110000Y-81880100D03*
X157610000Y-80480100D03*
X157610000Y-99530000D03*
X163110000Y-100930000D03*
X157610000Y-100930000D03*
X163110000Y-99530000D03*
X157610000Y-118580000D03*
X163110000Y-119980000D03*
X157610000Y-119980000D03*
X163110000Y-118580000D03*
X182160000Y-66130100D03*
X176660000Y-67530100D03*
X182160000Y-67530100D03*
X176660000Y-66130100D03*
X176660000Y-85180100D03*
X182160000Y-86580100D03*
X176660000Y-86580100D03*
X182160000Y-85180100D03*
X182160000Y-104230000D03*
X176660000Y-105630000D03*
X182160000Y-105630000D03*
X176660000Y-104230000D03*
X176660000Y-123280000D03*
X182160000Y-124680000D03*
X176660000Y-124680000D03*
X182160000Y-123280000D03*
X201210000Y-73130100D03*
X195710000Y-74530100D03*
X201210000Y-74530100D03*
X195710000Y-73130100D03*
X195710000Y-92180100D03*
X201210000Y-93580100D03*
X195710000Y-93580100D03*
X201210000Y-92180100D03*
X195710000Y-111230000D03*
X201210000Y-112630000D03*
X195710000Y-112630000D03*
X201210000Y-111230000D03*
X201210000Y-130280000D03*
X195710000Y-131680000D03*
X201210000Y-131680000D03*
X195710000Y-130280000D03*
D11*
X103240000Y-97220100D03*
X101190000Y-97220100D03*
X111950000Y-98210100D03*
X111950000Y-93130100D03*
X109510000Y-93170100D03*
X109510000Y-98250100D03*
G36*
G01*
X98644600Y-96265100D02*
X99194600Y-96265100D01*
G75*
G02*
X99394600Y-96465100I0J-200000D01*
G01*
X99394600Y-96865100D01*
G75*
G02*
X99194600Y-97065100I-200000J0D01*
G01*
X98644600Y-97065100D01*
G75*
G02*
X98444600Y-96865100I0J200000D01*
G01*
X98444600Y-96465100D01*
G75*
G02*
X98644600Y-96265100I200000J0D01*
G01*
G37*
G36*
G01*
X98644600Y-97915100D02*
X99194600Y-97915100D01*
G75*
G02*
X99394600Y-98115100I0J-200000D01*
G01*
X99394600Y-98515100D01*
G75*
G02*
X99194600Y-98715100I-200000J0D01*
G01*
X98644600Y-98715100D01*
G75*
G02*
X98444600Y-98515100I0J200000D01*
G01*
X98444600Y-98115100D01*
G75*
G02*
X98644600Y-97915100I200000J0D01*
G01*
G37*
D20*
X191460000Y-66350100D03*
D21*
X194650000Y-66390100D03*
X195920000Y-63850100D03*
X202270000Y-66390099D03*
X201000000Y-63850100D03*
D22*
X198460000Y-68930100D03*
D23*
X203540000Y-68930100D03*
X193380000Y-68930100D03*
D20*
X204160000Y-63810100D03*
D24*
X193960000Y-68930100D03*
X202960000Y-68930100D03*
D20*
X172410000Y-59350100D03*
D21*
X175600000Y-59390100D03*
X176870000Y-56850100D03*
X183220000Y-59390099D03*
X181950000Y-56850100D03*
D22*
X179410000Y-61930100D03*
D23*
X184490000Y-61930100D03*
X174330000Y-61930100D03*
D20*
X185110000Y-56810100D03*
D24*
X174910000Y-61930100D03*
X183910000Y-61930100D03*
D20*
X153360000Y-54650100D03*
D21*
X156550000Y-54690100D03*
X157820000Y-52150100D03*
X164170000Y-54690099D03*
X162900000Y-52150100D03*
D22*
X160360000Y-57230100D03*
D23*
X165440000Y-57230100D03*
X155280000Y-57230100D03*
D20*
X166060000Y-52110100D03*
D24*
X155860000Y-57230100D03*
X164860000Y-57230100D03*
X145810000Y-59730100D03*
X136810000Y-59730100D03*
D20*
X147010000Y-54610100D03*
D23*
X136230000Y-59730100D03*
X146390000Y-59730100D03*
D22*
X141310000Y-59730100D03*
D21*
X143850000Y-54650100D03*
X145120000Y-57190099D03*
X138770000Y-54650100D03*
X137500000Y-57190100D03*
D20*
X134310000Y-57150100D03*
X115260000Y-59650100D03*
D21*
X118450000Y-59690100D03*
X119720000Y-57150100D03*
X126070000Y-59690099D03*
X124800000Y-57150100D03*
D22*
X122260000Y-62230100D03*
D23*
X127340000Y-62230100D03*
X117180000Y-62230100D03*
D20*
X127960000Y-57110100D03*
D24*
X117760000Y-62230100D03*
X126760000Y-62230100D03*
X202960000Y-87980100D03*
X193960000Y-87980100D03*
D20*
X204160000Y-82860100D03*
D23*
X193380000Y-87980100D03*
X203540000Y-87980100D03*
D22*
X198460000Y-87980100D03*
D21*
X201000000Y-82900100D03*
X202270000Y-85440099D03*
X195920000Y-82900100D03*
X194650000Y-85440100D03*
D20*
X191460000Y-85400100D03*
D24*
X183910000Y-80980100D03*
X174910000Y-80980100D03*
D20*
X185110000Y-75860100D03*
D23*
X174330000Y-80980100D03*
X184490000Y-80980100D03*
D22*
X179410000Y-80980100D03*
D21*
X181950000Y-75900100D03*
X183220000Y-78440099D03*
X176870000Y-75900100D03*
X175600000Y-78440100D03*
D20*
X172410000Y-78400100D03*
D24*
X164860000Y-76280100D03*
X155860000Y-76280100D03*
D20*
X166060000Y-71160100D03*
D23*
X155280000Y-76280100D03*
X165440000Y-76280100D03*
D22*
X160360000Y-76280100D03*
D21*
X162900000Y-71200100D03*
X164170000Y-73740099D03*
X157820000Y-71200100D03*
X156550000Y-73740100D03*
D20*
X153360000Y-73700100D03*
X134310000Y-76200100D03*
D21*
X137500000Y-76240100D03*
X138770000Y-73700100D03*
X145120000Y-76240099D03*
X143850000Y-73700100D03*
D22*
X141310000Y-78780100D03*
D23*
X146390000Y-78780100D03*
X136230000Y-78780100D03*
D20*
X147010000Y-73660100D03*
D24*
X136810000Y-78780100D03*
X145810000Y-78780100D03*
X126760000Y-81280100D03*
X117760000Y-81280100D03*
D20*
X127960000Y-76160100D03*
D23*
X117180000Y-81280100D03*
X127340000Y-81280100D03*
D22*
X122260000Y-81280100D03*
D21*
X124800000Y-76200100D03*
X126070000Y-78740099D03*
X119720000Y-76200100D03*
X118450000Y-78740100D03*
D20*
X115260000Y-78700100D03*
D24*
X202960000Y-107030000D03*
X193960000Y-107030000D03*
D20*
X204160000Y-101910000D03*
D23*
X193380000Y-107030000D03*
X203540000Y-107030000D03*
D22*
X198460000Y-107030000D03*
D21*
X201000000Y-101950000D03*
X202270000Y-104489999D03*
X195920000Y-101950000D03*
X194650000Y-104490000D03*
D20*
X191460000Y-104450000D03*
X172410000Y-97450000D03*
D21*
X175600000Y-97490000D03*
X176870000Y-94950000D03*
X183220000Y-97489999D03*
X181950000Y-94950000D03*
D22*
X179410000Y-100030000D03*
D23*
X184490000Y-100030000D03*
X174330000Y-100030000D03*
D20*
X185110000Y-94910000D03*
D24*
X174910000Y-100030000D03*
X183910000Y-100030000D03*
D20*
X153360000Y-92750100D03*
D21*
X156550000Y-92790100D03*
X157820000Y-90250100D03*
X164170000Y-92790099D03*
X162900000Y-90250100D03*
D22*
X160360000Y-95330100D03*
D23*
X165440000Y-95330100D03*
X155280000Y-95330100D03*
D20*
X166060000Y-90210100D03*
D24*
X155860000Y-95330100D03*
X164860000Y-95330100D03*
X145810000Y-97830100D03*
X136810000Y-97830100D03*
D20*
X147010000Y-92710100D03*
D23*
X136230000Y-97830100D03*
X146390000Y-97830100D03*
D22*
X141310000Y-97830100D03*
D21*
X143850000Y-92750100D03*
X145120000Y-95290099D03*
X138770000Y-92750100D03*
X137500000Y-95290100D03*
D20*
X134310000Y-95250100D03*
X115260000Y-97750000D03*
D21*
X118450000Y-97790000D03*
X119720000Y-95250000D03*
X126070000Y-97789999D03*
X124800000Y-95250000D03*
D22*
X122260000Y-100330000D03*
D23*
X127340000Y-100330000D03*
X117180000Y-100330000D03*
D20*
X127960000Y-95210000D03*
D24*
X117760000Y-100330000D03*
X126760000Y-100330000D03*
D20*
X191460000Y-123500000D03*
D21*
X194650000Y-123540000D03*
X195920000Y-121000000D03*
X202270000Y-123539999D03*
X201000000Y-121000000D03*
D22*
X198460000Y-126080000D03*
D23*
X203540000Y-126080000D03*
X193380000Y-126080000D03*
D20*
X204160000Y-120960000D03*
D24*
X193960000Y-126080000D03*
X202960000Y-126080000D03*
X183910000Y-119080000D03*
X174910000Y-119080000D03*
D20*
X185110000Y-113960000D03*
D23*
X174330000Y-119080000D03*
X184490000Y-119080000D03*
D22*
X179410000Y-119080000D03*
D21*
X181950000Y-114000000D03*
X183220000Y-116539999D03*
X176870000Y-114000000D03*
X175600000Y-116540000D03*
D20*
X172410000Y-116500000D03*
D21*
X141120000Y-126620000D03*
D20*
X144310000Y-126660000D03*
D21*
X139850000Y-129160000D03*
D24*
X132810000Y-124080000D03*
D23*
X142390000Y-124080000D03*
D22*
X137310000Y-124080000D03*
D20*
X131610000Y-129200000D03*
D21*
X133500000Y-126620001D03*
D23*
X132230000Y-124080000D03*
D24*
X141810000Y-124080000D03*
D21*
X134770000Y-129160000D03*
X132310000Y-120380000D03*
X137310000Y-118180000D03*
X137310000Y-118180000D03*
X142310000Y-120380000D03*
D25*
X134010000Y-118180000D03*
X145610000Y-120380000D03*
D26*
G36*
X122227899Y-122298924D02*
G01*
X121776413Y-119738424D01*
X124336913Y-119286938D01*
X124788399Y-121847438D01*
X122227899Y-122298924D01*
G37*
G36*
X110422103Y-122146666D02*
G01*
X109970617Y-119586166D01*
X112531117Y-119134680D01*
X112982603Y-121695180D01*
X110422103Y-122146666D01*
G37*
D21*
X120032541Y-121365970D03*
X114726476Y-120067634D03*
X114726476Y-120067634D03*
X110184463Y-123102452D03*
X114131721Y-131321890D03*
D24*
X120182635Y-125096583D03*
D23*
X110748177Y-126760133D03*
D21*
X112439949Y-129041012D03*
D26*
G36*
X110067793Y-133094513D02*
G01*
X109720497Y-131124898D01*
X111985555Y-130725507D01*
X112332851Y-132695122D01*
X110067793Y-133094513D01*
G37*
D22*
X115751000Y-125878000D03*
D23*
X120753823Y-124995867D03*
D24*
X111319365Y-126659417D03*
D21*
X119134544Y-130439757D03*
D26*
G36*
X122133786Y-128387770D02*
G01*
X121786490Y-126418155D01*
X124051548Y-126018764D01*
X124398844Y-127988379D01*
X122133786Y-128387770D01*
G37*
D21*
X119944184Y-127717812D03*
X99280760Y-132477723D03*
D26*
G36*
X101553434Y-132757282D02*
G01*
X100869393Y-130877897D01*
X103030686Y-130091250D01*
X103714727Y-131970635D01*
X101553434Y-132757282D01*
G37*
D21*
X98956082Y-135298907D03*
D24*
X90603183Y-132933091D03*
D23*
X99605439Y-129656538D03*
D22*
X94831800Y-131394000D03*
D26*
G36*
X90488069Y-139487757D02*
G01*
X89804028Y-137608372D01*
X91965321Y-136821725D01*
X92649362Y-138701110D01*
X90488069Y-139487757D01*
G37*
D21*
X92120303Y-135083917D03*
D23*
X90058161Y-133131462D03*
D24*
X99060417Y-129854909D03*
D21*
X94182443Y-137036370D03*
X88867862Y-129627238D03*
X92813881Y-125849814D03*
X92813881Y-125849814D03*
X98264789Y-126207037D03*
D26*
G36*
X88935922Y-128644707D02*
G01*
X88046669Y-126201506D01*
X90489870Y-125312253D01*
X91379123Y-127755454D01*
X88935922Y-128644707D01*
G37*
G36*
X100588800Y-126744597D02*
G01*
X99699547Y-124301396D01*
X102142748Y-123412143D01*
X103032001Y-125855344D01*
X100588800Y-126744597D01*
G37*
D27*
X94625000Y-94435000D03*
X94625000Y-100935000D03*
D28*
X177675000Y-72470100D03*
X181225000Y-72470100D03*
X181235000Y-70000100D03*
X177685000Y-70000100D03*
X162135000Y-66740100D03*
X158585000Y-66740100D03*
X130635000Y-63960100D03*
X134185000Y-63960100D03*
X124065000Y-71680100D03*
X120515000Y-71680100D03*
X111565000Y-100610000D03*
X108015000Y-100610000D03*
X200215000Y-96190100D03*
X196665000Y-96190100D03*
X177695000Y-89330100D03*
X181245000Y-89330100D03*
X158535000Y-84560100D03*
X162085000Y-84560100D03*
X143145000Y-87080100D03*
X139595000Y-87080100D03*
X123965000Y-89420100D03*
X120415000Y-89420100D03*
X108015000Y-103060000D03*
X111565000Y-103060000D03*
X196645000Y-98570100D03*
X200195000Y-98570100D03*
X181255000Y-91720100D03*
X177705000Y-91720100D03*
X162055000Y-86940100D03*
X158505000Y-86940100D03*
X139545000Y-89450100D03*
X143095000Y-89450100D03*
X120435000Y-91830100D03*
X123985000Y-91830100D03*
X101615000Y-100680000D03*
X105165000Y-100680000D03*
X181225000Y-108260000D03*
X177675000Y-108260000D03*
X177685000Y-110600000D03*
X181235000Y-110600000D03*
X169935000Y-108700000D03*
X173485000Y-108700000D03*
X143615000Y-114710000D03*
X140065000Y-114710000D03*
X132145000Y-114700000D03*
X135695000Y-114700000D03*
X109435000Y-116690000D03*
X105885000Y-116690000D03*
D13*
X105889000Y-130868000D03*
D20*
X153360000Y-111800000D03*
D21*
X156550000Y-111840000D03*
X157820000Y-109300000D03*
X164170000Y-111839999D03*
X162900000Y-109300000D03*
D22*
X160360000Y-114380000D03*
D23*
X165440000Y-114380000D03*
X155280000Y-114380000D03*
D20*
X166060000Y-109260000D03*
D24*
X155860000Y-114380000D03*
X164860000Y-114380000D03*
D19*
X119510000Y-66430100D03*
X125010000Y-67830100D03*
X119510000Y-67830100D03*
X125010000Y-66430100D03*
X125010000Y-85480100D03*
X119510000Y-86880100D03*
X125010000Y-86880100D03*
X119510000Y-85480100D03*
X119510000Y-104530000D03*
X125010000Y-105930000D03*
X119510000Y-105930000D03*
X125010000Y-104530000D03*
X144060000Y-63930100D03*
X138560000Y-65330100D03*
X144060000Y-65330100D03*
X138560000Y-63930100D03*
X138560000Y-82980100D03*
X144060000Y-84380100D03*
X138560000Y-84380100D03*
X144060000Y-82980100D03*
X144060000Y-102030000D03*
X138560000Y-103430000D03*
X144060000Y-103430000D03*
X138560000Y-102030000D03*
X144060000Y-69450100D03*
X138560000Y-68050100D03*
X144060000Y-68050100D03*
X138560000Y-69450100D03*
X195720000Y-78570100D03*
X201220000Y-77170100D03*
X195720000Y-77170100D03*
X201220000Y-78570100D03*
X201200000Y-116670000D03*
X195700000Y-115270000D03*
X201200000Y-115270000D03*
X195700000Y-116670000D03*
X157610000Y-105020000D03*
X163110000Y-103620000D03*
X157610000Y-103620000D03*
X163110000Y-105020000D03*
X123030000Y-116660000D03*
X128530000Y-115260000D03*
X123030000Y-115260000D03*
X128530000Y-116660000D03*
X104940000Y-121000000D03*
X99440000Y-119600000D03*
X104940000Y-119600000D03*
X99440000Y-121000000D03*
M02*
