G04 #@! TF.GenerationSoftware,KiCad,Pcbnew,(5.1.10)-1*
G04 #@! TF.CreationDate,2021-12-24T05:38:29+09:00*
G04 #@! TF.ProjectId,keyball39_Left,6b657962-616c-46c3-9339-5f4c6566742e,rev?*
G04 #@! TF.SameCoordinates,Original*
G04 #@! TF.FileFunction,Profile,NP*
%FSLAX46Y46*%
G04 Gerber Fmt 4.6, Leading zero omitted, Abs format (unit mm)*
G04 Created by KiCad (PCBNEW (5.1.10)-1) date 2021-12-24 05:38:29*
%MOMM*%
%LPD*%
G01*
G04 APERTURE LIST*
G04 #@! TA.AperFunction,Profile*
%ADD10C,0.050000*%
G04 #@! TD*
G04 #@! TA.AperFunction,Profile*
%ADD11C,0.120000*%
G04 #@! TD*
G04 APERTURE END LIST*
D10*
X89099561Y-142035243D02*
X83605411Y-126939585D01*
X92788401Y-56205074D02*
G75*
G02*
X93788401Y-55205072I1000000J2D01*
G01*
X90368784Y-142637380D02*
G75*
G02*
X89099561Y-142035243I-329526J944146D01*
G01*
X92788403Y-57205072D02*
X92788401Y-56205074D01*
X92788403Y-121832994D02*
G75*
G02*
X92130411Y-122772691I-1000000J0D01*
G01*
X108264304Y-136391498D02*
X90368784Y-142637381D01*
X84203100Y-125657880D02*
X92130411Y-122772691D01*
X96038622Y-55205072D02*
G75*
G02*
X97038622Y-56205072I0J-1000000D01*
G01*
X93788401Y-55205072D02*
X96038622Y-55205072D01*
X92788403Y-121832994D02*
X92788403Y-57205072D01*
X83605411Y-126939585D02*
G75*
G02*
X84203100Y-125657880I939697J342008D01*
G01*
X97538622Y-63205066D02*
X107338622Y-63205066D01*
X97038622Y-56205072D02*
X97038622Y-62705066D01*
X97538622Y-63205066D02*
G75*
G02*
X97038622Y-62705066I0J500000D01*
G01*
X107838622Y-62705066D02*
G75*
G02*
X107338622Y-63205066I-500000J0D01*
G01*
X107838622Y-62705066D02*
X107838622Y-56205070D01*
X113234570Y-54205070D02*
G75*
G02*
X114234570Y-53205070I1000000J0D01*
G01*
X107838622Y-56205070D02*
G75*
G02*
X108838622Y-55205070I1000000J0D01*
G01*
X113234570Y-54205070D02*
G75*
G02*
X112234570Y-55205070I-1000000J0D01*
G01*
X108838622Y-55205070D02*
X112234570Y-55205070D01*
X114234570Y-53205070D02*
X131284570Y-53205070D01*
X132284570Y-51705070D02*
G75*
G02*
X133284570Y-50705070I1000000J0D01*
G01*
X151334570Y-49705070D02*
X151334570Y-49205070D01*
X151334570Y-49705070D02*
G75*
G02*
X150334570Y-50705070I-1000000J0D01*
G01*
X133284570Y-50705070D02*
X150334570Y-50705070D01*
X132284570Y-52205070D02*
G75*
G02*
X131284570Y-53205070I-1000000J0D01*
G01*
X132284570Y-52205070D02*
X132284570Y-51705070D01*
X206484567Y-135105067D02*
X190434568Y-135105067D01*
X169384568Y-123405069D02*
X152334570Y-123405068D01*
X171384568Y-128105067D02*
G75*
G02*
X170384568Y-127105067I0J1000000D01*
G01*
X170384568Y-127105067D02*
X170384568Y-124405068D01*
X169384568Y-123405068D02*
G75*
G02*
X170384568Y-124405068I0J-1000000D01*
G01*
X188434568Y-128105067D02*
X171384568Y-128105067D01*
X190434568Y-135105067D02*
G75*
G02*
X189434568Y-134105067I0J1000000D01*
G01*
X207484567Y-134105067D02*
G75*
G02*
X206484567Y-135105067I-1000000J0D01*
G01*
X189434568Y-134105067D02*
X189434568Y-129105067D01*
X188434568Y-128105067D02*
G75*
G02*
X189434568Y-129105067I0J-1000000D01*
G01*
X207484567Y-60905070D02*
X207484567Y-134105067D01*
X146334570Y-132105067D02*
G75*
G02*
X145334570Y-133105067I-1000000J0D01*
G01*
X151334570Y-122405068D02*
X151334570Y-110355068D01*
X128125108Y-133130998D02*
G75*
G02*
X128446124Y-133105067I321016J-1974069D01*
G01*
X150334570Y-109355068D02*
X147334570Y-109355068D01*
X108264304Y-136391499D02*
G75*
G02*
X108602339Y-136305723I659051J-1888293D01*
G01*
X128125108Y-133130998D02*
X108602339Y-136305723D01*
X145334570Y-133105067D02*
X128446124Y-133105067D01*
X146334570Y-110355068D02*
X146334570Y-132105067D01*
X152334570Y-123405068D02*
G75*
G02*
X151334570Y-122405068I0J1000000D01*
G01*
X146334570Y-110355068D02*
G75*
G02*
X147334570Y-109355068I1000000J0D01*
G01*
X150334570Y-109355068D02*
G75*
G02*
X151334570Y-110355068I0J-1000000D01*
G01*
X187434568Y-52905070D02*
G75*
G02*
X188434568Y-53905070I0J-1000000D01*
G01*
X189434568Y-59905070D02*
X206484567Y-59905070D01*
X170384568Y-52905070D02*
X187434568Y-52905070D01*
X189434568Y-59905070D02*
G75*
G02*
X188434568Y-58905070I0J1000000D01*
G01*
X151334570Y-49205070D02*
G75*
G02*
X152334570Y-48205070I1000000J0D01*
G01*
X170384568Y-52905070D02*
G75*
G02*
X169384568Y-51905070I0J1000000D01*
G01*
X152334570Y-48205070D02*
X168384568Y-48205070D01*
X206484567Y-59905070D02*
G75*
G02*
X207484567Y-60905070I0J-1000000D01*
G01*
X169384568Y-49205070D02*
X169384568Y-51905070D01*
X168384568Y-48205070D02*
G75*
G02*
X169384568Y-49205070I0J-1000000D01*
G01*
X188434568Y-53905070D02*
X188434568Y-58905070D01*
D11*
X158560000Y-60580100D02*
X158560000Y-63680100D01*
X158560000Y-63680100D02*
X162160000Y-63680100D01*
X162160000Y-63680100D02*
X162160000Y-60580100D01*
X162160000Y-60580100D02*
X158560000Y-60580100D01*
X158560000Y-79630100D02*
X158560000Y-82730100D01*
X158560000Y-82730100D02*
X162160000Y-82730100D01*
X162160000Y-82730100D02*
X162160000Y-79630100D01*
X162160000Y-79630100D02*
X158560000Y-79630100D01*
X162160000Y-98680000D02*
X158560000Y-98680000D01*
X162160000Y-101780000D02*
X162160000Y-98680000D01*
X158560000Y-101780000D02*
X162160000Y-101780000D01*
X158560000Y-98680000D02*
X158560000Y-101780000D01*
X162160000Y-117730000D02*
X158560000Y-117730000D01*
X162160000Y-120830000D02*
X162160000Y-117730000D01*
X158560000Y-120830000D02*
X162160000Y-120830000D01*
X158560000Y-117730000D02*
X158560000Y-120830000D01*
X177610000Y-65280100D02*
X177610000Y-68380100D01*
X177610000Y-68380100D02*
X181210000Y-68380100D01*
X181210000Y-68380100D02*
X181210000Y-65280100D01*
X181210000Y-65280100D02*
X177610000Y-65280100D01*
X181210000Y-84330100D02*
X177610000Y-84330100D01*
X181210000Y-87430100D02*
X181210000Y-84330100D01*
X177610000Y-87430100D02*
X181210000Y-87430100D01*
X177610000Y-84330100D02*
X177610000Y-87430100D01*
X177610000Y-103380000D02*
X177610000Y-106480000D01*
X177610000Y-106480000D02*
X181210000Y-106480000D01*
X181210000Y-106480000D02*
X181210000Y-103380000D01*
X181210000Y-103380000D02*
X177610000Y-103380000D01*
X181210000Y-122430000D02*
X177610000Y-122430000D01*
X181210000Y-125530000D02*
X181210000Y-122430000D01*
X177610000Y-125530000D02*
X181210000Y-125530000D01*
X177610000Y-122430000D02*
X177610000Y-125530000D01*
X196660000Y-72280100D02*
X196660000Y-75380100D01*
X196660000Y-75380100D02*
X200260000Y-75380100D01*
X200260000Y-75380100D02*
X200260000Y-72280100D01*
X200260000Y-72280100D02*
X196660000Y-72280100D01*
X200260000Y-91330100D02*
X196660000Y-91330100D01*
X200260000Y-94430100D02*
X200260000Y-91330100D01*
X196660000Y-94430100D02*
X200260000Y-94430100D01*
X196660000Y-91330100D02*
X196660000Y-94430100D01*
X200260000Y-110380000D02*
X196660000Y-110380000D01*
X200260000Y-113480000D02*
X200260000Y-110380000D01*
X196660000Y-113480000D02*
X200260000Y-113480000D01*
X196660000Y-110380000D02*
X196660000Y-113480000D01*
X196660000Y-129430000D02*
X196660000Y-132530000D01*
X196660000Y-132530000D02*
X200260000Y-132530000D01*
X200260000Y-132530000D02*
X200260000Y-129430000D01*
X200260000Y-129430000D02*
X196660000Y-129430000D01*
X124060000Y-65580100D02*
X120460000Y-65580100D01*
X124060000Y-68680100D02*
X124060000Y-65580100D01*
X120460000Y-68680100D02*
X124060000Y-68680100D01*
X120460000Y-65580100D02*
X120460000Y-68680100D01*
X120460000Y-84630100D02*
X120460000Y-87730100D01*
X120460000Y-87730100D02*
X124060000Y-87730100D01*
X124060000Y-87730100D02*
X124060000Y-84630100D01*
X124060000Y-84630100D02*
X120460000Y-84630100D01*
X124060000Y-103680000D02*
X120460000Y-103680000D01*
X124060000Y-106780000D02*
X124060000Y-103680000D01*
X120460000Y-106780000D02*
X124060000Y-106780000D01*
X120460000Y-103680000D02*
X120460000Y-106780000D01*
X139510000Y-63080100D02*
X139510000Y-66180100D01*
X139510000Y-66180100D02*
X143110000Y-66180100D01*
X143110000Y-66180100D02*
X143110000Y-63080100D01*
X143110000Y-63080100D02*
X139510000Y-63080100D01*
X143110000Y-82130100D02*
X139510000Y-82130100D01*
X143110000Y-85230100D02*
X143110000Y-82130100D01*
X139510000Y-85230100D02*
X143110000Y-85230100D01*
X139510000Y-82130100D02*
X139510000Y-85230100D01*
X139510000Y-101180000D02*
X139510000Y-104280000D01*
X139510000Y-104280000D02*
X143110000Y-104280000D01*
X143110000Y-104280000D02*
X143110000Y-101180000D01*
X143110000Y-101180000D02*
X139510000Y-101180000D01*
X139510000Y-67200100D02*
X139510000Y-70300100D01*
X139510000Y-70300100D02*
X143110000Y-70300100D01*
X143110000Y-70300100D02*
X143110000Y-67200100D01*
X143110000Y-67200100D02*
X139510000Y-67200100D01*
X200270000Y-76320100D02*
X196670000Y-76320100D01*
X200270000Y-79420100D02*
X200270000Y-76320100D01*
X196670000Y-79420100D02*
X200270000Y-79420100D01*
X196670000Y-76320100D02*
X196670000Y-79420100D01*
X196650000Y-114420000D02*
X196650000Y-117520000D01*
X196650000Y-117520000D02*
X200250000Y-117520000D01*
X200250000Y-117520000D02*
X200250000Y-114420000D01*
X200250000Y-114420000D02*
X196650000Y-114420000D01*
X162160000Y-102770000D02*
X158560000Y-102770000D01*
X162160000Y-105870000D02*
X162160000Y-102770000D01*
X158560000Y-105870000D02*
X162160000Y-105870000D01*
X158560000Y-102770000D02*
X158560000Y-105870000D01*
X127580000Y-114410000D02*
X123980000Y-114410000D01*
X127580000Y-117510000D02*
X127580000Y-114410000D01*
X123980000Y-117510000D02*
X127580000Y-117510000D01*
X123980000Y-114410000D02*
X123980000Y-117510000D01*
X100390000Y-118750000D02*
X100390000Y-121850000D01*
X100390000Y-121850000D02*
X103990000Y-121850000D01*
X103990000Y-121850000D02*
X103990000Y-118750000D01*
X103990000Y-118750000D02*
X100390000Y-118750000D01*
M02*
