M48
; DRILL file {KiCad (5.1.10)-1} date 12/24/21 05:38:55
; FORMAT={-:-/ absolute / metric / decimal}
; #@! TF.CreationDate,2021-12-24T05:38:55+09:00
; #@! TF.GenerationSoftware,Kicad,Pcbnew,(5.1.10)-1
; #@! TF.FileFunction,Plated,1,2,PTH
FMAT,2
METRIC
T1C0.300
T2C0.400
T3C0.813
T4C1.300
T5C2.200
%
G90
G05
T2
X85.18Y-126.88
X87.36Y-133.08
X90.38Y-141.08
X93.82Y-110.04
X93.88Y-56.2
X94.13Y-116.56
X94.3Y-121.81
X94.53Y-97.91
X95.97Y-127.88
X95.97Y-56.22
X96.74Y-121.71
X97.47Y-138.59
X97.616Y-73.755
X97.849Y-123.233
X98.255Y-67.555
X98.386Y-88.221
X98.775Y-83.776
X98.947Y-71.365
X99.44Y-117.06
X99.44Y-122.936
X99.665Y-67.555
X100.018Y-98.752
X100.025Y-78.985
X100.138Y-88.506
X100.196Y-85.197
X100.25Y-111.29
X100.335Y-100.376
X100.38Y-115.15
X100.635Y-77.715
X100.705Y-67.555
X101.267Y-116.962
X101.312Y-81.525
X101.312Y-83.086
X101.648Y-79.995
X101.688Y-127.995
X101.691Y-87.817
X102.395Y-91.995
X102.685Y-68.825
X103.215Y-75.378
X103.534Y-87.817
X103.585Y-136.565
X103.776Y-102.08
X103.855Y-67.555
X104.002Y-98.969
X104.265Y-68.825
X104.665Y-115.921
X104.935Y-67.555
X105.42Y-77.12
X105.519Y-101.79
X105.58Y-88.27
X105.875Y-68.825
X106.035Y-67.555
X106.473Y-118.143
X106.49Y-87.06
X107.299Y-66.0
X107.56Y-75.822
X107.694Y-101.722
X107.93Y-105.03
X108.83Y-59.98
X108.95Y-56.28
X109.027Y-125.934
X109.284Y-103.437
X109.435Y-117.769
X111.4Y-105.05
X111.713Y-110.672
X112.17Y-58.27
X112.17Y-66.43
X112.993Y-109.612
X113.01Y-58.851
X113.694Y-86.695
X113.785Y-57.11
X114.036Y-63.633
X114.18Y-111.4
X114.24Y-53.94
X114.788Y-76.16
X115.087Y-106.264
X115.26Y-89.304
X115.26Y-93.609
X115.38Y-111.4
X116.29Y-109.612
X116.325Y-110.672
X116.98Y-133.58
X117.15Y-91.502
X117.315Y-88.588
X117.46Y-107.5
X118.922Y-68.936
X119.255Y-71.059
X119.477Y-90.668
X119.583Y-83.801
X119.655Y-69.943
X120.055Y-116.075
X121.198Y-117.317
X121.259Y-118.644
X121.542Y-88.534
X121.728Y-112.457
X121.855Y-114.085
X121.907Y-78.428
X122.116Y-90.225
X122.72Y-74.09
X122.762Y-78.428
X123.282Y-124.075
X124.62Y-109.49
X125.01Y-103.059
X125.04Y-70.115
X125.239Y-89.347
X125.273Y-91.83
X126.144Y-64.735
X126.185Y-84.296
X126.185Y-106.962
X126.31Y-88.105
X126.48Y-132.03
X127.534Y-64.735
X127.881Y-87.171
X128.703Y-101.203
X128.87Y-71.03
X129.228Y-103.088
X129.239Y-107.821
X129.26Y-80.317
X129.966Y-113.27
X130.105Y-58.026
X130.635Y-65.04
X130.66Y-85.14
X130.803Y-112.434
X131.317Y-109.255
X131.508Y-55.913
X131.841Y-115.804
X132.236Y-82.563
X132.24Y-84.38
X132.532Y-55.935
X132.849Y-62.857
X133.22Y-51.61
X133.519Y-92.954
X133.872Y-62.861
X134.645Y-108.423
X135.037Y-104.53
X135.15Y-111.93
X135.405Y-72.044
X136.62Y-69.45
X136.62Y-71.769
X136.896Y-66.649
X136.945Y-114.7
X136.98Y-131.81
X138.02Y-61.31
X138.258Y-62.82
X138.391Y-78.917
X138.56Y-81.15
X138.737Y-99.937
X138.811Y-114.705
X139.6Y-111.89
X139.786Y-109.255
X140.861Y-86.789
X141.812Y-89.45
X142.432Y-104.89
X143.165Y-116.353
X143.702Y-66.442
X144.06Y-85.732
X144.59Y-105.969
X144.631Y-88.65
X144.638Y-123.769
X144.721Y-100.838
X144.79Y-131.7
X145.235Y-71.769
X145.235Y-81.301
X146.001Y-102.03
X146.347Y-84.854
X146.482Y-103.605
X146.761Y-65.859
X147.18Y-83.146
X147.32Y-89.19
X147.45Y-67.1
X147.772Y-80.567
X148.6Y-105.1
X148.77Y-82.96
X148.778Y-55.533
X148.778Y-93.345
X148.784Y-81.88
X149.056Y-98.386
X149.162Y-102.333
X149.289Y-100.558
X149.624Y-61.43
X150.001Y-73.866
X150.107Y-96.709
X150.364Y-68.618
X150.633Y-100.11
X150.648Y-98.285
X151.365Y-69.804
X152.349Y-58.023
X152.361Y-108.052
X152.41Y-78.94
X152.527Y-109.26
X152.73Y-82.7
X152.8Y-63.39
X152.87Y-116.27
X152.908Y-52.11
X152.908Y-90.21
X152.98Y-105.04
X153.02Y-121.72
X153.7Y-97.6
X154.347Y-105.04
X155.111Y-61.31
X155.126Y-80.939
X155.798Y-106.402
X155.852Y-79.152
X156.09Y-68.26
X156.93Y-97.52
X156.957Y-106.402
X157.011Y-87.459
X157.285Y-84.072
X157.61Y-60.126
X158.374Y-65.632
X159.696Y-65.742
X162.41Y-65.665
X162.595Y-102.333
X163.013Y-82.996
X163.185Y-97.725
X163.251Y-106.151
X163.34Y-86.911
X163.353Y-84.727
X164.285Y-117.211
X164.527Y-120.837
X164.787Y-101.621
X165.51Y-65.82
X165.856Y-105.63
X166.203Y-106.806
X166.27Y-68.72
X166.45Y-83.92
X166.51Y-87.23
X166.514Y-119.272
X166.788Y-56.262
X166.788Y-63.173
X166.819Y-77.975
X166.836Y-115.194
X166.897Y-98.268
X167.24Y-83.45
X167.51Y-99.7
X167.679Y-68.94
X168.0Y-49.38
X168.366Y-117.211
X168.955Y-66.13
X169.107Y-116.523
X169.2Y-119.78
X169.32Y-58.07
X169.43Y-63.66
X169.706Y-93.53
X170.59Y-70.41
X170.74Y-111.87
X170.98Y-102.929
X171.47Y-119.5
X171.935Y-56.81
X171.952Y-113.96
X171.954Y-75.86
X172.126Y-93.476
X172.19Y-126.62
X172.202Y-108.762
X172.31Y-102.929
X172.7Y-111.09
X172.917Y-66.13
X174.391Y-103.74
X174.612Y-69.903
X174.752Y-108.744
X174.913Y-64.786
X175.819Y-108.775
X176.068Y-106.841
X176.324Y-64.786
X176.66Y-88.206
X177.21Y-126.022
X177.62Y-109.5
X179.195Y-89.855
X179.197Y-77.231
X179.393Y-90.885
X179.539Y-107.268
X179.959Y-69.684
X181.501Y-92.822
X181.787Y-109.35
X181.861Y-122.151
X182.258Y-88.317
X182.39Y-120.956
X182.481Y-72.751
X182.514Y-70.303
X183.051Y-122.151
X183.335Y-84.001
X183.66Y-124.48
X183.71Y-102.3
X184.81Y-68.78
X185.11Y-112.356
X185.455Y-73.775
X185.61Y-121.2
X185.78Y-86.14
X185.868Y-81.831
X186.09Y-53.65
X186.42Y-85.1
X186.727Y-92.853
X186.868Y-57.718
X187.313Y-54.398
X187.46Y-101.62
X187.596Y-80.911
X187.596Y-88.423
X187.607Y-119.721
X187.65Y-126.15
X188.306Y-115.27
X188.62Y-121.93
X188.66Y-64.96
X188.798Y-85.099
X189.657Y-77.642
X189.954Y-113.176
X189.954Y-117.975
X190.28Y-61.48
X190.364Y-125.121
X190.983Y-101.91
X191.004Y-63.81
X191.004Y-82.888
X191.006Y-120.96
X191.09Y-133.66
X191.224Y-116.547
X191.95Y-107.807
X192.01Y-128.312
X192.791Y-80.026
X192.83Y-113.18
X193.103Y-118.867
X194.25Y-78.57
X194.422Y-119.041
X194.535Y-133.416
X194.785Y-109.025
X195.406Y-95.942
X195.598Y-117.975
X195.71Y-75.995
X196.937Y-97.477
X198.445Y-80.026
X200.196Y-90.058
X200.759Y-114.057
X201.21Y-94.937
X201.26Y-133.71
X201.328Y-75.884
X201.465Y-96.947
X202.297Y-128.841
X202.375Y-117.845
X202.385Y-72.062
X202.385Y-91.005
X202.385Y-109.819
X202.722Y-78.582
X202.858Y-127.965
X202.881Y-100.281
X203.38Y-93.315
X204.16Y-81.248
X204.16Y-119.344
X204.17Y-97.87
X205.77Y-128.42
X205.9Y-133.58
X205.91Y-61.57
X205.926Y-119.955
X206.012Y-64.729
X206.06Y-112.01
X206.47Y-94.43
X206.57Y-88.34
X206.644Y-109.819
X206.67Y-68.89
X206.67Y-74.79
X206.67Y-82.85
T3
X94.139Y-62.475
X94.139Y-65.015
X94.139Y-67.555
X94.139Y-70.095
X94.139Y-72.635
X94.139Y-75.175
X94.139Y-77.715
X94.139Y-80.255
X94.139Y-82.795
X94.139Y-85.335
X94.139Y-87.875
X94.139Y-90.415
X95.465Y-61.205
X95.465Y-63.745
X95.465Y-66.285
X95.465Y-68.825
X95.465Y-71.365
X95.465Y-73.905
X95.465Y-76.445
X95.465Y-78.985
X95.465Y-81.525
X95.465Y-84.065
X95.465Y-86.605
X95.465Y-89.145
X98.585Y-93.955
X101.125Y-93.955
X101.19Y-97.22
X103.24Y-97.22
X103.665Y-93.955
X106.205Y-93.955
X109.379Y-62.475
X109.379Y-65.015
X109.379Y-67.555
X109.379Y-70.095
X109.379Y-72.635
X109.379Y-75.175
X109.379Y-77.715
X109.379Y-80.255
X109.379Y-82.795
X109.379Y-85.335
X109.379Y-87.875
X109.379Y-90.415
X109.51Y-93.17
X109.51Y-98.25
X110.685Y-61.205
X110.685Y-63.745
X110.685Y-66.285
X110.685Y-68.825
X110.685Y-71.365
X110.685Y-73.905
X110.685Y-76.445
X110.685Y-78.985
X110.685Y-81.525
X110.685Y-84.065
X110.685Y-86.605
X110.685Y-89.145
X111.95Y-93.13
X111.95Y-98.21
T4
X94.625Y-94.435
X94.625Y-100.935
T5
X94.989Y-113.193
X109.589Y-107.88
T1
G00X96.575Y-103.435
M15
G01X97.875Y-103.435
M16
G05
G00X96.575Y-109.385
M15
G01X97.875Y-109.385
M16
G05
G00X99.575Y-103.435
M15
G01X100.875Y-103.435
M16
G05
G00X99.575Y-109.385
M15
G01X100.875Y-109.385
M16
G05
G00X103.575Y-103.435
M15
G01X104.875Y-103.435
M16
G05
G00X103.575Y-109.385
M15
G01X104.875Y-109.385
M16
G05
G00X105.075Y-105.185
M15
G01X106.375Y-105.185
M16
G05
G00X105.075Y-107.635
M15
G01X106.375Y-107.635
M16
G05
T0
M30
