G04 #@! TF.GenerationSoftware,KiCad,Pcbnew,(5.1.10)-1*
G04 #@! TF.CreationDate,2021-12-24T05:38:29+09:00*
G04 #@! TF.ProjectId,keyball39_Left,6b657962-616c-46c3-9339-5f4c6566742e,rev?*
G04 #@! TF.SameCoordinates,Original*
G04 #@! TF.FileFunction,Legend,Bot*
G04 #@! TF.FilePolarity,Positive*
%FSLAX46Y46*%
G04 Gerber Fmt 4.6, Leading zero omitted, Abs format (unit mm)*
G04 Created by KiCad (PCBNEW (5.1.10)-1) date 2021-12-24 05:38:29*
%MOMM*%
%LPD*%
G01*
G04 APERTURE LIST*
%ADD10C,0.300000*%
%ADD11C,0.200000*%
%ADD12C,0.150000*%
%ADD13C,0.010000*%
%ADD14C,0.120000*%
%ADD15C,0.400000*%
%ADD16C,0.500000*%
%ADD17C,3.500000*%
%ADD18C,1.000000*%
%ADD19C,3.000000*%
%ADD20C,0.800000*%
%ADD21C,0.125000*%
%ADD22C,0.152400*%
G04 APERTURE END LIST*
D10*
X149027426Y-107033638D02*
X149027426Y-105533638D01*
X148170283Y-107033638D02*
X148813140Y-106176495D01*
X148170283Y-105533638D02*
X149027426Y-106390781D01*
X146955997Y-106962209D02*
X147098854Y-107033638D01*
X147384569Y-107033638D01*
X147527426Y-106962209D01*
X147598854Y-106819352D01*
X147598854Y-106247924D01*
X147527426Y-106105067D01*
X147384569Y-106033638D01*
X147098854Y-106033638D01*
X146955997Y-106105067D01*
X146884569Y-106247924D01*
X146884569Y-106390781D01*
X147598854Y-106533638D01*
X146384569Y-106033638D02*
X146027426Y-107033638D01*
X145670283Y-106033638D02*
X146027426Y-107033638D01*
X146170283Y-107390781D01*
X146241711Y-107462209D01*
X146384569Y-107533638D01*
X145098854Y-107033638D02*
X145098854Y-105533638D01*
X145098854Y-106105067D02*
X144955997Y-106033638D01*
X144670283Y-106033638D01*
X144527426Y-106105067D01*
X144455997Y-106176495D01*
X144384569Y-106319352D01*
X144384569Y-106747924D01*
X144455997Y-106890781D01*
X144527426Y-106962209D01*
X144670283Y-107033638D01*
X144955997Y-107033638D01*
X145098854Y-106962209D01*
X143098854Y-107033638D02*
X143098854Y-106247924D01*
X143170283Y-106105067D01*
X143313140Y-106033638D01*
X143598854Y-106033638D01*
X143741711Y-106105067D01*
X143098854Y-106962209D02*
X143241711Y-107033638D01*
X143598854Y-107033638D01*
X143741711Y-106962209D01*
X143813140Y-106819352D01*
X143813140Y-106676495D01*
X143741711Y-106533638D01*
X143598854Y-106462209D01*
X143241711Y-106462209D01*
X143098854Y-106390781D01*
X142170283Y-107033638D02*
X142313140Y-106962209D01*
X142384569Y-106819352D01*
X142384569Y-105533638D01*
X141384569Y-107033638D02*
X141527426Y-106962209D01*
X141598854Y-106819352D01*
X141598854Y-105533638D01*
X140955997Y-105533638D02*
X140027426Y-105533638D01*
X140527426Y-106105067D01*
X140313140Y-106105067D01*
X140170283Y-106176495D01*
X140098854Y-106247924D01*
X140027426Y-106390781D01*
X140027426Y-106747924D01*
X140098854Y-106890781D01*
X140170283Y-106962209D01*
X140313140Y-107033638D01*
X140741711Y-107033638D01*
X140884569Y-106962209D01*
X140955997Y-106890781D01*
X139313140Y-107033638D02*
X139027426Y-107033638D01*
X138884569Y-106962209D01*
X138813140Y-106890781D01*
X138670283Y-106676495D01*
X138598854Y-106390781D01*
X138598854Y-105819352D01*
X138670283Y-105676495D01*
X138741711Y-105605067D01*
X138884569Y-105533638D01*
X139170283Y-105533638D01*
X139313140Y-105605067D01*
X139384569Y-105676495D01*
X139455997Y-105819352D01*
X139455997Y-106176495D01*
X139384569Y-106319352D01*
X139313140Y-106390781D01*
X139170283Y-106462209D01*
X138884569Y-106462209D01*
X138741711Y-106390781D01*
X138670283Y-106319352D01*
X138598854Y-106176495D01*
X136813140Y-107033638D02*
X136813140Y-106033638D01*
X136813140Y-106319352D02*
X136741711Y-106176495D01*
X136670283Y-106105067D01*
X136527426Y-106033638D01*
X136384569Y-106033638D01*
X135313140Y-106962209D02*
X135455997Y-107033638D01*
X135741711Y-107033638D01*
X135884569Y-106962209D01*
X135955997Y-106819352D01*
X135955997Y-106247924D01*
X135884569Y-106105067D01*
X135741711Y-106033638D01*
X135455997Y-106033638D01*
X135313140Y-106105067D01*
X135241711Y-106247924D01*
X135241711Y-106390781D01*
X135955997Y-106533638D01*
X134741711Y-106033638D02*
X134384569Y-107033638D01*
X134027426Y-106033638D01*
X133527426Y-105676495D02*
X133455997Y-105605067D01*
X133313140Y-105533638D01*
X132955997Y-105533638D01*
X132813140Y-105605067D01*
X132741711Y-105676495D01*
X132670283Y-105819352D01*
X132670283Y-105962209D01*
X132741711Y-106176495D01*
X133598854Y-107033638D01*
X132670283Y-107033638D01*
D11*
X98541711Y-84522924D02*
X99741711Y-84522924D01*
X99741711Y-84237209D01*
X99684569Y-84065781D01*
X99570283Y-83951495D01*
X99455997Y-83894352D01*
X99227426Y-83837209D01*
X99055997Y-83837209D01*
X98827426Y-83894352D01*
X98713140Y-83951495D01*
X98598854Y-84065781D01*
X98541711Y-84237209D01*
X98541711Y-84522924D01*
X98598854Y-82865781D02*
X98541711Y-82980067D01*
X98541711Y-83208638D01*
X98598854Y-83322924D01*
X98713140Y-83380067D01*
X99170283Y-83380067D01*
X99284569Y-83322924D01*
X99341711Y-83208638D01*
X99341711Y-82980067D01*
X99284569Y-82865781D01*
X99170283Y-82808638D01*
X99055997Y-82808638D01*
X98941711Y-83380067D01*
X98598854Y-82351495D02*
X98541711Y-82237209D01*
X98541711Y-82008638D01*
X98598854Y-81894352D01*
X98713140Y-81837209D01*
X98770283Y-81837209D01*
X98884569Y-81894352D01*
X98941711Y-82008638D01*
X98941711Y-82180067D01*
X98998854Y-82294352D01*
X99113140Y-82351495D01*
X99170283Y-82351495D01*
X99284569Y-82294352D01*
X99341711Y-82180067D01*
X99341711Y-82008638D01*
X99284569Y-81894352D01*
X98541711Y-81322924D02*
X99341711Y-81322924D01*
X99741711Y-81322924D02*
X99684569Y-81380067D01*
X99627426Y-81322924D01*
X99684569Y-81265781D01*
X99741711Y-81322924D01*
X99627426Y-81322924D01*
X99341711Y-80237209D02*
X98370283Y-80237209D01*
X98255997Y-80294352D01*
X98198854Y-80351495D01*
X98141711Y-80465781D01*
X98141711Y-80637209D01*
X98198854Y-80751495D01*
X98598854Y-80237209D02*
X98541711Y-80351495D01*
X98541711Y-80580067D01*
X98598854Y-80694352D01*
X98655997Y-80751495D01*
X98770283Y-80808638D01*
X99113140Y-80808638D01*
X99227426Y-80751495D01*
X99284569Y-80694352D01*
X99341711Y-80580067D01*
X99341711Y-80351495D01*
X99284569Y-80237209D01*
X99341711Y-79665781D02*
X98541711Y-79665781D01*
X99227426Y-79665781D02*
X99284569Y-79608638D01*
X99341711Y-79494352D01*
X99341711Y-79322924D01*
X99284569Y-79208638D01*
X99170283Y-79151495D01*
X98541711Y-79151495D01*
X98598854Y-78122924D02*
X98541711Y-78237209D01*
X98541711Y-78465781D01*
X98598854Y-78580067D01*
X98713140Y-78637209D01*
X99170283Y-78637209D01*
X99284569Y-78580067D01*
X99341711Y-78465781D01*
X99341711Y-78237209D01*
X99284569Y-78122924D01*
X99170283Y-78065781D01*
X99055997Y-78065781D01*
X98941711Y-78637209D01*
X98541711Y-77037209D02*
X99741711Y-77037209D01*
X98598854Y-77037209D02*
X98541711Y-77151495D01*
X98541711Y-77380067D01*
X98598854Y-77494352D01*
X98655997Y-77551495D01*
X98770283Y-77608638D01*
X99113140Y-77608638D01*
X99227426Y-77551495D01*
X99284569Y-77494352D01*
X99341711Y-77380067D01*
X99341711Y-77151495D01*
X99284569Y-77037209D01*
X98541711Y-75551495D02*
X99741711Y-75551495D01*
X99284569Y-75551495D02*
X99341711Y-75437209D01*
X99341711Y-75208638D01*
X99284569Y-75094352D01*
X99227426Y-75037209D01*
X99113140Y-74980067D01*
X98770283Y-74980067D01*
X98655997Y-75037209D01*
X98598854Y-75094352D01*
X98541711Y-75208638D01*
X98541711Y-75437209D01*
X98598854Y-75551495D01*
X99341711Y-74580067D02*
X98541711Y-74294352D01*
X99341711Y-74008638D02*
X98541711Y-74294352D01*
X98255997Y-74408638D01*
X98198854Y-74465781D01*
X98141711Y-74580067D01*
X99113140Y-72408638D02*
X98541711Y-72408638D01*
X99741711Y-72808638D02*
X99113140Y-72408638D01*
X99741711Y-72008638D01*
X98541711Y-71437209D02*
X98598854Y-71551495D01*
X98655997Y-71608638D01*
X98770283Y-71665781D01*
X99113140Y-71665781D01*
X99227426Y-71608638D01*
X99284569Y-71551495D01*
X99341711Y-71437209D01*
X99341711Y-71265781D01*
X99284569Y-71151495D01*
X99227426Y-71094352D01*
X99113140Y-71037209D01*
X98770283Y-71037209D01*
X98655997Y-71094352D01*
X98598854Y-71151495D01*
X98541711Y-71265781D01*
X98541711Y-71437209D01*
X99341711Y-70637209D02*
X98541711Y-70408638D01*
X99113140Y-70180067D01*
X98541711Y-69951495D01*
X99341711Y-69722924D01*
X98541711Y-69265781D02*
X99741711Y-69265781D01*
X98998854Y-69151495D02*
X98541711Y-68808638D01*
X99341711Y-68808638D02*
X98884569Y-69265781D01*
X98598854Y-67837209D02*
X98541711Y-67951495D01*
X98541711Y-68180067D01*
X98598854Y-68294352D01*
X98713140Y-68351495D01*
X99170283Y-68351495D01*
X99284569Y-68294352D01*
X99341711Y-68180067D01*
X99341711Y-67951495D01*
X99284569Y-67837209D01*
X99170283Y-67780067D01*
X99055997Y-67780067D01*
X98941711Y-68351495D01*
X98598854Y-66808638D02*
X98541711Y-66922924D01*
X98541711Y-67151495D01*
X98598854Y-67265781D01*
X98713140Y-67322924D01*
X99170283Y-67322924D01*
X99284569Y-67265781D01*
X99341711Y-67151495D01*
X99341711Y-66922924D01*
X99284569Y-66808638D01*
X99170283Y-66751495D01*
X99055997Y-66751495D01*
X98941711Y-67322924D01*
X98598854Y-66294352D02*
X98541711Y-66180067D01*
X98541711Y-65951495D01*
X98598854Y-65837209D01*
X98713140Y-65780067D01*
X98770283Y-65780067D01*
X98884569Y-65837209D01*
X98941711Y-65951495D01*
X98941711Y-66122924D01*
X98998854Y-66237209D01*
X99113140Y-66294352D01*
X99170283Y-66294352D01*
X99284569Y-66237209D01*
X99341711Y-66122924D01*
X99341711Y-65951495D01*
X99284569Y-65837209D01*
D12*
X106732902Y-86762924D02*
X106618616Y-86801019D01*
X106580521Y-86839114D01*
X106542426Y-86915305D01*
X106542426Y-87029590D01*
X106580521Y-87105781D01*
X106618616Y-87143876D01*
X106694807Y-87181971D01*
X106999569Y-87181971D01*
X106999569Y-86381971D01*
X106732902Y-86381971D01*
X106656711Y-86420067D01*
X106618616Y-86458162D01*
X106580521Y-86534352D01*
X106580521Y-86610543D01*
X106618616Y-86686733D01*
X106656711Y-86724828D01*
X106732902Y-86762924D01*
X106999569Y-86762924D01*
X106237664Y-86953400D02*
X105856711Y-86953400D01*
X106313854Y-87181971D02*
X106047188Y-86381971D01*
X105780521Y-87181971D01*
X105056711Y-87105781D02*
X105094807Y-87143876D01*
X105209092Y-87181971D01*
X105285283Y-87181971D01*
X105399569Y-87143876D01*
X105475759Y-87067686D01*
X105513854Y-86991495D01*
X105551949Y-86839114D01*
X105551949Y-86724828D01*
X105513854Y-86572447D01*
X105475759Y-86496257D01*
X105399569Y-86420067D01*
X105285283Y-86381971D01*
X105209092Y-86381971D01*
X105094807Y-86420067D01*
X105056711Y-86458162D01*
X104713854Y-87181971D02*
X104713854Y-86381971D01*
X104256711Y-87181971D02*
X104599569Y-86724828D01*
X104256711Y-86381971D02*
X104713854Y-86839114D01*
X103342426Y-87143876D02*
X103228140Y-87181971D01*
X103037664Y-87181971D01*
X102961473Y-87143876D01*
X102923378Y-87105781D01*
X102885283Y-87029590D01*
X102885283Y-86953400D01*
X102923378Y-86877209D01*
X102961473Y-86839114D01*
X103037664Y-86801019D01*
X103190045Y-86762924D01*
X103266235Y-86724828D01*
X103304330Y-86686733D01*
X103342426Y-86610543D01*
X103342426Y-86534352D01*
X103304330Y-86458162D01*
X103266235Y-86420067D01*
X103190045Y-86381971D01*
X102999569Y-86381971D01*
X102885283Y-86420067D01*
X102542426Y-87181971D02*
X102542426Y-86381971D01*
X102161473Y-87181971D02*
X102161473Y-86381971D01*
X101970997Y-86381971D01*
X101856711Y-86420067D01*
X101780521Y-86496257D01*
X101742426Y-86572447D01*
X101704330Y-86724828D01*
X101704330Y-86839114D01*
X101742426Y-86991495D01*
X101780521Y-87067686D01*
X101856711Y-87143876D01*
X101970997Y-87181971D01*
X102161473Y-87181971D01*
X101361473Y-86762924D02*
X101094807Y-86762924D01*
X100980521Y-87181971D02*
X101361473Y-87181971D01*
X101361473Y-86381971D01*
X100980521Y-86381971D01*
X99875759Y-86381971D02*
X99723378Y-86381971D01*
X99647188Y-86420067D01*
X99570997Y-86496257D01*
X99532902Y-86648638D01*
X99532902Y-86915305D01*
X99570997Y-87067686D01*
X99647188Y-87143876D01*
X99723378Y-87181971D01*
X99875759Y-87181971D01*
X99951949Y-87143876D01*
X100028140Y-87067686D01*
X100066235Y-86915305D01*
X100066235Y-86648638D01*
X100028140Y-86496257D01*
X99951949Y-86420067D01*
X99875759Y-86381971D01*
X99190045Y-87181971D02*
X99190045Y-86381971D01*
X98732902Y-87181971D01*
X98732902Y-86381971D01*
X97970997Y-87181971D02*
X98351949Y-87181971D01*
X98351949Y-86381971D01*
X97551949Y-86801019D02*
X97551949Y-87181971D01*
X97818616Y-86381971D02*
X97551949Y-86801019D01*
X97285283Y-86381971D01*
D13*
G36*
X105194255Y-80884829D02*
G01*
X105120431Y-80535081D01*
X104977015Y-80198142D01*
X104819932Y-79951823D01*
X104586569Y-79695305D01*
X104308895Y-79489721D01*
X103997401Y-79338432D01*
X103662575Y-79244797D01*
X103314909Y-79212175D01*
X102964893Y-79243926D01*
X102764062Y-79293431D01*
X102439128Y-79429358D01*
X102143016Y-79623923D01*
X101887601Y-79867214D01*
X101684758Y-80149321D01*
X101640320Y-80231302D01*
X101573425Y-80348840D01*
X101516782Y-80409831D01*
X101460043Y-80426924D01*
X101404033Y-80450095D01*
X101314068Y-80520885D01*
X101188283Y-80641202D01*
X101024812Y-80812960D01*
X100821788Y-81038068D01*
X100577346Y-81318438D01*
X100488640Y-81421814D01*
X100384728Y-81543681D01*
X100307651Y-81641695D01*
X100254719Y-81729189D01*
X100223242Y-81819493D01*
X100210533Y-81925938D01*
X100213902Y-82061854D01*
X100230659Y-82240574D01*
X100258116Y-82475426D01*
X100264796Y-82531495D01*
X100400823Y-83503023D01*
X100501915Y-84082710D01*
X100578150Y-84490924D01*
X100692145Y-84490683D01*
X100786996Y-84483614D01*
X100786996Y-84273210D01*
X100740739Y-84252736D01*
X100705632Y-84182445D01*
X100683298Y-84095361D01*
X100655933Y-83950852D01*
X100622946Y-83749942D01*
X100586545Y-83508375D01*
X100548939Y-83241897D01*
X100512336Y-82966254D01*
X100478944Y-82697191D01*
X100450971Y-82450453D01*
X100446152Y-82404495D01*
X100427720Y-82227793D01*
X100411807Y-82078899D01*
X100399931Y-81971749D01*
X100393609Y-81920279D01*
X100393169Y-81917970D01*
X100426161Y-81914530D01*
X100520556Y-81913819D01*
X100665243Y-81915688D01*
X100849111Y-81919993D01*
X101061049Y-81926587D01*
X101069212Y-81926871D01*
X101294179Y-81935680D01*
X101503054Y-81945648D01*
X101681435Y-81955952D01*
X101814916Y-81965765D01*
X101885640Y-81973644D01*
X102021712Y-81996705D01*
X102021712Y-82218965D01*
X102027700Y-82378633D01*
X102044179Y-82590253D01*
X102060682Y-82753018D01*
X102060682Y-81810066D01*
X101723697Y-81773659D01*
X101539421Y-81755757D01*
X101316500Y-81737075D01*
X101088774Y-81720338D01*
X100960355Y-81712155D01*
X100794250Y-81701314D01*
X100658395Y-81690421D01*
X100566932Y-81680753D01*
X100533997Y-81673667D01*
X100556153Y-81642360D01*
X100615949Y-81568486D01*
X100703378Y-81464219D01*
X100776027Y-81379243D01*
X100912537Y-81223527D01*
X101064438Y-81054586D01*
X101205083Y-80901945D01*
X101244454Y-80860213D01*
X101470852Y-80622217D01*
X101719068Y-80689065D01*
X101838839Y-80723105D01*
X101993230Y-80769516D01*
X102167071Y-80823436D01*
X102345195Y-80880000D01*
X102512433Y-80934345D01*
X102653615Y-80981608D01*
X102753573Y-81016925D01*
X102795039Y-81034056D01*
X102781173Y-81063930D01*
X102723359Y-81135036D01*
X102629806Y-81238146D01*
X102508719Y-81364029D01*
X102442595Y-81430459D01*
X102060682Y-81810066D01*
X102060682Y-82753018D01*
X102068926Y-82834327D01*
X102099712Y-83091359D01*
X102134314Y-83341852D01*
X102170505Y-83566310D01*
X102183728Y-83638210D01*
X102209590Y-83775789D01*
X102229065Y-83884661D01*
X102238860Y-83946232D01*
X102239420Y-83952544D01*
X102205895Y-83970843D01*
X102113851Y-83999723D01*
X101976090Y-84036355D01*
X101805413Y-84077914D01*
X101614625Y-84121574D01*
X101416526Y-84164507D01*
X101223921Y-84203888D01*
X101049610Y-84236889D01*
X100906398Y-84260685D01*
X100807085Y-84272448D01*
X100786996Y-84273210D01*
X100786996Y-84483614D01*
X100799005Y-84482718D01*
X100961595Y-84460910D01*
X101164976Y-84427920D01*
X101394206Y-84386408D01*
X101634348Y-84339036D01*
X101870460Y-84288465D01*
X102015076Y-84255047D01*
X102421953Y-84157759D01*
X102431062Y-84147696D01*
X102431062Y-83817591D01*
X102411731Y-83789167D01*
X102408121Y-83777690D01*
X102375497Y-83640509D01*
X102340563Y-83448454D01*
X102305554Y-83219078D01*
X102272707Y-82969937D01*
X102244257Y-82718584D01*
X102222438Y-82482575D01*
X102209486Y-82279464D01*
X102207075Y-82198803D01*
X102203140Y-81920539D01*
X102556564Y-81591017D01*
X102688759Y-81469343D01*
X102802154Y-81367943D01*
X102886231Y-81296006D01*
X102930469Y-81262719D01*
X102933839Y-81261495D01*
X102953194Y-81295619D01*
X102977310Y-81389906D01*
X103004549Y-81532230D01*
X103033278Y-81710465D01*
X103061861Y-81912486D01*
X103088663Y-82126166D01*
X103112049Y-82339380D01*
X103130384Y-82540002D01*
X103142032Y-82715905D01*
X103145437Y-82830622D01*
X103146569Y-83075320D01*
X102896904Y-83356765D01*
X102778597Y-83488126D01*
X102665383Y-83610364D01*
X102573820Y-83705754D01*
X102537574Y-83741405D01*
X102467439Y-83803231D01*
X102431062Y-83817591D01*
X102431062Y-84147696D01*
X102739207Y-83807270D01*
X102934660Y-83589337D01*
X103084540Y-83417110D01*
X103193791Y-83284191D01*
X103267354Y-83184180D01*
X103310172Y-83110678D01*
X103327184Y-83057285D01*
X103327997Y-83044830D01*
X103337647Y-82995647D01*
X103379382Y-82972868D01*
X103472384Y-82966955D01*
X103484697Y-82966924D01*
X103766301Y-82932806D01*
X103975692Y-82861520D01*
X103975692Y-82441863D01*
X103884659Y-82405682D01*
X103839933Y-82323335D01*
X103847492Y-82203704D01*
X103888918Y-82098983D01*
X103979002Y-81967434D01*
X104101154Y-81846065D01*
X104240567Y-81743830D01*
X104382435Y-81669683D01*
X104511952Y-81632579D01*
X104614311Y-81641471D01*
X104631135Y-81650123D01*
X104688479Y-81722531D01*
X104692883Y-81824406D01*
X104651726Y-81944865D01*
X104572387Y-82073024D01*
X104462247Y-82198001D01*
X104328685Y-82308912D01*
X104179081Y-82394876D01*
X104107052Y-82422997D01*
X103975692Y-82441863D01*
X103975692Y-82861520D01*
X104050875Y-82835924D01*
X104326237Y-82684488D01*
X104580206Y-82486705D01*
X104800600Y-82250784D01*
X104975238Y-81984933D01*
X104992944Y-81950605D01*
X105131033Y-81598623D01*
X105197963Y-81241354D01*
X105194255Y-80884829D01*
G37*
X105194255Y-80884829D02*
X105120431Y-80535081D01*
X104977015Y-80198142D01*
X104819932Y-79951823D01*
X104586569Y-79695305D01*
X104308895Y-79489721D01*
X103997401Y-79338432D01*
X103662575Y-79244797D01*
X103314909Y-79212175D01*
X102964893Y-79243926D01*
X102764062Y-79293431D01*
X102439128Y-79429358D01*
X102143016Y-79623923D01*
X101887601Y-79867214D01*
X101684758Y-80149321D01*
X101640320Y-80231302D01*
X101573425Y-80348840D01*
X101516782Y-80409831D01*
X101460043Y-80426924D01*
X101404033Y-80450095D01*
X101314068Y-80520885D01*
X101188283Y-80641202D01*
X101024812Y-80812960D01*
X100821788Y-81038068D01*
X100577346Y-81318438D01*
X100488640Y-81421814D01*
X100384728Y-81543681D01*
X100307651Y-81641695D01*
X100254719Y-81729189D01*
X100223242Y-81819493D01*
X100210533Y-81925938D01*
X100213902Y-82061854D01*
X100230659Y-82240574D01*
X100258116Y-82475426D01*
X100264796Y-82531495D01*
X100400823Y-83503023D01*
X100501915Y-84082710D01*
X100578150Y-84490924D01*
X100692145Y-84490683D01*
X100786996Y-84483614D01*
X100786996Y-84273210D01*
X100740739Y-84252736D01*
X100705632Y-84182445D01*
X100683298Y-84095361D01*
X100655933Y-83950852D01*
X100622946Y-83749942D01*
X100586545Y-83508375D01*
X100548939Y-83241897D01*
X100512336Y-82966254D01*
X100478944Y-82697191D01*
X100450971Y-82450453D01*
X100446152Y-82404495D01*
X100427720Y-82227793D01*
X100411807Y-82078899D01*
X100399931Y-81971749D01*
X100393609Y-81920279D01*
X100393169Y-81917970D01*
X100426161Y-81914530D01*
X100520556Y-81913819D01*
X100665243Y-81915688D01*
X100849111Y-81919993D01*
X101061049Y-81926587D01*
X101069212Y-81926871D01*
X101294179Y-81935680D01*
X101503054Y-81945648D01*
X101681435Y-81955952D01*
X101814916Y-81965765D01*
X101885640Y-81973644D01*
X102021712Y-81996705D01*
X102021712Y-82218965D01*
X102027700Y-82378633D01*
X102044179Y-82590253D01*
X102060682Y-82753018D01*
X102060682Y-81810066D01*
X101723697Y-81773659D01*
X101539421Y-81755757D01*
X101316500Y-81737075D01*
X101088774Y-81720338D01*
X100960355Y-81712155D01*
X100794250Y-81701314D01*
X100658395Y-81690421D01*
X100566932Y-81680753D01*
X100533997Y-81673667D01*
X100556153Y-81642360D01*
X100615949Y-81568486D01*
X100703378Y-81464219D01*
X100776027Y-81379243D01*
X100912537Y-81223527D01*
X101064438Y-81054586D01*
X101205083Y-80901945D01*
X101244454Y-80860213D01*
X101470852Y-80622217D01*
X101719068Y-80689065D01*
X101838839Y-80723105D01*
X101993230Y-80769516D01*
X102167071Y-80823436D01*
X102345195Y-80880000D01*
X102512433Y-80934345D01*
X102653615Y-80981608D01*
X102753573Y-81016925D01*
X102795039Y-81034056D01*
X102781173Y-81063930D01*
X102723359Y-81135036D01*
X102629806Y-81238146D01*
X102508719Y-81364029D01*
X102442595Y-81430459D01*
X102060682Y-81810066D01*
X102060682Y-82753018D01*
X102068926Y-82834327D01*
X102099712Y-83091359D01*
X102134314Y-83341852D01*
X102170505Y-83566310D01*
X102183728Y-83638210D01*
X102209590Y-83775789D01*
X102229065Y-83884661D01*
X102238860Y-83946232D01*
X102239420Y-83952544D01*
X102205895Y-83970843D01*
X102113851Y-83999723D01*
X101976090Y-84036355D01*
X101805413Y-84077914D01*
X101614625Y-84121574D01*
X101416526Y-84164507D01*
X101223921Y-84203888D01*
X101049610Y-84236889D01*
X100906398Y-84260685D01*
X100807085Y-84272448D01*
X100786996Y-84273210D01*
X100786996Y-84483614D01*
X100799005Y-84482718D01*
X100961595Y-84460910D01*
X101164976Y-84427920D01*
X101394206Y-84386408D01*
X101634348Y-84339036D01*
X101870460Y-84288465D01*
X102015076Y-84255047D01*
X102421953Y-84157759D01*
X102431062Y-84147696D01*
X102431062Y-83817591D01*
X102411731Y-83789167D01*
X102408121Y-83777690D01*
X102375497Y-83640509D01*
X102340563Y-83448454D01*
X102305554Y-83219078D01*
X102272707Y-82969937D01*
X102244257Y-82718584D01*
X102222438Y-82482575D01*
X102209486Y-82279464D01*
X102207075Y-82198803D01*
X102203140Y-81920539D01*
X102556564Y-81591017D01*
X102688759Y-81469343D01*
X102802154Y-81367943D01*
X102886231Y-81296006D01*
X102930469Y-81262719D01*
X102933839Y-81261495D01*
X102953194Y-81295619D01*
X102977310Y-81389906D01*
X103004549Y-81532230D01*
X103033278Y-81710465D01*
X103061861Y-81912486D01*
X103088663Y-82126166D01*
X103112049Y-82339380D01*
X103130384Y-82540002D01*
X103142032Y-82715905D01*
X103145437Y-82830622D01*
X103146569Y-83075320D01*
X102896904Y-83356765D01*
X102778597Y-83488126D01*
X102665383Y-83610364D01*
X102573820Y-83705754D01*
X102537574Y-83741405D01*
X102467439Y-83803231D01*
X102431062Y-83817591D01*
X102431062Y-84147696D01*
X102739207Y-83807270D01*
X102934660Y-83589337D01*
X103084540Y-83417110D01*
X103193791Y-83284191D01*
X103267354Y-83184180D01*
X103310172Y-83110678D01*
X103327184Y-83057285D01*
X103327997Y-83044830D01*
X103337647Y-82995647D01*
X103379382Y-82972868D01*
X103472384Y-82966955D01*
X103484697Y-82966924D01*
X103766301Y-82932806D01*
X103975692Y-82861520D01*
X103975692Y-82441863D01*
X103884659Y-82405682D01*
X103839933Y-82323335D01*
X103847492Y-82203704D01*
X103888918Y-82098983D01*
X103979002Y-81967434D01*
X104101154Y-81846065D01*
X104240567Y-81743830D01*
X104382435Y-81669683D01*
X104511952Y-81632579D01*
X104614311Y-81641471D01*
X104631135Y-81650123D01*
X104688479Y-81722531D01*
X104692883Y-81824406D01*
X104651726Y-81944865D01*
X104572387Y-82073024D01*
X104462247Y-82198001D01*
X104328685Y-82308912D01*
X104179081Y-82394876D01*
X104107052Y-82422997D01*
X103975692Y-82441863D01*
X103975692Y-82861520D01*
X104050875Y-82835924D01*
X104326237Y-82684488D01*
X104580206Y-82486705D01*
X104800600Y-82250784D01*
X104975238Y-81984933D01*
X104992944Y-81950605D01*
X105131033Y-81598623D01*
X105197963Y-81241354D01*
X105194255Y-80884829D01*
G36*
X103155640Y-73731734D02*
G01*
X102961370Y-73673171D01*
X102741158Y-73606665D01*
X102538503Y-73545356D01*
X102513879Y-73537896D01*
X102189617Y-73439639D01*
X102831379Y-73283361D01*
X103473140Y-73127083D01*
X103473140Y-72799836D01*
X103470550Y-72637581D01*
X103461884Y-72538553D01*
X103445798Y-72493562D01*
X103427783Y-72489853D01*
X103381429Y-72506591D01*
X103277278Y-72543701D01*
X103125971Y-72597406D01*
X102938149Y-72663933D01*
X102724451Y-72739506D01*
X102638569Y-72769848D01*
X102393481Y-72858275D01*
X102147867Y-72950217D01*
X101918487Y-73039158D01*
X101722102Y-73118585D01*
X101575470Y-73181983D01*
X101560904Y-73188723D01*
X101247306Y-73362661D01*
X101002436Y-73559095D01*
X100825895Y-73778443D01*
X100717279Y-74021122D01*
X100701545Y-74081682D01*
X100694261Y-74133668D01*
X100711011Y-74168097D01*
X100766062Y-74195335D01*
X100873681Y-74225751D01*
X100913774Y-74235896D01*
X101035335Y-74265755D01*
X101126577Y-74286904D01*
X101166896Y-74294638D01*
X101191496Y-74264551D01*
X101229576Y-74189361D01*
X101242921Y-74158567D01*
X101314579Y-74028607D01*
X101409052Y-73912270D01*
X101509750Y-73826284D01*
X101600083Y-73787379D01*
X101611745Y-73786638D01*
X101667411Y-73799771D01*
X101780171Y-73836718D01*
X101939955Y-73893806D01*
X102136695Y-73967361D01*
X102360321Y-74053707D01*
X102556378Y-74131352D01*
X102790975Y-74224873D01*
X103003412Y-74308756D01*
X103184391Y-74379394D01*
X103324615Y-74433181D01*
X103414786Y-74466512D01*
X103445176Y-74476067D01*
X103457529Y-74442495D01*
X103467090Y-74352608D01*
X103472462Y-74222651D01*
X103473140Y-74151691D01*
X103473140Y-73827315D01*
X103155640Y-73731734D01*
G37*
X103155640Y-73731734D02*
X102961370Y-73673171D01*
X102741158Y-73606665D01*
X102538503Y-73545356D01*
X102513879Y-73537896D01*
X102189617Y-73439639D01*
X102831379Y-73283361D01*
X103473140Y-73127083D01*
X103473140Y-72799836D01*
X103470550Y-72637581D01*
X103461884Y-72538553D01*
X103445798Y-72493562D01*
X103427783Y-72489853D01*
X103381429Y-72506591D01*
X103277278Y-72543701D01*
X103125971Y-72597406D01*
X102938149Y-72663933D01*
X102724451Y-72739506D01*
X102638569Y-72769848D01*
X102393481Y-72858275D01*
X102147867Y-72950217D01*
X101918487Y-73039158D01*
X101722102Y-73118585D01*
X101575470Y-73181983D01*
X101560904Y-73188723D01*
X101247306Y-73362661D01*
X101002436Y-73559095D01*
X100825895Y-73778443D01*
X100717279Y-74021122D01*
X100701545Y-74081682D01*
X100694261Y-74133668D01*
X100711011Y-74168097D01*
X100766062Y-74195335D01*
X100873681Y-74225751D01*
X100913774Y-74235896D01*
X101035335Y-74265755D01*
X101126577Y-74286904D01*
X101166896Y-74294638D01*
X101191496Y-74264551D01*
X101229576Y-74189361D01*
X101242921Y-74158567D01*
X101314579Y-74028607D01*
X101409052Y-73912270D01*
X101509750Y-73826284D01*
X101600083Y-73787379D01*
X101611745Y-73786638D01*
X101667411Y-73799771D01*
X101780171Y-73836718D01*
X101939955Y-73893806D01*
X102136695Y-73967361D01*
X102360321Y-74053707D01*
X102556378Y-74131352D01*
X102790975Y-74224873D01*
X103003412Y-74308756D01*
X103184391Y-74379394D01*
X103324615Y-74433181D01*
X103414786Y-74466512D01*
X103445176Y-74476067D01*
X103457529Y-74442495D01*
X103467090Y-74352608D01*
X103472462Y-74222651D01*
X103473140Y-74151691D01*
X103473140Y-73827315D01*
X103155640Y-73731734D01*
G36*
X103492830Y-75277606D02*
G01*
X103426294Y-75048754D01*
X103302685Y-74863356D01*
X103124144Y-74723761D01*
X102892813Y-74632320D01*
X102629497Y-74592393D01*
X102348283Y-74575599D01*
X102348283Y-75215262D01*
X102346470Y-75432772D01*
X102341382Y-75615279D01*
X102333542Y-75752768D01*
X102323476Y-75835223D01*
X102314781Y-75854924D01*
X102242909Y-75825193D01*
X102159008Y-75749471D01*
X102080790Y-75647967D01*
X102025968Y-75540887D01*
X102018268Y-75516632D01*
X101999048Y-75383509D01*
X101996556Y-75210969D01*
X102009665Y-75029936D01*
X102037245Y-74871335D01*
X102042532Y-74851493D01*
X102049218Y-74802779D01*
X102027136Y-74769496D01*
X101963109Y-74744008D01*
X101843962Y-74718681D01*
X101799579Y-74710693D01*
X101710628Y-74700756D01*
X101663376Y-74723942D01*
X101628967Y-74796382D01*
X101624548Y-74808544D01*
X101601015Y-74911656D01*
X101582276Y-75063732D01*
X101569400Y-75241926D01*
X101563453Y-75423389D01*
X101565502Y-75585273D01*
X101576615Y-75704732D01*
X101581617Y-75727924D01*
X101680156Y-75974687D01*
X101828784Y-76171557D01*
X102023457Y-76314560D01*
X102260133Y-76399721D01*
X102266400Y-76401043D01*
X102542796Y-76427050D01*
X102799420Y-76391048D01*
X102825855Y-76380368D01*
X102825855Y-75857032D01*
X102783149Y-75840610D01*
X102759145Y-75764899D01*
X102748956Y-75625015D01*
X102747426Y-75492067D01*
X102749220Y-75339746D01*
X102754059Y-75218912D01*
X102761124Y-75144925D01*
X102766734Y-75129210D01*
X102809738Y-75141934D01*
X102891513Y-75173384D01*
X102912108Y-75181883D01*
X103033652Y-75265603D01*
X103098488Y-75382114D01*
X103104586Y-75516486D01*
X103049913Y-75653790D01*
X102986912Y-75731552D01*
X102892147Y-75819051D01*
X102825855Y-75857032D01*
X102825855Y-76380368D01*
X103028199Y-76298619D01*
X103221065Y-76155346D01*
X103369945Y-75966813D01*
X103466768Y-75738602D01*
X103500151Y-75547562D01*
X103492830Y-75277606D01*
G37*
X103492830Y-75277606D02*
X103426294Y-75048754D01*
X103302685Y-74863356D01*
X103124144Y-74723761D01*
X102892813Y-74632320D01*
X102629497Y-74592393D01*
X102348283Y-74575599D01*
X102348283Y-75215262D01*
X102346470Y-75432772D01*
X102341382Y-75615279D01*
X102333542Y-75752768D01*
X102323476Y-75835223D01*
X102314781Y-75854924D01*
X102242909Y-75825193D01*
X102159008Y-75749471D01*
X102080790Y-75647967D01*
X102025968Y-75540887D01*
X102018268Y-75516632D01*
X101999048Y-75383509D01*
X101996556Y-75210969D01*
X102009665Y-75029936D01*
X102037245Y-74871335D01*
X102042532Y-74851493D01*
X102049218Y-74802779D01*
X102027136Y-74769496D01*
X101963109Y-74744008D01*
X101843962Y-74718681D01*
X101799579Y-74710693D01*
X101710628Y-74700756D01*
X101663376Y-74723942D01*
X101628967Y-74796382D01*
X101624548Y-74808544D01*
X101601015Y-74911656D01*
X101582276Y-75063732D01*
X101569400Y-75241926D01*
X101563453Y-75423389D01*
X101565502Y-75585273D01*
X101576615Y-75704732D01*
X101581617Y-75727924D01*
X101680156Y-75974687D01*
X101828784Y-76171557D01*
X102023457Y-76314560D01*
X102260133Y-76399721D01*
X102266400Y-76401043D01*
X102542796Y-76427050D01*
X102799420Y-76391048D01*
X102825855Y-76380368D01*
X102825855Y-75857032D01*
X102783149Y-75840610D01*
X102759145Y-75764899D01*
X102748956Y-75625015D01*
X102747426Y-75492067D01*
X102749220Y-75339746D01*
X102754059Y-75218912D01*
X102761124Y-75144925D01*
X102766734Y-75129210D01*
X102809738Y-75141934D01*
X102891513Y-75173384D01*
X102912108Y-75181883D01*
X103033652Y-75265603D01*
X103098488Y-75382114D01*
X103104586Y-75516486D01*
X103049913Y-75653790D01*
X102986912Y-75731552D01*
X102892147Y-75819051D01*
X102825855Y-75857032D01*
X102825855Y-76380368D01*
X103028199Y-76298619D01*
X103221065Y-76155346D01*
X103369945Y-75966813D01*
X103466768Y-75738602D01*
X103500151Y-75547562D01*
X103492830Y-75277606D01*
G36*
X103241848Y-71609495D02*
G01*
X103340066Y-71506978D01*
X103444486Y-71348730D01*
X103497899Y-71157974D01*
X103501256Y-70952870D01*
X103455504Y-70751578D01*
X103361593Y-70572260D01*
X103286770Y-70486739D01*
X103101838Y-70358504D01*
X102873766Y-70273514D01*
X102619962Y-70235006D01*
X102357833Y-70246216D01*
X102188400Y-70282516D01*
X101971510Y-70378470D01*
X101793434Y-70522203D01*
X101660175Y-70701860D01*
X101577735Y-70905586D01*
X101552116Y-71121524D01*
X101589321Y-71337821D01*
X101617615Y-71409924D01*
X101672467Y-71512187D01*
X101728756Y-71590210D01*
X101743419Y-71604535D01*
X101784829Y-71662363D01*
X101759428Y-71703232D01*
X101674856Y-71718352D01*
X101628944Y-71722243D01*
X101602471Y-71744342D01*
X101590096Y-71800290D01*
X101586478Y-71905729D01*
X101586283Y-71977731D01*
X101586283Y-72237109D01*
X101885640Y-72213805D01*
X101999615Y-72207806D01*
X102173814Y-72202365D01*
X102395891Y-72197688D01*
X102510326Y-72196043D01*
X102510326Y-71609495D01*
X102376672Y-71606670D01*
X102289840Y-71592409D01*
X102224132Y-71558032D01*
X102153851Y-71494858D01*
X102145083Y-71486124D01*
X102048449Y-71354105D01*
X102022749Y-71217697D01*
X102066456Y-71068542D01*
X102068108Y-71065210D01*
X102159213Y-70957970D01*
X102295330Y-70886846D01*
X102458205Y-70852406D01*
X102629582Y-70855218D01*
X102791203Y-70895850D01*
X102924814Y-70974870D01*
X102981080Y-71036790D01*
X103027016Y-71154103D01*
X103031711Y-71292291D01*
X102995808Y-71416704D01*
X102973405Y-71451034D01*
X102886782Y-71533845D01*
X102778943Y-71583370D01*
X102631019Y-71606066D01*
X102510326Y-71609495D01*
X102510326Y-72196043D01*
X102653498Y-72193984D01*
X102934289Y-72191461D01*
X103225918Y-72190326D01*
X103282640Y-72190284D01*
X104380283Y-72190067D01*
X104380283Y-71609495D01*
X103241848Y-71609495D01*
G37*
X103241848Y-71609495D02*
X103340066Y-71506978D01*
X103444486Y-71348730D01*
X103497899Y-71157974D01*
X103501256Y-70952870D01*
X103455504Y-70751578D01*
X103361593Y-70572260D01*
X103286770Y-70486739D01*
X103101838Y-70358504D01*
X102873766Y-70273514D01*
X102619962Y-70235006D01*
X102357833Y-70246216D01*
X102188400Y-70282516D01*
X101971510Y-70378470D01*
X101793434Y-70522203D01*
X101660175Y-70701860D01*
X101577735Y-70905586D01*
X101552116Y-71121524D01*
X101589321Y-71337821D01*
X101617615Y-71409924D01*
X101672467Y-71512187D01*
X101728756Y-71590210D01*
X101743419Y-71604535D01*
X101784829Y-71662363D01*
X101759428Y-71703232D01*
X101674856Y-71718352D01*
X101628944Y-71722243D01*
X101602471Y-71744342D01*
X101590096Y-71800290D01*
X101586478Y-71905729D01*
X101586283Y-71977731D01*
X101586283Y-72237109D01*
X101885640Y-72213805D01*
X101999615Y-72207806D01*
X102173814Y-72202365D01*
X102395891Y-72197688D01*
X102510326Y-72196043D01*
X102510326Y-71609495D01*
X102376672Y-71606670D01*
X102289840Y-71592409D01*
X102224132Y-71558032D01*
X102153851Y-71494858D01*
X102145083Y-71486124D01*
X102048449Y-71354105D01*
X102022749Y-71217697D01*
X102066456Y-71068542D01*
X102068108Y-71065210D01*
X102159213Y-70957970D01*
X102295330Y-70886846D01*
X102458205Y-70852406D01*
X102629582Y-70855218D01*
X102791203Y-70895850D01*
X102924814Y-70974870D01*
X102981080Y-71036790D01*
X103027016Y-71154103D01*
X103031711Y-71292291D01*
X102995808Y-71416704D01*
X102973405Y-71451034D01*
X102886782Y-71533845D01*
X102778943Y-71583370D01*
X102631019Y-71606066D01*
X102510326Y-71609495D01*
X102510326Y-72196043D01*
X102653498Y-72193984D01*
X102934289Y-72191461D01*
X103225918Y-72190326D01*
X103282640Y-72190284D01*
X104380283Y-72190067D01*
X104380283Y-71609495D01*
X103241848Y-71609495D01*
G36*
X103474276Y-68820253D02*
G01*
X103473640Y-68817580D01*
X103398143Y-68628887D01*
X103276379Y-68468836D01*
X103123331Y-68354072D01*
X103019569Y-68313034D01*
X102935633Y-68299814D01*
X102794386Y-68287267D01*
X102611088Y-68276342D01*
X102400999Y-68267991D01*
X102230308Y-68263907D01*
X101586190Y-68253067D01*
X101586237Y-68515447D01*
X101587795Y-68651530D01*
X101596080Y-68732059D01*
X101616596Y-68774039D01*
X101654849Y-68794477D01*
X101678679Y-68801017D01*
X101741868Y-68822429D01*
X101742226Y-68853013D01*
X101711515Y-68890020D01*
X101628761Y-69025849D01*
X101575391Y-69203101D01*
X101555155Y-69395305D01*
X101571806Y-69575988D01*
X101601220Y-69668209D01*
X101709533Y-69828913D01*
X101862219Y-69942702D01*
X102043906Y-70003865D01*
X102157543Y-70005507D01*
X102157543Y-69416147D01*
X102067081Y-69378623D01*
X102006088Y-69300175D01*
X101980817Y-69195622D01*
X101997524Y-69079784D01*
X102062463Y-68967478D01*
X102081088Y-68947443D01*
X102168102Y-68881198D01*
X102272062Y-68854442D01*
X102340020Y-68851781D01*
X102503290Y-68851781D01*
X102481543Y-69010446D01*
X102442064Y-69193632D01*
X102379230Y-69316892D01*
X102287365Y-69390681D01*
X102271219Y-69397928D01*
X102157543Y-69416147D01*
X102157543Y-70005507D01*
X102239225Y-70006688D01*
X102394806Y-69963172D01*
X102556166Y-69856008D01*
X102686812Y-69689175D01*
X102782398Y-69470613D01*
X102838579Y-69208263D01*
X102845763Y-69139100D01*
X102858844Y-69006101D01*
X102874067Y-68930803D01*
X102897341Y-68898433D01*
X102934579Y-68894219D01*
X102943311Y-68895324D01*
X103011063Y-68936493D01*
X103065346Y-69042688D01*
X103068318Y-69051352D01*
X103089881Y-69133095D01*
X103097108Y-69220531D01*
X103088724Y-69329482D01*
X103063454Y-69475768D01*
X103020020Y-69675212D01*
X103016905Y-69688793D01*
X103011027Y-69750681D01*
X103041179Y-69788401D01*
X103123821Y-69820338D01*
X103138745Y-69824864D01*
X103256379Y-69856659D01*
X103326347Y-69856354D01*
X103370097Y-69813993D01*
X103409071Y-69719620D01*
X103417555Y-69695424D01*
X103469694Y-69488489D01*
X103497869Y-69252656D01*
X103500067Y-69019413D01*
X103474276Y-68820253D01*
G37*
X103474276Y-68820253D02*
X103473640Y-68817580D01*
X103398143Y-68628887D01*
X103276379Y-68468836D01*
X103123331Y-68354072D01*
X103019569Y-68313034D01*
X102935633Y-68299814D01*
X102794386Y-68287267D01*
X102611088Y-68276342D01*
X102400999Y-68267991D01*
X102230308Y-68263907D01*
X101586190Y-68253067D01*
X101586237Y-68515447D01*
X101587795Y-68651530D01*
X101596080Y-68732059D01*
X101616596Y-68774039D01*
X101654849Y-68794477D01*
X101678679Y-68801017D01*
X101741868Y-68822429D01*
X101742226Y-68853013D01*
X101711515Y-68890020D01*
X101628761Y-69025849D01*
X101575391Y-69203101D01*
X101555155Y-69395305D01*
X101571806Y-69575988D01*
X101601220Y-69668209D01*
X101709533Y-69828913D01*
X101862219Y-69942702D01*
X102043906Y-70003865D01*
X102157543Y-70005507D01*
X102157543Y-69416147D01*
X102067081Y-69378623D01*
X102006088Y-69300175D01*
X101980817Y-69195622D01*
X101997524Y-69079784D01*
X102062463Y-68967478D01*
X102081088Y-68947443D01*
X102168102Y-68881198D01*
X102272062Y-68854442D01*
X102340020Y-68851781D01*
X102503290Y-68851781D01*
X102481543Y-69010446D01*
X102442064Y-69193632D01*
X102379230Y-69316892D01*
X102287365Y-69390681D01*
X102271219Y-69397928D01*
X102157543Y-69416147D01*
X102157543Y-70005507D01*
X102239225Y-70006688D01*
X102394806Y-69963172D01*
X102556166Y-69856008D01*
X102686812Y-69689175D01*
X102782398Y-69470613D01*
X102838579Y-69208263D01*
X102845763Y-69139100D01*
X102858844Y-69006101D01*
X102874067Y-68930803D01*
X102897341Y-68898433D01*
X102934579Y-68894219D01*
X102943311Y-68895324D01*
X103011063Y-68936493D01*
X103065346Y-69042688D01*
X103068318Y-69051352D01*
X103089881Y-69133095D01*
X103097108Y-69220531D01*
X103088724Y-69329482D01*
X103063454Y-69475768D01*
X103020020Y-69675212D01*
X103016905Y-69688793D01*
X103011027Y-69750681D01*
X103041179Y-69788401D01*
X103123821Y-69820338D01*
X103138745Y-69824864D01*
X103256379Y-69856659D01*
X103326347Y-69856354D01*
X103370097Y-69813993D01*
X103409071Y-69719620D01*
X103417555Y-69695424D01*
X103469694Y-69488489D01*
X103497869Y-69252656D01*
X103500067Y-69019413D01*
X103474276Y-68820253D01*
G36*
X103055854Y-78068078D02*
G01*
X103644628Y-77678144D01*
X104233402Y-77288209D01*
X104234271Y-76914139D01*
X104232737Y-76741281D01*
X104226380Y-76631702D01*
X104214020Y-76576201D01*
X104194473Y-76565578D01*
X104189783Y-76567914D01*
X104147401Y-76598495D01*
X104058122Y-76665953D01*
X103932198Y-76762439D01*
X103779884Y-76880105D01*
X103641903Y-76987341D01*
X103476732Y-77114508D01*
X103330185Y-77224429D01*
X103212218Y-77309869D01*
X103132785Y-77363595D01*
X103103070Y-77378924D01*
X103062864Y-77360951D01*
X102969816Y-77310534D01*
X102833096Y-77232922D01*
X102661878Y-77133364D01*
X102465333Y-77017111D01*
X102342335Y-76943495D01*
X102136532Y-76820184D01*
X101952100Y-76710424D01*
X101797903Y-76619428D01*
X101682803Y-76552410D01*
X101615662Y-76514583D01*
X101602097Y-76508067D01*
X101595278Y-76541714D01*
X101589936Y-76632110D01*
X101586802Y-76763435D01*
X101586283Y-76850213D01*
X101586283Y-77192359D01*
X102152042Y-77511860D01*
X102717802Y-77831362D01*
X102578400Y-77949317D01*
X102438997Y-78067273D01*
X102012640Y-78067813D01*
X101586283Y-78068352D01*
X101586283Y-78648924D01*
X104235140Y-78648924D01*
X104235140Y-78068352D01*
X103055854Y-78068078D01*
G37*
X103055854Y-78068078D02*
X103644628Y-77678144D01*
X104233402Y-77288209D01*
X104234271Y-76914139D01*
X104232737Y-76741281D01*
X104226380Y-76631702D01*
X104214020Y-76576201D01*
X104194473Y-76565578D01*
X104189783Y-76567914D01*
X104147401Y-76598495D01*
X104058122Y-76665953D01*
X103932198Y-76762439D01*
X103779884Y-76880105D01*
X103641903Y-76987341D01*
X103476732Y-77114508D01*
X103330185Y-77224429D01*
X103212218Y-77309869D01*
X103132785Y-77363595D01*
X103103070Y-77378924D01*
X103062864Y-77360951D01*
X102969816Y-77310534D01*
X102833096Y-77232922D01*
X102661878Y-77133364D01*
X102465333Y-77017111D01*
X102342335Y-76943495D01*
X102136532Y-76820184D01*
X101952100Y-76710424D01*
X101797903Y-76619428D01*
X101682803Y-76552410D01*
X101615662Y-76514583D01*
X101602097Y-76508067D01*
X101595278Y-76541714D01*
X101589936Y-76632110D01*
X101586802Y-76763435D01*
X101586283Y-76850213D01*
X101586283Y-77192359D01*
X102152042Y-77511860D01*
X102717802Y-77831362D01*
X102578400Y-77949317D01*
X102438997Y-78067273D01*
X102012640Y-78067813D01*
X101586283Y-78068352D01*
X101586283Y-78648924D01*
X104235140Y-78648924D01*
X104235140Y-78068352D01*
X103055854Y-78068078D01*
G36*
X101586283Y-67218924D02*
G01*
X101586283Y-67799495D01*
X104380283Y-67799495D01*
X104380283Y-67218924D01*
X101586283Y-67218924D01*
G37*
X101586283Y-67218924D02*
X101586283Y-67799495D01*
X104380283Y-67799495D01*
X104380283Y-67218924D01*
X101586283Y-67218924D01*
G36*
X101586283Y-66130352D02*
G01*
X101586283Y-66710924D01*
X104380283Y-66710924D01*
X104380283Y-66130352D01*
X101586283Y-66130352D01*
G37*
X101586283Y-66130352D02*
X101586283Y-66710924D01*
X104380283Y-66710924D01*
X104380283Y-66130352D01*
X101586283Y-66130352D01*
D12*
X92869000Y-91685000D02*
X92869000Y-61205000D01*
X95409000Y-91685000D02*
X92869000Y-91685000D01*
X95409000Y-61205000D02*
X95409000Y-91685000D01*
X92869000Y-61205000D02*
X95409000Y-61205000D01*
X108109000Y-91685000D02*
X108109000Y-61205000D01*
X110649000Y-91685000D02*
X108109000Y-91685000D01*
X110649000Y-61205000D02*
X110649000Y-91685000D01*
X108109000Y-61205000D02*
X110649000Y-61205000D01*
X97315000Y-95225000D02*
X97315000Y-92685000D01*
X107475000Y-95225000D02*
X97315000Y-95225000D01*
X107475000Y-92685000D02*
X107475000Y-95225000D01*
X97315000Y-92685000D02*
X107475000Y-92685000D01*
X93925000Y-110285000D02*
X93925000Y-109785000D01*
X93925000Y-104285000D02*
X105925000Y-104285000D01*
X105925000Y-104285000D02*
X105925000Y-110285000D01*
X105925000Y-110285000D02*
X93925000Y-110285000D01*
X93925000Y-109785000D02*
X92025000Y-109785000D01*
X92025000Y-109735000D02*
X92025000Y-104785000D01*
X93925000Y-104285000D02*
X93925000Y-104785000D01*
X93925000Y-104785000D02*
X92025000Y-104785000D01*
X99948600Y-90923100D02*
X99948600Y-88637100D01*
X99948600Y-88637100D02*
X98170600Y-88637100D01*
X98170600Y-88637100D02*
X98170600Y-90923100D01*
X98170600Y-90923100D02*
X99948600Y-90923100D01*
X100271000Y-90923100D02*
X102049000Y-90923100D01*
X100271000Y-88637100D02*
X100271000Y-90923100D01*
X102049000Y-88637100D02*
X100271000Y-88637100D01*
X102049000Y-90923100D02*
X102049000Y-88637100D01*
X104549000Y-90923100D02*
X104549000Y-88637100D01*
X104549000Y-88637100D02*
X102771000Y-88637100D01*
X102771000Y-88637100D02*
X102771000Y-90923100D01*
X102771000Y-90923100D02*
X104549000Y-90923100D01*
X104871000Y-90923100D02*
X106649000Y-90923100D01*
X104871000Y-88637100D02*
X104871000Y-90923100D01*
X106649000Y-88637100D02*
X104871000Y-88637100D01*
X106649000Y-90923100D02*
X106649000Y-88637100D01*
X99532600Y-99751000D02*
X97246600Y-99751000D01*
X97246600Y-99751000D02*
X97246600Y-101529000D01*
X97246600Y-101529000D02*
X99532600Y-101529000D01*
X99532600Y-101529000D02*
X99532600Y-99751000D01*
D14*
X164360000Y-63730100D02*
X162360000Y-63730100D01*
X164060000Y-62230100D02*
X162360000Y-62230100D01*
X162360000Y-62130100D02*
X164160000Y-62130100D01*
X164160000Y-63530100D02*
X162360000Y-63530100D01*
X162360000Y-62130100D02*
X164060000Y-62130100D01*
X164360000Y-62030100D02*
X164360000Y-63730100D01*
X164960000Y-63030100D02*
X164960000Y-63130100D01*
X164060000Y-62030100D02*
X164360000Y-62030100D01*
X164060000Y-62130100D02*
X164060000Y-62030100D01*
X165183607Y-62930100D02*
G75*
G03*
X165183607Y-62930100I-223607J0D01*
G01*
X162360000Y-63430100D02*
X164060000Y-63430100D01*
X164060000Y-63430100D02*
X164060000Y-62230100D01*
X162360000Y-62030100D02*
X162360000Y-62130100D01*
X162360000Y-63630100D02*
X164260000Y-63630100D01*
X164260000Y-62030100D02*
X162360000Y-62030100D01*
X162360000Y-62230100D02*
X162360000Y-62130100D01*
X164160000Y-62130100D02*
X164160000Y-63530100D01*
X164260000Y-63630100D02*
X164260000Y-62030100D01*
X162360000Y-63530100D02*
X162360000Y-63430100D01*
X165060000Y-62930100D02*
G75*
G03*
X165060000Y-62930100I-100000J0D01*
G01*
X162360000Y-63730100D02*
X162360000Y-63630100D01*
X164960000Y-62930100D02*
X164960000Y-63030100D01*
X165101421Y-62930100D02*
G75*
G03*
X165101421Y-62930100I-141421J0D01*
G01*
X165242843Y-62930100D02*
G75*
G03*
X165242843Y-62930100I-282843J0D01*
G01*
X162360000Y-63530100D02*
X162360000Y-63630100D01*
X164260000Y-63980100D02*
X156460000Y-63980100D01*
X156460000Y-60280100D02*
X164260000Y-60280100D01*
X164360000Y-82780100D02*
X162360000Y-82780100D01*
X164060000Y-81280100D02*
X162360000Y-81280100D01*
X162360000Y-81180100D02*
X164160000Y-81180100D01*
X164160000Y-82580100D02*
X162360000Y-82580100D01*
X162360000Y-81180100D02*
X164060000Y-81180100D01*
X164360000Y-81080100D02*
X164360000Y-82780100D01*
X164960000Y-82080100D02*
X164960000Y-82180100D01*
X164060000Y-81080100D02*
X164360000Y-81080100D01*
X164060000Y-81180100D02*
X164060000Y-81080100D01*
X165183607Y-81980100D02*
G75*
G03*
X165183607Y-81980100I-223607J0D01*
G01*
X162360000Y-82480100D02*
X164060000Y-82480100D01*
X164060000Y-82480100D02*
X164060000Y-81280100D01*
X162360000Y-81080100D02*
X162360000Y-81180100D01*
X162360000Y-82680100D02*
X164260000Y-82680100D01*
X164260000Y-81080100D02*
X162360000Y-81080100D01*
X162360000Y-81280100D02*
X162360000Y-81180100D01*
X164160000Y-81180100D02*
X164160000Y-82580100D01*
X164260000Y-82680100D02*
X164260000Y-81080100D01*
X162360000Y-82580100D02*
X162360000Y-82480100D01*
X165060000Y-81980100D02*
G75*
G03*
X165060000Y-81980100I-100000J0D01*
G01*
X162360000Y-82780100D02*
X162360000Y-82680100D01*
X164960000Y-81980100D02*
X164960000Y-82080100D01*
X165101421Y-81980100D02*
G75*
G03*
X165101421Y-81980100I-141421J0D01*
G01*
X165242843Y-81980100D02*
G75*
G03*
X165242843Y-81980100I-282843J0D01*
G01*
X162360000Y-82580100D02*
X162360000Y-82680100D01*
X164260000Y-83030100D02*
X156460000Y-83030100D01*
X156460000Y-79330100D02*
X164260000Y-79330100D01*
X156460000Y-98380000D02*
X164260000Y-98380000D01*
X164260000Y-102080000D02*
X156460000Y-102080000D01*
X162360000Y-101630000D02*
X162360000Y-101730000D01*
X165242843Y-101030000D02*
G75*
G03*
X165242843Y-101030000I-282843J0D01*
G01*
X165101421Y-101030000D02*
G75*
G03*
X165101421Y-101030000I-141421J0D01*
G01*
X164960000Y-101030000D02*
X164960000Y-101130000D01*
X162360000Y-101830000D02*
X162360000Y-101730000D01*
X165060000Y-101030000D02*
G75*
G03*
X165060000Y-101030000I-100000J0D01*
G01*
X162360000Y-101630000D02*
X162360000Y-101530000D01*
X164260000Y-101730000D02*
X164260000Y-100130000D01*
X164160000Y-100230000D02*
X164160000Y-101630000D01*
X162360000Y-100330000D02*
X162360000Y-100230000D01*
X164260000Y-100130000D02*
X162360000Y-100130000D01*
X162360000Y-101730000D02*
X164260000Y-101730000D01*
X162360000Y-100130000D02*
X162360000Y-100230000D01*
X164060000Y-101530000D02*
X164060000Y-100330000D01*
X162360000Y-101530000D02*
X164060000Y-101530000D01*
X165183607Y-101030000D02*
G75*
G03*
X165183607Y-101030000I-223607J0D01*
G01*
X164060000Y-100230000D02*
X164060000Y-100130000D01*
X164060000Y-100130000D02*
X164360000Y-100130000D01*
X164960000Y-101130000D02*
X164960000Y-101230000D01*
X164360000Y-100130000D02*
X164360000Y-101830000D01*
X162360000Y-100230000D02*
X164060000Y-100230000D01*
X164160000Y-101630000D02*
X162360000Y-101630000D01*
X162360000Y-100230000D02*
X164160000Y-100230000D01*
X164060000Y-100330000D02*
X162360000Y-100330000D01*
X164360000Y-101830000D02*
X162360000Y-101830000D01*
X156460000Y-117430000D02*
X164260000Y-117430000D01*
X164260000Y-121130000D02*
X156460000Y-121130000D01*
X162360000Y-120680000D02*
X162360000Y-120780000D01*
X165242843Y-120080000D02*
G75*
G03*
X165242843Y-120080000I-282843J0D01*
G01*
X165101421Y-120080000D02*
G75*
G03*
X165101421Y-120080000I-141421J0D01*
G01*
X164960000Y-120080000D02*
X164960000Y-120180000D01*
X162360000Y-120880000D02*
X162360000Y-120780000D01*
X165060000Y-120080000D02*
G75*
G03*
X165060000Y-120080000I-100000J0D01*
G01*
X162360000Y-120680000D02*
X162360000Y-120580000D01*
X164260000Y-120780000D02*
X164260000Y-119180000D01*
X164160000Y-119280000D02*
X164160000Y-120680000D01*
X162360000Y-119380000D02*
X162360000Y-119280000D01*
X164260000Y-119180000D02*
X162360000Y-119180000D01*
X162360000Y-120780000D02*
X164260000Y-120780000D01*
X162360000Y-119180000D02*
X162360000Y-119280000D01*
X164060000Y-120580000D02*
X164060000Y-119380000D01*
X162360000Y-120580000D02*
X164060000Y-120580000D01*
X165183607Y-120080000D02*
G75*
G03*
X165183607Y-120080000I-223607J0D01*
G01*
X164060000Y-119280000D02*
X164060000Y-119180000D01*
X164060000Y-119180000D02*
X164360000Y-119180000D01*
X164960000Y-120180000D02*
X164960000Y-120280000D01*
X164360000Y-119180000D02*
X164360000Y-120880000D01*
X162360000Y-119280000D02*
X164060000Y-119280000D01*
X164160000Y-120680000D02*
X162360000Y-120680000D01*
X162360000Y-119280000D02*
X164160000Y-119280000D01*
X164060000Y-119380000D02*
X162360000Y-119380000D01*
X164360000Y-120880000D02*
X162360000Y-120880000D01*
X183410000Y-68430100D02*
X181410000Y-68430100D01*
X183110000Y-66930100D02*
X181410000Y-66930100D01*
X181410000Y-66830100D02*
X183210000Y-66830100D01*
X183210000Y-68230100D02*
X181410000Y-68230100D01*
X181410000Y-66830100D02*
X183110000Y-66830100D01*
X183410000Y-66730100D02*
X183410000Y-68430100D01*
X184010000Y-67730100D02*
X184010000Y-67830100D01*
X183110000Y-66730100D02*
X183410000Y-66730100D01*
X183110000Y-66830100D02*
X183110000Y-66730100D01*
X184233607Y-67630100D02*
G75*
G03*
X184233607Y-67630100I-223607J0D01*
G01*
X181410000Y-68130100D02*
X183110000Y-68130100D01*
X183110000Y-68130100D02*
X183110000Y-66930100D01*
X181410000Y-66730100D02*
X181410000Y-66830100D01*
X181410000Y-68330100D02*
X183310000Y-68330100D01*
X183310000Y-66730100D02*
X181410000Y-66730100D01*
X181410000Y-66930100D02*
X181410000Y-66830100D01*
X183210000Y-66830100D02*
X183210000Y-68230100D01*
X183310000Y-68330100D02*
X183310000Y-66730100D01*
X181410000Y-68230100D02*
X181410000Y-68130100D01*
X184110000Y-67630100D02*
G75*
G03*
X184110000Y-67630100I-100000J0D01*
G01*
X181410000Y-68430100D02*
X181410000Y-68330100D01*
X184010000Y-67630100D02*
X184010000Y-67730100D01*
X184151421Y-67630100D02*
G75*
G03*
X184151421Y-67630100I-141421J0D01*
G01*
X184292843Y-67630100D02*
G75*
G03*
X184292843Y-67630100I-282843J0D01*
G01*
X181410000Y-68230100D02*
X181410000Y-68330100D01*
X183310000Y-68680100D02*
X175510000Y-68680100D01*
X175510000Y-64980100D02*
X183310000Y-64980100D01*
X175510000Y-84030100D02*
X183310000Y-84030100D01*
X183310000Y-87730100D02*
X175510000Y-87730100D01*
X181410000Y-87280100D02*
X181410000Y-87380100D01*
X184292843Y-86680100D02*
G75*
G03*
X184292843Y-86680100I-282843J0D01*
G01*
X184151421Y-86680100D02*
G75*
G03*
X184151421Y-86680100I-141421J0D01*
G01*
X184010000Y-86680100D02*
X184010000Y-86780100D01*
X181410000Y-87480100D02*
X181410000Y-87380100D01*
X184110000Y-86680100D02*
G75*
G03*
X184110000Y-86680100I-100000J0D01*
G01*
X181410000Y-87280100D02*
X181410000Y-87180100D01*
X183310000Y-87380100D02*
X183310000Y-85780100D01*
X183210000Y-85880100D02*
X183210000Y-87280100D01*
X181410000Y-85980100D02*
X181410000Y-85880100D01*
X183310000Y-85780100D02*
X181410000Y-85780100D01*
X181410000Y-87380100D02*
X183310000Y-87380100D01*
X181410000Y-85780100D02*
X181410000Y-85880100D01*
X183110000Y-87180100D02*
X183110000Y-85980100D01*
X181410000Y-87180100D02*
X183110000Y-87180100D01*
X184233607Y-86680100D02*
G75*
G03*
X184233607Y-86680100I-223607J0D01*
G01*
X183110000Y-85880100D02*
X183110000Y-85780100D01*
X183110000Y-85780100D02*
X183410000Y-85780100D01*
X184010000Y-86780100D02*
X184010000Y-86880100D01*
X183410000Y-85780100D02*
X183410000Y-87480100D01*
X181410000Y-85880100D02*
X183110000Y-85880100D01*
X183210000Y-87280100D02*
X181410000Y-87280100D01*
X181410000Y-85880100D02*
X183210000Y-85880100D01*
X183110000Y-85980100D02*
X181410000Y-85980100D01*
X183410000Y-87480100D02*
X181410000Y-87480100D01*
X183410000Y-106530000D02*
X181410000Y-106530000D01*
X183110000Y-105030000D02*
X181410000Y-105030000D01*
X181410000Y-104930000D02*
X183210000Y-104930000D01*
X183210000Y-106330000D02*
X181410000Y-106330000D01*
X181410000Y-104930000D02*
X183110000Y-104930000D01*
X183410000Y-104830000D02*
X183410000Y-106530000D01*
X184010000Y-105830000D02*
X184010000Y-105930000D01*
X183110000Y-104830000D02*
X183410000Y-104830000D01*
X183110000Y-104930000D02*
X183110000Y-104830000D01*
X184233607Y-105730000D02*
G75*
G03*
X184233607Y-105730000I-223607J0D01*
G01*
X181410000Y-106230000D02*
X183110000Y-106230000D01*
X183110000Y-106230000D02*
X183110000Y-105030000D01*
X181410000Y-104830000D02*
X181410000Y-104930000D01*
X181410000Y-106430000D02*
X183310000Y-106430000D01*
X183310000Y-104830000D02*
X181410000Y-104830000D01*
X181410000Y-105030000D02*
X181410000Y-104930000D01*
X183210000Y-104930000D02*
X183210000Y-106330000D01*
X183310000Y-106430000D02*
X183310000Y-104830000D01*
X181410000Y-106330000D02*
X181410000Y-106230000D01*
X184110000Y-105730000D02*
G75*
G03*
X184110000Y-105730000I-100000J0D01*
G01*
X181410000Y-106530000D02*
X181410000Y-106430000D01*
X184010000Y-105730000D02*
X184010000Y-105830000D01*
X184151421Y-105730000D02*
G75*
G03*
X184151421Y-105730000I-141421J0D01*
G01*
X184292843Y-105730000D02*
G75*
G03*
X184292843Y-105730000I-282843J0D01*
G01*
X181410000Y-106330000D02*
X181410000Y-106430000D01*
X183310000Y-106780000D02*
X175510000Y-106780000D01*
X175510000Y-103080000D02*
X183310000Y-103080000D01*
X175510000Y-122130000D02*
X183310000Y-122130000D01*
X183310000Y-125830000D02*
X175510000Y-125830000D01*
X181410000Y-125380000D02*
X181410000Y-125480000D01*
X184292843Y-124780000D02*
G75*
G03*
X184292843Y-124780000I-282843J0D01*
G01*
X184151421Y-124780000D02*
G75*
G03*
X184151421Y-124780000I-141421J0D01*
G01*
X184010000Y-124780000D02*
X184010000Y-124880000D01*
X181410000Y-125580000D02*
X181410000Y-125480000D01*
X184110000Y-124780000D02*
G75*
G03*
X184110000Y-124780000I-100000J0D01*
G01*
X181410000Y-125380000D02*
X181410000Y-125280000D01*
X183310000Y-125480000D02*
X183310000Y-123880000D01*
X183210000Y-123980000D02*
X183210000Y-125380000D01*
X181410000Y-124080000D02*
X181410000Y-123980000D01*
X183310000Y-123880000D02*
X181410000Y-123880000D01*
X181410000Y-125480000D02*
X183310000Y-125480000D01*
X181410000Y-123880000D02*
X181410000Y-123980000D01*
X183110000Y-125280000D02*
X183110000Y-124080000D01*
X181410000Y-125280000D02*
X183110000Y-125280000D01*
X184233607Y-124780000D02*
G75*
G03*
X184233607Y-124780000I-223607J0D01*
G01*
X183110000Y-123980000D02*
X183110000Y-123880000D01*
X183110000Y-123880000D02*
X183410000Y-123880000D01*
X184010000Y-124880000D02*
X184010000Y-124980000D01*
X183410000Y-123880000D02*
X183410000Y-125580000D01*
X181410000Y-123980000D02*
X183110000Y-123980000D01*
X183210000Y-125380000D02*
X181410000Y-125380000D01*
X181410000Y-123980000D02*
X183210000Y-123980000D01*
X183110000Y-124080000D02*
X181410000Y-124080000D01*
X183410000Y-125580000D02*
X181410000Y-125580000D01*
X202460000Y-75430100D02*
X200460000Y-75430100D01*
X202160000Y-73930100D02*
X200460000Y-73930100D01*
X200460000Y-73830100D02*
X202260000Y-73830100D01*
X202260000Y-75230100D02*
X200460000Y-75230100D01*
X200460000Y-73830100D02*
X202160000Y-73830100D01*
X202460000Y-73730100D02*
X202460000Y-75430100D01*
X203060000Y-74730100D02*
X203060000Y-74830100D01*
X202160000Y-73730100D02*
X202460000Y-73730100D01*
X202160000Y-73830100D02*
X202160000Y-73730100D01*
X203283607Y-74630100D02*
G75*
G03*
X203283607Y-74630100I-223607J0D01*
G01*
X200460000Y-75130100D02*
X202160000Y-75130100D01*
X202160000Y-75130100D02*
X202160000Y-73930100D01*
X200460000Y-73730100D02*
X200460000Y-73830100D01*
X200460000Y-75330100D02*
X202360000Y-75330100D01*
X202360000Y-73730100D02*
X200460000Y-73730100D01*
X200460000Y-73930100D02*
X200460000Y-73830100D01*
X202260000Y-73830100D02*
X202260000Y-75230100D01*
X202360000Y-75330100D02*
X202360000Y-73730100D01*
X200460000Y-75230100D02*
X200460000Y-75130100D01*
X203160000Y-74630100D02*
G75*
G03*
X203160000Y-74630100I-100000J0D01*
G01*
X200460000Y-75430100D02*
X200460000Y-75330100D01*
X203060000Y-74630100D02*
X203060000Y-74730100D01*
X203201421Y-74630100D02*
G75*
G03*
X203201421Y-74630100I-141421J0D01*
G01*
X203342843Y-74630100D02*
G75*
G03*
X203342843Y-74630100I-282843J0D01*
G01*
X200460000Y-75230100D02*
X200460000Y-75330100D01*
X202360000Y-75680100D02*
X194560000Y-75680100D01*
X194560000Y-71980100D02*
X202360000Y-71980100D01*
X194560000Y-91030100D02*
X202360000Y-91030100D01*
X202360000Y-94730100D02*
X194560000Y-94730100D01*
X200460000Y-94280100D02*
X200460000Y-94380100D01*
X203342843Y-93680100D02*
G75*
G03*
X203342843Y-93680100I-282843J0D01*
G01*
X203201421Y-93680100D02*
G75*
G03*
X203201421Y-93680100I-141421J0D01*
G01*
X203060000Y-93680100D02*
X203060000Y-93780100D01*
X200460000Y-94480100D02*
X200460000Y-94380100D01*
X203160000Y-93680100D02*
G75*
G03*
X203160000Y-93680100I-100000J0D01*
G01*
X200460000Y-94280100D02*
X200460000Y-94180100D01*
X202360000Y-94380100D02*
X202360000Y-92780100D01*
X202260000Y-92880100D02*
X202260000Y-94280100D01*
X200460000Y-92980100D02*
X200460000Y-92880100D01*
X202360000Y-92780100D02*
X200460000Y-92780100D01*
X200460000Y-94380100D02*
X202360000Y-94380100D01*
X200460000Y-92780100D02*
X200460000Y-92880100D01*
X202160000Y-94180100D02*
X202160000Y-92980100D01*
X200460000Y-94180100D02*
X202160000Y-94180100D01*
X203283607Y-93680100D02*
G75*
G03*
X203283607Y-93680100I-223607J0D01*
G01*
X202160000Y-92880100D02*
X202160000Y-92780100D01*
X202160000Y-92780100D02*
X202460000Y-92780100D01*
X203060000Y-93780100D02*
X203060000Y-93880100D01*
X202460000Y-92780100D02*
X202460000Y-94480100D01*
X200460000Y-92880100D02*
X202160000Y-92880100D01*
X202260000Y-94280100D02*
X200460000Y-94280100D01*
X200460000Y-92880100D02*
X202260000Y-92880100D01*
X202160000Y-92980100D02*
X200460000Y-92980100D01*
X202460000Y-94480100D02*
X200460000Y-94480100D01*
X194560000Y-110080000D02*
X202360000Y-110080000D01*
X202360000Y-113780000D02*
X194560000Y-113780000D01*
X200460000Y-113330000D02*
X200460000Y-113430000D01*
X203342843Y-112730000D02*
G75*
G03*
X203342843Y-112730000I-282843J0D01*
G01*
X203201421Y-112730000D02*
G75*
G03*
X203201421Y-112730000I-141421J0D01*
G01*
X203060000Y-112730000D02*
X203060000Y-112830000D01*
X200460000Y-113530000D02*
X200460000Y-113430000D01*
X203160000Y-112730000D02*
G75*
G03*
X203160000Y-112730000I-100000J0D01*
G01*
X200460000Y-113330000D02*
X200460000Y-113230000D01*
X202360000Y-113430000D02*
X202360000Y-111830000D01*
X202260000Y-111930000D02*
X202260000Y-113330000D01*
X200460000Y-112030000D02*
X200460000Y-111930000D01*
X202360000Y-111830000D02*
X200460000Y-111830000D01*
X200460000Y-113430000D02*
X202360000Y-113430000D01*
X200460000Y-111830000D02*
X200460000Y-111930000D01*
X202160000Y-113230000D02*
X202160000Y-112030000D01*
X200460000Y-113230000D02*
X202160000Y-113230000D01*
X203283607Y-112730000D02*
G75*
G03*
X203283607Y-112730000I-223607J0D01*
G01*
X202160000Y-111930000D02*
X202160000Y-111830000D01*
X202160000Y-111830000D02*
X202460000Y-111830000D01*
X203060000Y-112830000D02*
X203060000Y-112930000D01*
X202460000Y-111830000D02*
X202460000Y-113530000D01*
X200460000Y-111930000D02*
X202160000Y-111930000D01*
X202260000Y-113330000D02*
X200460000Y-113330000D01*
X200460000Y-111930000D02*
X202260000Y-111930000D01*
X202160000Y-112030000D02*
X200460000Y-112030000D01*
X202460000Y-113530000D02*
X200460000Y-113530000D01*
X202460000Y-132580000D02*
X200460000Y-132580000D01*
X202160000Y-131080000D02*
X200460000Y-131080000D01*
X200460000Y-130980000D02*
X202260000Y-130980000D01*
X202260000Y-132380000D02*
X200460000Y-132380000D01*
X200460000Y-130980000D02*
X202160000Y-130980000D01*
X202460000Y-130880000D02*
X202460000Y-132580000D01*
X203060000Y-131880000D02*
X203060000Y-131980000D01*
X202160000Y-130880000D02*
X202460000Y-130880000D01*
X202160000Y-130980000D02*
X202160000Y-130880000D01*
X203283607Y-131780000D02*
G75*
G03*
X203283607Y-131780000I-223607J0D01*
G01*
X200460000Y-132280000D02*
X202160000Y-132280000D01*
X202160000Y-132280000D02*
X202160000Y-131080000D01*
X200460000Y-130880000D02*
X200460000Y-130980000D01*
X200460000Y-132480000D02*
X202360000Y-132480000D01*
X202360000Y-130880000D02*
X200460000Y-130880000D01*
X200460000Y-131080000D02*
X200460000Y-130980000D01*
X202260000Y-130980000D02*
X202260000Y-132380000D01*
X202360000Y-132480000D02*
X202360000Y-130880000D01*
X200460000Y-132380000D02*
X200460000Y-132280000D01*
X203160000Y-131780000D02*
G75*
G03*
X203160000Y-131780000I-100000J0D01*
G01*
X200460000Y-132580000D02*
X200460000Y-132480000D01*
X203060000Y-131780000D02*
X203060000Y-131880000D01*
X203201421Y-131780000D02*
G75*
G03*
X203201421Y-131780000I-141421J0D01*
G01*
X203342843Y-131780000D02*
G75*
G03*
X203342843Y-131780000I-282843J0D01*
G01*
X200460000Y-132380000D02*
X200460000Y-132480000D01*
X202360000Y-132830000D02*
X194560000Y-132830000D01*
X194560000Y-129130000D02*
X202360000Y-129130000D01*
D12*
X102240000Y-98220100D02*
X102240000Y-96220100D01*
X104240000Y-98220100D02*
X102240000Y-98220100D01*
X104240000Y-96220100D02*
X104240000Y-98220100D01*
X102240000Y-96220100D02*
X104240000Y-96220100D01*
X100190000Y-96220100D02*
X102190000Y-96220100D01*
X102190000Y-96220100D02*
X102190000Y-98220100D01*
X102190000Y-98220100D02*
X100190000Y-98220100D01*
X100190000Y-98220100D02*
X100190000Y-96220100D01*
X112950000Y-97170100D02*
X110950000Y-97170100D01*
X112950000Y-94170100D02*
X112950000Y-97170100D01*
X110950000Y-94170100D02*
X112950000Y-94170100D01*
X110950000Y-97170100D02*
X110950000Y-94170100D01*
X108510000Y-97210100D02*
X108510000Y-94210100D01*
X108510000Y-94210100D02*
X110510000Y-94210100D01*
X110510000Y-94210100D02*
X110510000Y-97210100D01*
X110510000Y-97210100D02*
X108510000Y-97210100D01*
D14*
X99442100Y-97252842D02*
X99442100Y-97727358D01*
X98397100Y-97252842D02*
X98397100Y-97727358D01*
D15*
X202860000Y-65030100D02*
X202860000Y-65730100D01*
X202860000Y-62530100D02*
X201460000Y-62530100D01*
D16*
X192760000Y-67630100D02*
X195460000Y-67630100D01*
D12*
X203060000Y-62680100D02*
X203060000Y-62330100D01*
X203060000Y-62330100D02*
X194659999Y-62330100D01*
X198060000Y-65930100D02*
X203060000Y-65930100D01*
X192560000Y-67830100D02*
X195840000Y-67830100D01*
X192560000Y-64230100D02*
X192560000Y-65230100D01*
X192560000Y-67830100D02*
X192560000Y-67470100D01*
X192760000Y-67470100D02*
X192560000Y-67470100D01*
X192790000Y-65230100D02*
X192790000Y-67470100D01*
X192560000Y-65230100D02*
X192760000Y-65230100D01*
X202860000Y-62680100D02*
X203060000Y-62680100D01*
X202840000Y-64930100D02*
X202840000Y-62680100D01*
X203060000Y-64930100D02*
X202860000Y-64930100D01*
X203060000Y-65930100D02*
X203060000Y-64930100D01*
D17*
X201060000Y-64130100D02*
X194360000Y-64130100D01*
D18*
X202360000Y-62930100D02*
X202360000Y-65430100D01*
D16*
X202760000Y-65630100D02*
X201360000Y-65630100D01*
D19*
X194290000Y-63830100D02*
X194290000Y-66070100D01*
D20*
X193160000Y-67330100D02*
X193160000Y-65530101D01*
D10*
X192660000Y-65130099D02*
X192660000Y-64230100D01*
D18*
X195443682Y-67408629D02*
G75*
G02*
X197660000Y-65530100I2151318J-291471D01*
G01*
D12*
X192560000Y-64230101D02*
G75*
G02*
X194659999Y-62330100I2000000J-99999D01*
G01*
X195843682Y-67808629D02*
G75*
G02*
X198060000Y-65930100I2151318J-291471D01*
G01*
D15*
X183810000Y-58030100D02*
X183810000Y-58730100D01*
X183810000Y-55530100D02*
X182410000Y-55530100D01*
D16*
X173710000Y-60630100D02*
X176410000Y-60630100D01*
D12*
X184010000Y-55680100D02*
X184010000Y-55330100D01*
X184010000Y-55330100D02*
X175609999Y-55330100D01*
X179010000Y-58930100D02*
X184010000Y-58930100D01*
X173510000Y-60830100D02*
X176790000Y-60830100D01*
X173510000Y-57230100D02*
X173510000Y-58230100D01*
X173510000Y-60830100D02*
X173510000Y-60470100D01*
X173710000Y-60470100D02*
X173510000Y-60470100D01*
X173740000Y-58230100D02*
X173740000Y-60470100D01*
X173510000Y-58230100D02*
X173710000Y-58230100D01*
X183810000Y-55680100D02*
X184010000Y-55680100D01*
X183790000Y-57930100D02*
X183790000Y-55680100D01*
X184010000Y-57930100D02*
X183810000Y-57930100D01*
X184010000Y-58930100D02*
X184010000Y-57930100D01*
D17*
X182010000Y-57130100D02*
X175310000Y-57130100D01*
D18*
X183310000Y-55930100D02*
X183310000Y-58430100D01*
D16*
X183710000Y-58630100D02*
X182310000Y-58630100D01*
D19*
X175240000Y-56830100D02*
X175240000Y-59070100D01*
D20*
X174110000Y-60330100D02*
X174110000Y-58530101D01*
D10*
X173610000Y-58130099D02*
X173610000Y-57230100D01*
D18*
X176393682Y-60408629D02*
G75*
G02*
X178610000Y-58530100I2151318J-291471D01*
G01*
D12*
X173510000Y-57230101D02*
G75*
G02*
X175609999Y-55330100I2000000J-99999D01*
G01*
X176793682Y-60808629D02*
G75*
G02*
X179010000Y-58930100I2151318J-291471D01*
G01*
D15*
X164760000Y-53330100D02*
X164760000Y-54030100D01*
X164760000Y-50830100D02*
X163360000Y-50830100D01*
D16*
X154660000Y-55930100D02*
X157360000Y-55930100D01*
D12*
X164960000Y-50980100D02*
X164960000Y-50630100D01*
X164960000Y-50630100D02*
X156559999Y-50630100D01*
X159960000Y-54230100D02*
X164960000Y-54230100D01*
X154460000Y-56130100D02*
X157740000Y-56130100D01*
X154460000Y-52530100D02*
X154460000Y-53530100D01*
X154460000Y-56130100D02*
X154460000Y-55770100D01*
X154660000Y-55770100D02*
X154460000Y-55770100D01*
X154690000Y-53530100D02*
X154690000Y-55770100D01*
X154460000Y-53530100D02*
X154660000Y-53530100D01*
X164760000Y-50980100D02*
X164960000Y-50980100D01*
X164740000Y-53230100D02*
X164740000Y-50980100D01*
X164960000Y-53230100D02*
X164760000Y-53230100D01*
X164960000Y-54230100D02*
X164960000Y-53230100D01*
D17*
X162960000Y-52430100D02*
X156260000Y-52430100D01*
D18*
X164260000Y-51230100D02*
X164260000Y-53730100D01*
D16*
X164660000Y-53930100D02*
X163260000Y-53930100D01*
D19*
X156190000Y-52130100D02*
X156190000Y-54370100D01*
D20*
X155060000Y-55630100D02*
X155060000Y-53830101D01*
D10*
X154560000Y-53430099D02*
X154560000Y-52530100D01*
D18*
X157343682Y-55708629D02*
G75*
G02*
X159560000Y-53830100I2151318J-291471D01*
G01*
D12*
X154460000Y-52530101D02*
G75*
G02*
X156559999Y-50630100I2000000J-99999D01*
G01*
X157743682Y-56108629D02*
G75*
G02*
X159960000Y-54230100I2151318J-291471D01*
G01*
D10*
X135510000Y-55930099D02*
X135510000Y-55030100D01*
D20*
X136010000Y-58130100D02*
X136010000Y-56330101D01*
D19*
X137140000Y-54630100D02*
X137140000Y-56870100D01*
D16*
X145610000Y-56430100D02*
X144210000Y-56430100D01*
D18*
X145210000Y-53730100D02*
X145210000Y-56230100D01*
D17*
X143910000Y-54930100D02*
X137210000Y-54930100D01*
D12*
X145910000Y-56730100D02*
X145910000Y-55730100D01*
X145910000Y-55730100D02*
X145710000Y-55730100D01*
X145690000Y-55730100D02*
X145690000Y-53480100D01*
X145710000Y-53480100D02*
X145910000Y-53480100D01*
X135410000Y-56030100D02*
X135610000Y-56030100D01*
X135640000Y-56030100D02*
X135640000Y-58270100D01*
X135610000Y-58270100D02*
X135410000Y-58270100D01*
X135410000Y-58630100D02*
X135410000Y-58270100D01*
X135410000Y-55030100D02*
X135410000Y-56030100D01*
X135410000Y-58630100D02*
X138690000Y-58630100D01*
X140910000Y-56730100D02*
X145910000Y-56730100D01*
X145910000Y-53130100D02*
X137509999Y-53130100D01*
X145910000Y-53480100D02*
X145910000Y-53130100D01*
D16*
X135610000Y-58430100D02*
X138310000Y-58430100D01*
D15*
X145710000Y-53330100D02*
X144310000Y-53330100D01*
X145710000Y-55830100D02*
X145710000Y-56530100D01*
D12*
X138693682Y-58608629D02*
G75*
G02*
X140910000Y-56730100I2151318J-291471D01*
G01*
X135410000Y-55030101D02*
G75*
G02*
X137509999Y-53130100I2000000J-99999D01*
G01*
D18*
X138293682Y-58208629D02*
G75*
G02*
X140510000Y-56330100I2151318J-291471D01*
G01*
D15*
X126660000Y-58330100D02*
X126660000Y-59030100D01*
X126660000Y-55830100D02*
X125260000Y-55830100D01*
D16*
X116560000Y-60930100D02*
X119260000Y-60930100D01*
D12*
X126860000Y-55980100D02*
X126860000Y-55630100D01*
X126860000Y-55630100D02*
X118459999Y-55630100D01*
X121860000Y-59230100D02*
X126860000Y-59230100D01*
X116360000Y-61130100D02*
X119640000Y-61130100D01*
X116360000Y-57530100D02*
X116360000Y-58530100D01*
X116360000Y-61130100D02*
X116360000Y-60770100D01*
X116560000Y-60770100D02*
X116360000Y-60770100D01*
X116590000Y-58530100D02*
X116590000Y-60770100D01*
X116360000Y-58530100D02*
X116560000Y-58530100D01*
X126660000Y-55980100D02*
X126860000Y-55980100D01*
X126640000Y-58230100D02*
X126640000Y-55980100D01*
X126860000Y-58230100D02*
X126660000Y-58230100D01*
X126860000Y-59230100D02*
X126860000Y-58230100D01*
D17*
X124860000Y-57430100D02*
X118160000Y-57430100D01*
D18*
X126160000Y-56230100D02*
X126160000Y-58730100D01*
D16*
X126560000Y-58930100D02*
X125160000Y-58930100D01*
D19*
X118090000Y-57130100D02*
X118090000Y-59370100D01*
D20*
X116960000Y-60630100D02*
X116960000Y-58830101D01*
D10*
X116460000Y-58430099D02*
X116460000Y-57530100D01*
D18*
X119243682Y-60708629D02*
G75*
G02*
X121460000Y-58830100I2151318J-291471D01*
G01*
D12*
X116360000Y-57530101D02*
G75*
G02*
X118459999Y-55630100I2000000J-99999D01*
G01*
X119643682Y-61108629D02*
G75*
G02*
X121860000Y-59230100I2151318J-291471D01*
G01*
D10*
X192660000Y-84180099D02*
X192660000Y-83280100D01*
D20*
X193160000Y-86380100D02*
X193160000Y-84580101D01*
D19*
X194290000Y-82880100D02*
X194290000Y-85120100D01*
D16*
X202760000Y-84680100D02*
X201360000Y-84680100D01*
D18*
X202360000Y-81980100D02*
X202360000Y-84480100D01*
D17*
X201060000Y-83180100D02*
X194360000Y-83180100D01*
D12*
X203060000Y-84980100D02*
X203060000Y-83980100D01*
X203060000Y-83980100D02*
X202860000Y-83980100D01*
X202840000Y-83980100D02*
X202840000Y-81730100D01*
X202860000Y-81730100D02*
X203060000Y-81730100D01*
X192560000Y-84280100D02*
X192760000Y-84280100D01*
X192790000Y-84280100D02*
X192790000Y-86520100D01*
X192760000Y-86520100D02*
X192560000Y-86520100D01*
X192560000Y-86880100D02*
X192560000Y-86520100D01*
X192560000Y-83280100D02*
X192560000Y-84280100D01*
X192560000Y-86880100D02*
X195840000Y-86880100D01*
X198060000Y-84980100D02*
X203060000Y-84980100D01*
X203060000Y-81380100D02*
X194659999Y-81380100D01*
X203060000Y-81730100D02*
X203060000Y-81380100D01*
D16*
X192760000Y-86680100D02*
X195460000Y-86680100D01*
D15*
X202860000Y-81580100D02*
X201460000Y-81580100D01*
X202860000Y-84080100D02*
X202860000Y-84780100D01*
D12*
X195843682Y-86858629D02*
G75*
G02*
X198060000Y-84980100I2151318J-291471D01*
G01*
X192560000Y-83280101D02*
G75*
G02*
X194659999Y-81380100I2000000J-99999D01*
G01*
D18*
X195443682Y-86458629D02*
G75*
G02*
X197660000Y-84580100I2151318J-291471D01*
G01*
D10*
X173610000Y-77180099D02*
X173610000Y-76280100D01*
D20*
X174110000Y-79380100D02*
X174110000Y-77580101D01*
D19*
X175240000Y-75880100D02*
X175240000Y-78120100D01*
D16*
X183710000Y-77680100D02*
X182310000Y-77680100D01*
D18*
X183310000Y-74980100D02*
X183310000Y-77480100D01*
D17*
X182010000Y-76180100D02*
X175310000Y-76180100D01*
D12*
X184010000Y-77980100D02*
X184010000Y-76980100D01*
X184010000Y-76980100D02*
X183810000Y-76980100D01*
X183790000Y-76980100D02*
X183790000Y-74730100D01*
X183810000Y-74730100D02*
X184010000Y-74730100D01*
X173510000Y-77280100D02*
X173710000Y-77280100D01*
X173740000Y-77280100D02*
X173740000Y-79520100D01*
X173710000Y-79520100D02*
X173510000Y-79520100D01*
X173510000Y-79880100D02*
X173510000Y-79520100D01*
X173510000Y-76280100D02*
X173510000Y-77280100D01*
X173510000Y-79880100D02*
X176790000Y-79880100D01*
X179010000Y-77980100D02*
X184010000Y-77980100D01*
X184010000Y-74380100D02*
X175609999Y-74380100D01*
X184010000Y-74730100D02*
X184010000Y-74380100D01*
D16*
X173710000Y-79680100D02*
X176410000Y-79680100D01*
D15*
X183810000Y-74580100D02*
X182410000Y-74580100D01*
X183810000Y-77080100D02*
X183810000Y-77780100D01*
D12*
X176793682Y-79858629D02*
G75*
G02*
X179010000Y-77980100I2151318J-291471D01*
G01*
X173510000Y-76280101D02*
G75*
G02*
X175609999Y-74380100I2000000J-99999D01*
G01*
D18*
X176393682Y-79458629D02*
G75*
G02*
X178610000Y-77580100I2151318J-291471D01*
G01*
D10*
X154560000Y-72480099D02*
X154560000Y-71580100D01*
D20*
X155060000Y-74680100D02*
X155060000Y-72880101D01*
D19*
X156190000Y-71180100D02*
X156190000Y-73420100D01*
D16*
X164660000Y-72980100D02*
X163260000Y-72980100D01*
D18*
X164260000Y-70280100D02*
X164260000Y-72780100D01*
D17*
X162960000Y-71480100D02*
X156260000Y-71480100D01*
D12*
X164960000Y-73280100D02*
X164960000Y-72280100D01*
X164960000Y-72280100D02*
X164760000Y-72280100D01*
X164740000Y-72280100D02*
X164740000Y-70030100D01*
X164760000Y-70030100D02*
X164960000Y-70030100D01*
X154460000Y-72580100D02*
X154660000Y-72580100D01*
X154690000Y-72580100D02*
X154690000Y-74820100D01*
X154660000Y-74820100D02*
X154460000Y-74820100D01*
X154460000Y-75180100D02*
X154460000Y-74820100D01*
X154460000Y-71580100D02*
X154460000Y-72580100D01*
X154460000Y-75180100D02*
X157740000Y-75180100D01*
X159960000Y-73280100D02*
X164960000Y-73280100D01*
X164960000Y-69680100D02*
X156559999Y-69680100D01*
X164960000Y-70030100D02*
X164960000Y-69680100D01*
D16*
X154660000Y-74980100D02*
X157360000Y-74980100D01*
D15*
X164760000Y-69880100D02*
X163360000Y-69880100D01*
X164760000Y-72380100D02*
X164760000Y-73080100D01*
D12*
X157743682Y-75158629D02*
G75*
G02*
X159960000Y-73280100I2151318J-291471D01*
G01*
X154460000Y-71580101D02*
G75*
G02*
X156559999Y-69680100I2000000J-99999D01*
G01*
D18*
X157343682Y-74758629D02*
G75*
G02*
X159560000Y-72880100I2151318J-291471D01*
G01*
D15*
X145710000Y-74880100D02*
X145710000Y-75580100D01*
X145710000Y-72380100D02*
X144310000Y-72380100D01*
D16*
X135610000Y-77480100D02*
X138310000Y-77480100D01*
D12*
X145910000Y-72530100D02*
X145910000Y-72180100D01*
X145910000Y-72180100D02*
X137509999Y-72180100D01*
X140910000Y-75780100D02*
X145910000Y-75780100D01*
X135410000Y-77680100D02*
X138690000Y-77680100D01*
X135410000Y-74080100D02*
X135410000Y-75080100D01*
X135410000Y-77680100D02*
X135410000Y-77320100D01*
X135610000Y-77320100D02*
X135410000Y-77320100D01*
X135640000Y-75080100D02*
X135640000Y-77320100D01*
X135410000Y-75080100D02*
X135610000Y-75080100D01*
X145710000Y-72530100D02*
X145910000Y-72530100D01*
X145690000Y-74780100D02*
X145690000Y-72530100D01*
X145910000Y-74780100D02*
X145710000Y-74780100D01*
X145910000Y-75780100D02*
X145910000Y-74780100D01*
D17*
X143910000Y-73980100D02*
X137210000Y-73980100D01*
D18*
X145210000Y-72780100D02*
X145210000Y-75280100D01*
D16*
X145610000Y-75480100D02*
X144210000Y-75480100D01*
D19*
X137140000Y-73680100D02*
X137140000Y-75920100D01*
D20*
X136010000Y-77180100D02*
X136010000Y-75380101D01*
D10*
X135510000Y-74980099D02*
X135510000Y-74080100D01*
D18*
X138293682Y-77258629D02*
G75*
G02*
X140510000Y-75380100I2151318J-291471D01*
G01*
D12*
X135410000Y-74080101D02*
G75*
G02*
X137509999Y-72180100I2000000J-99999D01*
G01*
X138693682Y-77658629D02*
G75*
G02*
X140910000Y-75780100I2151318J-291471D01*
G01*
D10*
X116460000Y-77480099D02*
X116460000Y-76580100D01*
D20*
X116960000Y-79680100D02*
X116960000Y-77880101D01*
D19*
X118090000Y-76180100D02*
X118090000Y-78420100D01*
D16*
X126560000Y-77980100D02*
X125160000Y-77980100D01*
D18*
X126160000Y-75280100D02*
X126160000Y-77780100D01*
D17*
X124860000Y-76480100D02*
X118160000Y-76480100D01*
D12*
X126860000Y-78280100D02*
X126860000Y-77280100D01*
X126860000Y-77280100D02*
X126660000Y-77280100D01*
X126640000Y-77280100D02*
X126640000Y-75030100D01*
X126660000Y-75030100D02*
X126860000Y-75030100D01*
X116360000Y-77580100D02*
X116560000Y-77580100D01*
X116590000Y-77580100D02*
X116590000Y-79820100D01*
X116560000Y-79820100D02*
X116360000Y-79820100D01*
X116360000Y-80180100D02*
X116360000Y-79820100D01*
X116360000Y-76580100D02*
X116360000Y-77580100D01*
X116360000Y-80180100D02*
X119640000Y-80180100D01*
X121860000Y-78280100D02*
X126860000Y-78280100D01*
X126860000Y-74680100D02*
X118459999Y-74680100D01*
X126860000Y-75030100D02*
X126860000Y-74680100D01*
D16*
X116560000Y-79980100D02*
X119260000Y-79980100D01*
D15*
X126660000Y-74880100D02*
X125260000Y-74880100D01*
X126660000Y-77380100D02*
X126660000Y-78080100D01*
D12*
X119643682Y-80158629D02*
G75*
G02*
X121860000Y-78280100I2151318J-291471D01*
G01*
X116360000Y-76580101D02*
G75*
G02*
X118459999Y-74680100I2000000J-99999D01*
G01*
D18*
X119243682Y-79758629D02*
G75*
G02*
X121460000Y-77880100I2151318J-291471D01*
G01*
D10*
X192660000Y-103229999D02*
X192660000Y-102330000D01*
D20*
X193160000Y-105430000D02*
X193160000Y-103630001D01*
D19*
X194290000Y-101930000D02*
X194290000Y-104170000D01*
D16*
X202760000Y-103730000D02*
X201360000Y-103730000D01*
D18*
X202360000Y-101030000D02*
X202360000Y-103530000D01*
D17*
X201060000Y-102230000D02*
X194360000Y-102230000D01*
D12*
X203060000Y-104030000D02*
X203060000Y-103030000D01*
X203060000Y-103030000D02*
X202860000Y-103030000D01*
X202840000Y-103030000D02*
X202840000Y-100780000D01*
X202860000Y-100780000D02*
X203060000Y-100780000D01*
X192560000Y-103330000D02*
X192760000Y-103330000D01*
X192790000Y-103330000D02*
X192790000Y-105570000D01*
X192760000Y-105570000D02*
X192560000Y-105570000D01*
X192560000Y-105930000D02*
X192560000Y-105570000D01*
X192560000Y-102330000D02*
X192560000Y-103330000D01*
X192560000Y-105930000D02*
X195840000Y-105930000D01*
X198060000Y-104030000D02*
X203060000Y-104030000D01*
X203060000Y-100430000D02*
X194659999Y-100430000D01*
X203060000Y-100780000D02*
X203060000Y-100430000D01*
D16*
X192760000Y-105730000D02*
X195460000Y-105730000D01*
D15*
X202860000Y-100630000D02*
X201460000Y-100630000D01*
X202860000Y-103130000D02*
X202860000Y-103830000D01*
D12*
X195843682Y-105908529D02*
G75*
G02*
X198060000Y-104030000I2151318J-291471D01*
G01*
X192560000Y-102330001D02*
G75*
G02*
X194659999Y-100430000I2000000J-99999D01*
G01*
D18*
X195443682Y-105508529D02*
G75*
G02*
X197660000Y-103630000I2151318J-291471D01*
G01*
D15*
X183810000Y-96130000D02*
X183810000Y-96830000D01*
X183810000Y-93630000D02*
X182410000Y-93630000D01*
D16*
X173710000Y-98730000D02*
X176410000Y-98730000D01*
D12*
X184010000Y-93780000D02*
X184010000Y-93430000D01*
X184010000Y-93430000D02*
X175609999Y-93430000D01*
X179010000Y-97030000D02*
X184010000Y-97030000D01*
X173510000Y-98930000D02*
X176790000Y-98930000D01*
X173510000Y-95330000D02*
X173510000Y-96330000D01*
X173510000Y-98930000D02*
X173510000Y-98570000D01*
X173710000Y-98570000D02*
X173510000Y-98570000D01*
X173740000Y-96330000D02*
X173740000Y-98570000D01*
X173510000Y-96330000D02*
X173710000Y-96330000D01*
X183810000Y-93780000D02*
X184010000Y-93780000D01*
X183790000Y-96030000D02*
X183790000Y-93780000D01*
X184010000Y-96030000D02*
X183810000Y-96030000D01*
X184010000Y-97030000D02*
X184010000Y-96030000D01*
D17*
X182010000Y-95230000D02*
X175310000Y-95230000D01*
D18*
X183310000Y-94030000D02*
X183310000Y-96530000D01*
D16*
X183710000Y-96730000D02*
X182310000Y-96730000D01*
D19*
X175240000Y-94930000D02*
X175240000Y-97170000D01*
D20*
X174110000Y-98430000D02*
X174110000Y-96630001D01*
D10*
X173610000Y-96229999D02*
X173610000Y-95330000D01*
D18*
X176393682Y-98508529D02*
G75*
G02*
X178610000Y-96630000I2151318J-291471D01*
G01*
D12*
X173510000Y-95330001D02*
G75*
G02*
X175609999Y-93430000I2000000J-99999D01*
G01*
X176793682Y-98908529D02*
G75*
G02*
X179010000Y-97030000I2151318J-291471D01*
G01*
D15*
X164760000Y-91430100D02*
X164760000Y-92130100D01*
X164760000Y-88930100D02*
X163360000Y-88930100D01*
D16*
X154660000Y-94030100D02*
X157360000Y-94030100D01*
D12*
X164960000Y-89080100D02*
X164960000Y-88730100D01*
X164960000Y-88730100D02*
X156559999Y-88730100D01*
X159960000Y-92330100D02*
X164960000Y-92330100D01*
X154460000Y-94230100D02*
X157740000Y-94230100D01*
X154460000Y-90630100D02*
X154460000Y-91630100D01*
X154460000Y-94230100D02*
X154460000Y-93870100D01*
X154660000Y-93870100D02*
X154460000Y-93870100D01*
X154690000Y-91630100D02*
X154690000Y-93870100D01*
X154460000Y-91630100D02*
X154660000Y-91630100D01*
X164760000Y-89080100D02*
X164960000Y-89080100D01*
X164740000Y-91330100D02*
X164740000Y-89080100D01*
X164960000Y-91330100D02*
X164760000Y-91330100D01*
X164960000Y-92330100D02*
X164960000Y-91330100D01*
D17*
X162960000Y-90530100D02*
X156260000Y-90530100D01*
D18*
X164260000Y-89330100D02*
X164260000Y-91830100D01*
D16*
X164660000Y-92030100D02*
X163260000Y-92030100D01*
D19*
X156190000Y-90230100D02*
X156190000Y-92470100D01*
D20*
X155060000Y-93730100D02*
X155060000Y-91930101D01*
D10*
X154560000Y-91530099D02*
X154560000Y-90630100D01*
D18*
X157343682Y-93808629D02*
G75*
G02*
X159560000Y-91930100I2151318J-291471D01*
G01*
D12*
X154460000Y-90630101D02*
G75*
G02*
X156559999Y-88730100I2000000J-99999D01*
G01*
X157743682Y-94208629D02*
G75*
G02*
X159960000Y-92330100I2151318J-291471D01*
G01*
D10*
X135510000Y-94030099D02*
X135510000Y-93130100D01*
D20*
X136010000Y-96230100D02*
X136010000Y-94430101D01*
D19*
X137140000Y-92730100D02*
X137140000Y-94970100D01*
D16*
X145610000Y-94530100D02*
X144210000Y-94530100D01*
D18*
X145210000Y-91830100D02*
X145210000Y-94330100D01*
D17*
X143910000Y-93030100D02*
X137210000Y-93030100D01*
D12*
X145910000Y-94830100D02*
X145910000Y-93830100D01*
X145910000Y-93830100D02*
X145710000Y-93830100D01*
X145690000Y-93830100D02*
X145690000Y-91580100D01*
X145710000Y-91580100D02*
X145910000Y-91580100D01*
X135410000Y-94130100D02*
X135610000Y-94130100D01*
X135640000Y-94130100D02*
X135640000Y-96370100D01*
X135610000Y-96370100D02*
X135410000Y-96370100D01*
X135410000Y-96730100D02*
X135410000Y-96370100D01*
X135410000Y-93130100D02*
X135410000Y-94130100D01*
X135410000Y-96730100D02*
X138690000Y-96730100D01*
X140910000Y-94830100D02*
X145910000Y-94830100D01*
X145910000Y-91230100D02*
X137509999Y-91230100D01*
X145910000Y-91580100D02*
X145910000Y-91230100D01*
D16*
X135610000Y-96530100D02*
X138310000Y-96530100D01*
D15*
X145710000Y-91430100D02*
X144310000Y-91430100D01*
X145710000Y-93930100D02*
X145710000Y-94630100D01*
D12*
X138693682Y-96708629D02*
G75*
G02*
X140910000Y-94830100I2151318J-291471D01*
G01*
X135410000Y-93130101D02*
G75*
G02*
X137509999Y-91230100I2000000J-99999D01*
G01*
D18*
X138293682Y-96308629D02*
G75*
G02*
X140510000Y-94430100I2151318J-291471D01*
G01*
D15*
X126660000Y-96430000D02*
X126660000Y-97130000D01*
X126660000Y-93930000D02*
X125260000Y-93930000D01*
D16*
X116560000Y-99030000D02*
X119260000Y-99030000D01*
D12*
X126860000Y-94080000D02*
X126860000Y-93730000D01*
X126860000Y-93730000D02*
X118459999Y-93730000D01*
X121860000Y-97330000D02*
X126860000Y-97330000D01*
X116360000Y-99230000D02*
X119640000Y-99230000D01*
X116360000Y-95630000D02*
X116360000Y-96630000D01*
X116360000Y-99230000D02*
X116360000Y-98870000D01*
X116560000Y-98870000D02*
X116360000Y-98870000D01*
X116590000Y-96630000D02*
X116590000Y-98870000D01*
X116360000Y-96630000D02*
X116560000Y-96630000D01*
X126660000Y-94080000D02*
X126860000Y-94080000D01*
X126640000Y-96330000D02*
X126640000Y-94080000D01*
X126860000Y-96330000D02*
X126660000Y-96330000D01*
X126860000Y-97330000D02*
X126860000Y-96330000D01*
D17*
X124860000Y-95530000D02*
X118160000Y-95530000D01*
D18*
X126160000Y-94330000D02*
X126160000Y-96830000D01*
D16*
X126560000Y-97030000D02*
X125160000Y-97030000D01*
D19*
X118090000Y-95230000D02*
X118090000Y-97470000D01*
D20*
X116960000Y-98730000D02*
X116960000Y-96930001D01*
D10*
X116460000Y-96529999D02*
X116460000Y-95630000D01*
D18*
X119243682Y-98808529D02*
G75*
G02*
X121460000Y-96930000I2151318J-291471D01*
G01*
D12*
X116360000Y-95630001D02*
G75*
G02*
X118459999Y-93730000I2000000J-99999D01*
G01*
X119643682Y-99208529D02*
G75*
G02*
X121860000Y-97330000I2151318J-291471D01*
G01*
D15*
X202860000Y-122180000D02*
X202860000Y-122880000D01*
X202860000Y-119680000D02*
X201460000Y-119680000D01*
D16*
X192760000Y-124780000D02*
X195460000Y-124780000D01*
D12*
X203060000Y-119830000D02*
X203060000Y-119480000D01*
X203060000Y-119480000D02*
X194659999Y-119480000D01*
X198060000Y-123080000D02*
X203060000Y-123080000D01*
X192560000Y-124980000D02*
X195840000Y-124980000D01*
X192560000Y-121380000D02*
X192560000Y-122380000D01*
X192560000Y-124980000D02*
X192560000Y-124620000D01*
X192760000Y-124620000D02*
X192560000Y-124620000D01*
X192790000Y-122380000D02*
X192790000Y-124620000D01*
X192560000Y-122380000D02*
X192760000Y-122380000D01*
X202860000Y-119830000D02*
X203060000Y-119830000D01*
X202840000Y-122080000D02*
X202840000Y-119830000D01*
X203060000Y-122080000D02*
X202860000Y-122080000D01*
X203060000Y-123080000D02*
X203060000Y-122080000D01*
D17*
X201060000Y-121280000D02*
X194360000Y-121280000D01*
D18*
X202360000Y-120080000D02*
X202360000Y-122580000D01*
D16*
X202760000Y-122780000D02*
X201360000Y-122780000D01*
D19*
X194290000Y-120980000D02*
X194290000Y-123220000D01*
D20*
X193160000Y-124480000D02*
X193160000Y-122680001D01*
D10*
X192660000Y-122279999D02*
X192660000Y-121380000D01*
D18*
X195443682Y-124558529D02*
G75*
G02*
X197660000Y-122680000I2151318J-291471D01*
G01*
D12*
X192560000Y-121380001D02*
G75*
G02*
X194659999Y-119480000I2000000J-99999D01*
G01*
X195843682Y-124958529D02*
G75*
G02*
X198060000Y-123080000I2151318J-291471D01*
G01*
D10*
X173610000Y-115279999D02*
X173610000Y-114380000D01*
D20*
X174110000Y-117480000D02*
X174110000Y-115680001D01*
D19*
X175240000Y-113980000D02*
X175240000Y-116220000D01*
D16*
X183710000Y-115780000D02*
X182310000Y-115780000D01*
D18*
X183310000Y-113080000D02*
X183310000Y-115580000D01*
D17*
X182010000Y-114280000D02*
X175310000Y-114280000D01*
D12*
X184010000Y-116080000D02*
X184010000Y-115080000D01*
X184010000Y-115080000D02*
X183810000Y-115080000D01*
X183790000Y-115080000D02*
X183790000Y-112830000D01*
X183810000Y-112830000D02*
X184010000Y-112830000D01*
X173510000Y-115380000D02*
X173710000Y-115380000D01*
X173740000Y-115380000D02*
X173740000Y-117620000D01*
X173710000Y-117620000D02*
X173510000Y-117620000D01*
X173510000Y-117980000D02*
X173510000Y-117620000D01*
X173510000Y-114380000D02*
X173510000Y-115380000D01*
X173510000Y-117980000D02*
X176790000Y-117980000D01*
X179010000Y-116080000D02*
X184010000Y-116080000D01*
X184010000Y-112480000D02*
X175609999Y-112480000D01*
X184010000Y-112830000D02*
X184010000Y-112480000D01*
D16*
X173710000Y-117780000D02*
X176410000Y-117780000D01*
D15*
X183810000Y-112680000D02*
X182410000Y-112680000D01*
X183810000Y-115180000D02*
X183810000Y-115880000D01*
D12*
X176793682Y-117958529D02*
G75*
G02*
X179010000Y-116080000I2151318J-291471D01*
G01*
X173510000Y-114380001D02*
G75*
G02*
X175609999Y-112480000I2000000J-99999D01*
G01*
D18*
X176393682Y-117558529D02*
G75*
G02*
X178610000Y-115680000I2151318J-291471D01*
G01*
D14*
X141960000Y-118180000D02*
X141960000Y-122680000D01*
X139110000Y-120480000D02*
X141960000Y-118180000D01*
X139110000Y-116130000D02*
X139110000Y-120480000D01*
X136410000Y-120430000D02*
X139110000Y-116130000D01*
X136410000Y-115980000D02*
X136410000Y-120430000D01*
D12*
X136010000Y-115855000D02*
X138610000Y-115855000D01*
X136010000Y-120505000D02*
X138585000Y-120505000D01*
X141035000Y-122705000D02*
X143585000Y-122705000D01*
X141610000Y-118055000D02*
X143585000Y-118055000D01*
X135010000Y-119505000D02*
X135010000Y-116855000D01*
X136010000Y-115855000D02*
X134985000Y-116880000D01*
X136010000Y-120505000D02*
X134985000Y-119480000D01*
X141035000Y-122705000D02*
X139760000Y-121680000D01*
X144460000Y-118580000D02*
X144460000Y-122180000D01*
X144310000Y-118380000D02*
X144310000Y-122380000D01*
X144160000Y-118280000D02*
X144160000Y-122480000D01*
X144010000Y-118180000D02*
X144010000Y-122580000D01*
X143860000Y-118130000D02*
X143860000Y-122630000D01*
X143710000Y-118080000D02*
X143710000Y-122630000D01*
X143560000Y-118080000D02*
X143560000Y-122680000D01*
X143410000Y-118080000D02*
X143410000Y-122680000D01*
X143260000Y-118080000D02*
X143260000Y-122680000D01*
X143110000Y-118080000D02*
X143110000Y-122680000D01*
X142960000Y-118080000D02*
X142960000Y-122680000D01*
X142810000Y-118080000D02*
X142810000Y-122680000D01*
X142660000Y-118080000D02*
X142660000Y-122680000D01*
X142510000Y-118080000D02*
X142510000Y-122680000D01*
X142360000Y-118080000D02*
X142360000Y-122680000D01*
X142210000Y-118080000D02*
X142210000Y-122680000D01*
X142060000Y-118080000D02*
X142060000Y-122680000D01*
X141910000Y-118080000D02*
X141910000Y-122680000D01*
X141760000Y-118080000D02*
X141760000Y-122680000D01*
X141610000Y-118080000D02*
X141610000Y-122680000D01*
X141460000Y-118080000D02*
X141460000Y-122630000D01*
X141310000Y-118030000D02*
X141310000Y-122680000D01*
X141160000Y-118030000D02*
X141160000Y-122680000D01*
X141010000Y-118030000D02*
X141010000Y-122630000D01*
X140860000Y-117980000D02*
X140860000Y-122530000D01*
X140710000Y-117880000D02*
X140710000Y-122430000D01*
X140560000Y-117830000D02*
X140560000Y-122280000D01*
X140410000Y-117730000D02*
X140410000Y-122180000D01*
X140260000Y-117630000D02*
X140260000Y-122030000D01*
X140110000Y-117530000D02*
X140110000Y-121930000D01*
X139960000Y-117380000D02*
X139960000Y-121830000D01*
X139810000Y-117230000D02*
X139810000Y-121680000D01*
X139710000Y-117030000D02*
X139710000Y-121180000D01*
X139610000Y-116880000D02*
X139610000Y-121030000D01*
X139510000Y-116680000D02*
X139510000Y-120830000D01*
X139410000Y-116530000D02*
X139410000Y-120730000D01*
X139310000Y-116280000D02*
X139310000Y-120680000D01*
X139210000Y-116130000D02*
X139210000Y-120630000D01*
X139060000Y-116030000D02*
X139060000Y-120580000D01*
X138910000Y-115930000D02*
X138910000Y-120480000D01*
X138760000Y-115880000D02*
X138760000Y-120480000D01*
X138610000Y-115880000D02*
X138610000Y-120480000D01*
X138460000Y-115880000D02*
X138460000Y-120430000D01*
X138310000Y-115880000D02*
X138310000Y-120480000D01*
X138160000Y-115880000D02*
X138160000Y-120480000D01*
X138010000Y-115880000D02*
X138010000Y-120480000D01*
X137860000Y-115880000D02*
X137860000Y-120480000D01*
X137710000Y-115880000D02*
X137710000Y-120480000D01*
X137560000Y-115880000D02*
X137560000Y-120480000D01*
X137410000Y-115880000D02*
X137410000Y-120480000D01*
X137260000Y-115880000D02*
X137260000Y-120480000D01*
X137110000Y-115880000D02*
X137110000Y-120480000D01*
X136960000Y-115880000D02*
X136960000Y-120480000D01*
X136810000Y-115880000D02*
X136810000Y-120480000D01*
X136660000Y-115880000D02*
X136660000Y-120480000D01*
X136510000Y-115880000D02*
X136510000Y-120480000D01*
X136360000Y-115880000D02*
X136360000Y-120480000D01*
X136210000Y-115880000D02*
X136210000Y-120480000D01*
X136060000Y-115880000D02*
X136060000Y-120480000D01*
X135910000Y-115980000D02*
X135910000Y-120380000D01*
X135760000Y-116130000D02*
X135760000Y-120230000D01*
X135610000Y-116280000D02*
X135610000Y-120080000D01*
X135460000Y-116430000D02*
X135460000Y-119930000D01*
X135360000Y-116530000D02*
X135360000Y-119830000D01*
X135260000Y-116630000D02*
X135260000Y-119730000D01*
X135160000Y-116730000D02*
X135160000Y-119630000D01*
D19*
X141480000Y-129180000D02*
X141480000Y-126940000D01*
D12*
X142980000Y-127780000D02*
X142980000Y-125540000D01*
X132710000Y-130680000D02*
X141110001Y-130680000D01*
X132710000Y-130330000D02*
X132710000Y-130680000D01*
D10*
X143110000Y-127880001D02*
X143110000Y-128780000D01*
D12*
X143210000Y-127780000D02*
X143010000Y-127780000D01*
X143210000Y-128780000D02*
X143210000Y-127780000D01*
D16*
X143010000Y-125380000D02*
X140310000Y-125380000D01*
D15*
X132910000Y-130480000D02*
X134310000Y-130480000D01*
D16*
X133010000Y-127380000D02*
X134410000Y-127380000D01*
D12*
X137710000Y-127080000D02*
X132710000Y-127080000D01*
D15*
X132910000Y-127980000D02*
X132910000Y-127280000D01*
D20*
X142610000Y-125680000D02*
X142610000Y-127479999D01*
D12*
X143210000Y-125180000D02*
X139930000Y-125180000D01*
D18*
X133410000Y-130080000D02*
X133410000Y-127580000D01*
D12*
X132710000Y-128080000D02*
X132910000Y-128080000D01*
X132910000Y-130330000D02*
X132710000Y-130330000D01*
X143010000Y-125540000D02*
X143210000Y-125540000D01*
D17*
X134710000Y-128880000D02*
X141410000Y-128880000D01*
D12*
X143210000Y-125180000D02*
X143210000Y-125540000D01*
X132710000Y-127080000D02*
X132710000Y-128080000D01*
X132930000Y-128080000D02*
X132930000Y-130330000D01*
D18*
X140326318Y-125601471D02*
G75*
G02*
X138110000Y-127480000I-2151318J291471D01*
G01*
D12*
X143210000Y-128779999D02*
G75*
G02*
X141110001Y-130680000I-2000000J99999D01*
G01*
X139926318Y-125201471D02*
G75*
G02*
X137710000Y-127080000I-2151318J291471D01*
G01*
X139760000Y-121680000D02*
G75*
G03*
X138585000Y-120505000I-1175000J0D01*
G01*
X139472199Y-116558096D02*
G75*
G03*
X141610000Y-118055000I2137801J778096D01*
G01*
X143585000Y-122705000D02*
G75*
G03*
X144585000Y-121705000I0J1000000D01*
G01*
X143585000Y-118055000D02*
G75*
G02*
X144585000Y-119055000I0J-1000000D01*
G01*
X138610995Y-115856209D02*
G75*
G02*
X139472199Y-116558096I-38796J-926887D01*
G01*
X112132135Y-130577810D02*
X112522843Y-132793627D01*
X111741829Y-129631205D02*
X111915477Y-130616013D01*
X121752379Y-125936764D02*
X121814892Y-126291295D01*
D17*
X114024011Y-131056562D02*
X120622223Y-129893120D01*
D12*
X121617931Y-126326025D02*
X121814892Y-126291295D01*
X112503147Y-132797100D02*
X112306185Y-132831830D01*
X111915477Y-130616013D02*
X112112439Y-130581283D01*
D18*
X112952139Y-132464074D02*
X112518018Y-130002055D01*
D12*
X121752379Y-125936764D02*
X118522209Y-126506330D01*
D20*
X121248318Y-126533357D02*
X121560885Y-128306010D01*
D15*
X112095074Y-130482802D02*
X111973520Y-129793437D01*
D12*
X116665868Y-128762964D02*
X111741829Y-129631205D01*
D16*
X112089366Y-129874553D02*
X113468097Y-129631445D01*
D15*
X112529194Y-132944822D02*
X113907925Y-132701714D01*
D16*
X121590147Y-126168455D02*
X118931166Y-126637306D01*
D12*
X122377512Y-129482072D02*
X122203864Y-128497264D01*
X122203864Y-128497264D02*
X122006902Y-128531994D01*
D10*
X122122748Y-128613111D02*
X122279031Y-129499437D01*
D12*
X112306185Y-132831830D02*
X112366962Y-133176513D01*
X112366962Y-133176513D02*
X120639348Y-131717868D01*
X121977358Y-128537204D02*
X121588386Y-126331234D01*
D19*
X120743254Y-130176407D02*
X120354282Y-127970437D01*
D12*
X112357349Y-119013007D02*
X112860929Y-121868949D01*
X112438465Y-118897161D02*
X112976775Y-121950065D01*
X112519581Y-118781315D02*
X113092620Y-122031181D01*
X112600697Y-118665470D02*
X113208466Y-122112297D01*
X112722371Y-118491701D02*
X113382234Y-122233971D01*
X112844045Y-118317933D02*
X113556002Y-122355645D01*
X112965719Y-118144165D02*
X113729771Y-122477319D01*
X113096075Y-118019637D02*
X113894857Y-122549752D01*
X113243796Y-117993589D02*
X114042578Y-122523705D01*
X113391518Y-117967542D02*
X114190299Y-122497658D01*
X113539239Y-117941495D02*
X114338020Y-122471611D01*
X113686960Y-117915448D02*
X114485742Y-122445563D01*
X113834681Y-117889401D02*
X114633463Y-122419516D01*
X113982402Y-117863353D02*
X114781184Y-122393469D01*
X114130123Y-117837306D02*
X114928905Y-122367422D01*
X114277845Y-117811259D02*
X115076626Y-122341374D01*
X114425566Y-117785212D02*
X115224347Y-122315327D01*
X114573287Y-117759164D02*
X115372068Y-122289280D01*
X114721008Y-117733117D02*
X115519790Y-122263233D01*
X114868729Y-117707070D02*
X115667511Y-122237186D01*
X115016450Y-117681023D02*
X115815232Y-122211138D01*
X115164172Y-117654975D02*
X115962953Y-122185091D01*
X115311893Y-117628928D02*
X116110674Y-122159044D01*
X115459614Y-117602881D02*
X116249713Y-122083756D01*
X115607335Y-117576834D02*
X116406117Y-122106949D01*
X115755056Y-117550787D02*
X116553838Y-122080902D01*
X115911460Y-117573980D02*
X116701559Y-122054855D01*
X116076546Y-117646413D02*
X116866645Y-122127289D01*
X116241632Y-117718847D02*
X117023049Y-122150482D01*
X116366160Y-117849203D02*
X117130212Y-122182357D01*
X116508053Y-118078040D02*
X117237375Y-122214233D01*
X116632581Y-118208397D02*
X117353220Y-122295349D01*
X116765791Y-118387993D02*
X117486431Y-122474946D01*
X116890319Y-118518350D02*
X117610959Y-122605302D01*
X117023529Y-118697946D02*
X117796264Y-123080341D01*
X117197298Y-118819620D02*
X117970032Y-123202015D01*
X117371066Y-118941294D02*
X118135118Y-123274448D01*
X117536152Y-119013728D02*
X118300204Y-123346882D01*
X117701238Y-119086161D02*
X118473972Y-123468556D01*
X117866324Y-119158595D02*
X118639058Y-123540989D01*
X118022728Y-119181788D02*
X118812827Y-123662663D01*
X118187814Y-119254222D02*
X118977913Y-123735097D01*
X118344217Y-119277415D02*
X119142999Y-123807531D01*
X118491938Y-119251368D02*
X119299402Y-123830724D01*
X118639660Y-119225320D02*
X119447124Y-123804676D01*
X118796063Y-119248514D02*
X119586162Y-123729389D01*
X118943784Y-119222466D02*
X119742566Y-123752582D01*
X119091505Y-119196419D02*
X119890287Y-123726535D01*
X119239227Y-119170372D02*
X120038008Y-123700488D01*
X119386948Y-119144325D02*
X120185729Y-123674440D01*
X119534669Y-119118277D02*
X120333451Y-123648393D01*
X119682390Y-119092230D02*
X120481172Y-123622346D01*
X119830111Y-119066183D02*
X120628893Y-123596299D01*
X119977832Y-119040136D02*
X120776614Y-123570251D01*
X120125554Y-119014089D02*
X120924335Y-123544204D01*
X120273275Y-118988041D02*
X121072056Y-123518157D01*
X120420996Y-118961994D02*
X121219778Y-123492110D01*
X120568717Y-118935947D02*
X121367499Y-123466062D01*
X120716438Y-118909900D02*
X121515220Y-123440015D01*
X120864159Y-118883852D02*
X121662941Y-123413968D01*
X121011881Y-118857805D02*
X121801980Y-123338680D01*
X121168284Y-118880998D02*
X121949701Y-123312633D01*
X121324688Y-118904191D02*
X122088740Y-123237346D01*
X121489774Y-118976625D02*
X122219096Y-123112818D01*
X121654860Y-119049059D02*
X122349452Y-122988290D01*
X121837310Y-119219973D02*
X122462444Y-122765281D01*
X119180643Y-123877050D02*
X117747023Y-123089023D01*
X113849958Y-122583055D02*
X112662540Y-121751616D01*
X113042494Y-118003699D02*
X112211055Y-119191116D01*
X112691502Y-121771895D02*
X112231334Y-119162155D01*
X118939443Y-119197846D02*
X120884438Y-118854891D01*
X119180643Y-123877050D02*
X121691902Y-123434247D01*
X113849958Y-122583055D02*
X116385838Y-122135911D01*
X113042494Y-118003699D02*
X115602994Y-117552214D01*
D14*
X113458123Y-118057341D02*
X114230857Y-122439735D01*
X114230857Y-122439735D02*
X116143151Y-117736212D01*
X116143151Y-117736212D02*
X116898521Y-122020125D01*
X116898521Y-122020125D02*
X119305832Y-119260170D01*
X119305832Y-119260170D02*
X120087249Y-123691805D01*
D12*
X115604183Y-117553231D02*
G75*
G02*
X116574185Y-118094909I122746J-919543D01*
G01*
X120884439Y-118854892D02*
G75*
G02*
X122042894Y-119666051I173648J-984807D01*
G01*
X121691902Y-123434247D02*
G75*
G03*
X122503062Y-122275791I-173648J984808D01*
G01*
X116574185Y-118094908D02*
G75*
G03*
X118939443Y-119197846I1970208J1137500D01*
G01*
X117747023Y-123089024D02*
G75*
G03*
X116385838Y-122135911I-1157149J-204036D01*
G01*
X118522312Y-126528114D02*
G75*
G02*
X116665868Y-128762964I-2169248J-86530D01*
G01*
X122377512Y-129482072D02*
G75*
G02*
X120639348Y-131717868I-1986980J-248816D01*
G01*
D18*
X118985694Y-126852578D02*
G75*
G02*
X117129250Y-129087428I-2169248J-86530D01*
G01*
D14*
X97183452Y-124259420D02*
X98722542Y-128488037D01*
X95291974Y-127395470D02*
X97183452Y-124259420D01*
X93804187Y-123307807D02*
X95291974Y-127395470D01*
X92737703Y-128271940D02*
X93804187Y-123307807D01*
X91215713Y-124090308D02*
X92737703Y-128271940D01*
D12*
X90797084Y-124109654D02*
X93240285Y-123220402D01*
X92387478Y-128479225D02*
X94807186Y-127598523D01*
X97861877Y-128827898D02*
X100258093Y-127955746D01*
X96811807Y-124261665D02*
X98667700Y-123586176D01*
X91105765Y-127881553D02*
X90199411Y-125391367D01*
X90797084Y-124109654D02*
X90184470Y-125423410D01*
X92387478Y-128479225D02*
X91073722Y-127866611D01*
X97861877Y-128827898D02*
X96313199Y-128300788D01*
X99669491Y-123780247D02*
X100900764Y-127163140D01*
X99460134Y-123643611D02*
X100828214Y-127402382D01*
X99284978Y-123600945D02*
X100721462Y-127547654D01*
X99109822Y-123558279D02*
X100614710Y-127692926D01*
X98951767Y-123562597D02*
X100490857Y-127791214D01*
X98793712Y-123566915D02*
X100349904Y-127842517D01*
X98652758Y-123618218D02*
X100226051Y-127940804D01*
X98511804Y-123669521D02*
X100085097Y-127992107D01*
X98370850Y-123720824D02*
X99944143Y-128043410D01*
X98229896Y-123772127D02*
X99803189Y-128094713D01*
X98088942Y-123823430D02*
X99662235Y-128146017D01*
X97947989Y-123874733D02*
X99521281Y-128197320D01*
X97807035Y-123926037D02*
X99380327Y-128248623D01*
X97666081Y-123977340D02*
X99239373Y-128299926D01*
X97525127Y-124028643D02*
X99098420Y-128351229D01*
X97384173Y-124079946D02*
X98957466Y-128402532D01*
X97243219Y-124131249D02*
X98816512Y-128453835D01*
X97102265Y-124182552D02*
X98675558Y-128505138D01*
X96961311Y-124233855D02*
X98534604Y-128556441D01*
X96820357Y-124285158D02*
X98393650Y-128607744D01*
X96679404Y-124336461D02*
X98235595Y-128612062D01*
X96521349Y-124340779D02*
X98111742Y-128710350D01*
X96380395Y-124392082D02*
X97970788Y-128761653D01*
X96239441Y-124443385D02*
X97812733Y-128765971D01*
X96081386Y-124447704D02*
X97637578Y-128723305D01*
X95906230Y-124405037D02*
X97462422Y-128680639D01*
X95748175Y-124409356D02*
X97270165Y-128590988D01*
X95573019Y-124366689D02*
X97095009Y-128548322D01*
X95397863Y-124324023D02*
X96902752Y-128458671D01*
X95222707Y-124281357D02*
X96727596Y-128416004D01*
X95030450Y-124191706D02*
X96552440Y-128373338D01*
X94838194Y-124102055D02*
X96360183Y-128283687D01*
X94675820Y-123948319D02*
X96095204Y-127848043D01*
X94530548Y-123841567D02*
X95949932Y-127741291D01*
X94368175Y-123687830D02*
X95787558Y-127587555D01*
X94222902Y-123581078D02*
X95659387Y-127527787D01*
X94043428Y-123380357D02*
X95548317Y-127515005D01*
X93898156Y-123273605D02*
X95437246Y-127502222D01*
X93723000Y-123230939D02*
X95279192Y-127506541D01*
X93547844Y-123188273D02*
X95104036Y-127463874D01*
X93389789Y-123192591D02*
X94963082Y-127515177D01*
X93248835Y-123243894D02*
X94822128Y-127566480D01*
X93107881Y-123295197D02*
X94664073Y-127570799D01*
X92966927Y-123346500D02*
X94540220Y-127669086D01*
X92825974Y-123397803D02*
X94399266Y-127720389D01*
X92685020Y-123449106D02*
X94258312Y-127771692D01*
X92544066Y-123500409D02*
X94117358Y-127822995D01*
X92403112Y-123551712D02*
X93976405Y-127874299D01*
X92262158Y-123603015D02*
X93835451Y-127925602D01*
X92121204Y-123654318D02*
X93694497Y-127976905D01*
X91980250Y-123705622D02*
X93553543Y-128028208D01*
X91839296Y-123756925D02*
X93412589Y-128079511D01*
X91698342Y-123808228D02*
X93271635Y-128130814D01*
X91557389Y-123859531D02*
X93130681Y-128182117D01*
X91416435Y-123910834D02*
X92989727Y-128233420D01*
X91275481Y-123962137D02*
X92848773Y-128284723D01*
X91134527Y-124013440D02*
X92707819Y-128336026D01*
X90993573Y-124064743D02*
X92566866Y-128387329D01*
X90852619Y-124116046D02*
X92425912Y-128438632D01*
X90745867Y-124261318D02*
X92250756Y-128395966D01*
X90656216Y-124453575D02*
X92058499Y-128306315D01*
X90566565Y-124645832D02*
X91866242Y-128216664D01*
X90476915Y-124838089D02*
X91673985Y-128127013D01*
X90417147Y-124966260D02*
X91545814Y-128067246D01*
X90357380Y-125094431D02*
X91417643Y-128007478D01*
X90297613Y-125222603D02*
X91289471Y-127947711D01*
D19*
X100494621Y-134760208D02*
X99728496Y-132655297D01*
D12*
X101425332Y-132931608D02*
X100659207Y-130826697D01*
X92766547Y-139169264D02*
X100659966Y-136296294D01*
X92646840Y-138840372D02*
X92766547Y-139169264D01*
D10*
X101581694Y-132981116D02*
X101889512Y-133826838D01*
D12*
X101641461Y-132852944D02*
X101453522Y-132921348D01*
X101983481Y-133792636D02*
X101641461Y-132852944D01*
D16*
X100632674Y-130666086D02*
X98095504Y-131589540D01*
D15*
X92886081Y-138912921D02*
X94201651Y-138434093D01*
D16*
X91919788Y-135965672D02*
X93235358Y-135486844D01*
D12*
X96233737Y-134076270D02*
X91535274Y-135786371D01*
D15*
X92031031Y-136563690D02*
X91791617Y-135905905D01*
D20*
X100359403Y-131084801D02*
X100975039Y-132776247D01*
D12*
X100752209Y-130409743D02*
X97670017Y-131531569D01*
D18*
X93219120Y-138366034D02*
X92364069Y-136016803D01*
D12*
X91877295Y-136726063D02*
X92065233Y-136657659D01*
X92834778Y-138771968D02*
X92646840Y-138840372D01*
X100687397Y-130816436D02*
X100875336Y-130748032D01*
D17*
X94030296Y-136793777D02*
X100326236Y-134502242D01*
D12*
X100752209Y-130409743D02*
X100875336Y-130748032D01*
X91535274Y-135786371D02*
X91877295Y-136726063D01*
X92084027Y-136650819D02*
X92853572Y-138765127D01*
D18*
X98186586Y-131792072D02*
G75*
G02*
X96746423Y-134315339I-2121267J-461902D01*
G01*
D12*
X101983481Y-133792635D02*
G75*
G02*
X100659966Y-136296294I-1913587J-590072D01*
G01*
X97673900Y-131553005D02*
G75*
G02*
X96233737Y-134076270I-2121266J-461901D01*
G01*
X96313199Y-128300788D02*
G75*
G03*
X94807186Y-127598523I-1104139J-401874D01*
G01*
X94290961Y-123586206D02*
G75*
G03*
X96811807Y-124261665I1742750J1462341D01*
G01*
X100258094Y-127955747D02*
G75*
G03*
X100855766Y-126674033I-342021J939693D01*
G01*
X98667700Y-123586175D02*
G75*
G02*
X99949413Y-124183848I342020J-939693D01*
G01*
X93241633Y-123221198D02*
G75*
G02*
X94290960Y-123586207I280558J-884258D01*
G01*
X92875000Y-94685000D02*
X93125000Y-94685000D01*
X92875000Y-100685000D02*
X92875000Y-94685000D01*
X93125000Y-100685000D02*
X92875000Y-100685000D01*
X96375000Y-100685000D02*
X96125000Y-100685000D01*
X96375000Y-94685000D02*
X96375000Y-100685000D01*
X96125000Y-94685000D02*
X96375000Y-94685000D01*
D14*
X177862132Y-73620100D02*
G75*
G03*
X177862132Y-73620100I-212132J0D01*
G01*
X177791421Y-73620100D02*
G75*
G03*
X177791421Y-73620100I-141421J0D01*
G01*
X177700000Y-73620100D02*
G75*
G03*
X177700000Y-73620100I-50000J0D01*
G01*
D12*
X178950000Y-71970100D02*
X178950000Y-72970100D01*
X179050000Y-72470100D02*
X179950000Y-71970100D01*
X179950000Y-71970100D02*
X179950000Y-72970100D01*
X179950000Y-72970100D02*
X179050000Y-72470100D01*
X182150000Y-71720100D02*
X176750000Y-71720100D01*
X176750000Y-71720100D02*
X176750000Y-73220100D01*
X176750000Y-73220100D02*
X182150000Y-73220100D01*
X182150000Y-73220100D02*
X182150000Y-71720100D01*
X182160000Y-70750100D02*
X182160000Y-69250100D01*
X176760000Y-70750100D02*
X182160000Y-70750100D01*
X176760000Y-69250100D02*
X176760000Y-70750100D01*
X182160000Y-69250100D02*
X176760000Y-69250100D01*
X179960000Y-70500100D02*
X179060000Y-70000100D01*
X179960000Y-69500100D02*
X179960000Y-70500100D01*
X179060000Y-70000100D02*
X179960000Y-69500100D01*
X178960000Y-69500100D02*
X178960000Y-70500100D01*
D14*
X177710000Y-71150100D02*
G75*
G03*
X177710000Y-71150100I-50000J0D01*
G01*
X177801421Y-71150100D02*
G75*
G03*
X177801421Y-71150100I-141421J0D01*
G01*
X177872132Y-71150100D02*
G75*
G03*
X177872132Y-71150100I-212132J0D01*
G01*
D12*
X163060000Y-67490100D02*
X163060000Y-65990100D01*
X157660000Y-67490100D02*
X163060000Y-67490100D01*
X157660000Y-65990100D02*
X157660000Y-67490100D01*
X163060000Y-65990100D02*
X157660000Y-65990100D01*
X160860000Y-67240100D02*
X159960000Y-66740100D01*
X160860000Y-66240100D02*
X160860000Y-67240100D01*
X159960000Y-66740100D02*
X160860000Y-66240100D01*
X159860000Y-66240100D02*
X159860000Y-67240100D01*
D14*
X158610000Y-67890100D02*
G75*
G03*
X158610000Y-67890100I-50000J0D01*
G01*
X158701421Y-67890100D02*
G75*
G03*
X158701421Y-67890100I-141421J0D01*
G01*
X158772132Y-67890100D02*
G75*
G03*
X158772132Y-67890100I-212132J0D01*
G01*
X130822132Y-65110100D02*
G75*
G03*
X130822132Y-65110100I-212132J0D01*
G01*
X130751421Y-65110100D02*
G75*
G03*
X130751421Y-65110100I-141421J0D01*
G01*
X130660000Y-65110100D02*
G75*
G03*
X130660000Y-65110100I-50000J0D01*
G01*
D12*
X131910000Y-63460100D02*
X131910000Y-64460100D01*
X132010000Y-63960100D02*
X132910000Y-63460100D01*
X132910000Y-63460100D02*
X132910000Y-64460100D01*
X132910000Y-64460100D02*
X132010000Y-63960100D01*
X135110000Y-63210100D02*
X129710000Y-63210100D01*
X129710000Y-63210100D02*
X129710000Y-64710100D01*
X129710000Y-64710100D02*
X135110000Y-64710100D01*
X135110000Y-64710100D02*
X135110000Y-63210100D01*
X124990000Y-72430100D02*
X124990000Y-70930100D01*
X119590000Y-72430100D02*
X124990000Y-72430100D01*
X119590000Y-70930100D02*
X119590000Y-72430100D01*
X124990000Y-70930100D02*
X119590000Y-70930100D01*
X122790000Y-72180100D02*
X121890000Y-71680100D01*
X122790000Y-71180100D02*
X122790000Y-72180100D01*
X121890000Y-71680100D02*
X122790000Y-71180100D01*
X121790000Y-71180100D02*
X121790000Y-72180100D01*
D14*
X120540000Y-72830100D02*
G75*
G03*
X120540000Y-72830100I-50000J0D01*
G01*
X120631421Y-72830100D02*
G75*
G03*
X120631421Y-72830100I-141421J0D01*
G01*
X120702132Y-72830100D02*
G75*
G03*
X120702132Y-72830100I-212132J0D01*
G01*
D12*
X112490000Y-101360000D02*
X112490000Y-99860000D01*
X107090000Y-101360000D02*
X112490000Y-101360000D01*
X107090000Y-99860000D02*
X107090000Y-101360000D01*
X112490000Y-99860000D02*
X107090000Y-99860000D01*
X110290000Y-101110000D02*
X109390000Y-100610000D01*
X110290000Y-100110000D02*
X110290000Y-101110000D01*
X109390000Y-100610000D02*
X110290000Y-100110000D01*
X109290000Y-100110000D02*
X109290000Y-101110000D01*
D14*
X108040000Y-101760000D02*
G75*
G03*
X108040000Y-101760000I-50000J0D01*
G01*
X108131421Y-101760000D02*
G75*
G03*
X108131421Y-101760000I-141421J0D01*
G01*
X108202132Y-101760000D02*
G75*
G03*
X108202132Y-101760000I-212132J0D01*
G01*
D12*
X201140000Y-96940100D02*
X201140000Y-95440100D01*
X195740000Y-96940100D02*
X201140000Y-96940100D01*
X195740000Y-95440100D02*
X195740000Y-96940100D01*
X201140000Y-95440100D02*
X195740000Y-95440100D01*
X198940000Y-96690100D02*
X198040000Y-96190100D01*
X198940000Y-95690100D02*
X198940000Y-96690100D01*
X198040000Y-96190100D02*
X198940000Y-95690100D01*
X197940000Y-95690100D02*
X197940000Y-96690100D01*
D14*
X196690000Y-97340100D02*
G75*
G03*
X196690000Y-97340100I-50000J0D01*
G01*
X196781421Y-97340100D02*
G75*
G03*
X196781421Y-97340100I-141421J0D01*
G01*
X196852132Y-97340100D02*
G75*
G03*
X196852132Y-97340100I-212132J0D01*
G01*
X177882132Y-90480100D02*
G75*
G03*
X177882132Y-90480100I-212132J0D01*
G01*
X177811421Y-90480100D02*
G75*
G03*
X177811421Y-90480100I-141421J0D01*
G01*
X177720000Y-90480100D02*
G75*
G03*
X177720000Y-90480100I-50000J0D01*
G01*
D12*
X178970000Y-88830100D02*
X178970000Y-89830100D01*
X179070000Y-89330100D02*
X179970000Y-88830100D01*
X179970000Y-88830100D02*
X179970000Y-89830100D01*
X179970000Y-89830100D02*
X179070000Y-89330100D01*
X182170000Y-88580100D02*
X176770000Y-88580100D01*
X176770000Y-88580100D02*
X176770000Y-90080100D01*
X176770000Y-90080100D02*
X182170000Y-90080100D01*
X182170000Y-90080100D02*
X182170000Y-88580100D01*
D14*
X158722132Y-85710100D02*
G75*
G03*
X158722132Y-85710100I-212132J0D01*
G01*
X158651421Y-85710100D02*
G75*
G03*
X158651421Y-85710100I-141421J0D01*
G01*
X158560000Y-85710100D02*
G75*
G03*
X158560000Y-85710100I-50000J0D01*
G01*
D12*
X159810000Y-84060100D02*
X159810000Y-85060100D01*
X159910000Y-84560100D02*
X160810000Y-84060100D01*
X160810000Y-84060100D02*
X160810000Y-85060100D01*
X160810000Y-85060100D02*
X159910000Y-84560100D01*
X163010000Y-83810100D02*
X157610000Y-83810100D01*
X157610000Y-83810100D02*
X157610000Y-85310100D01*
X157610000Y-85310100D02*
X163010000Y-85310100D01*
X163010000Y-85310100D02*
X163010000Y-83810100D01*
X144070000Y-87830100D02*
X144070000Y-86330100D01*
X138670000Y-87830100D02*
X144070000Y-87830100D01*
X138670000Y-86330100D02*
X138670000Y-87830100D01*
X144070000Y-86330100D02*
X138670000Y-86330100D01*
X141870000Y-87580100D02*
X140970000Y-87080100D01*
X141870000Y-86580100D02*
X141870000Y-87580100D01*
X140970000Y-87080100D02*
X141870000Y-86580100D01*
X140870000Y-86580100D02*
X140870000Y-87580100D01*
D14*
X139620000Y-88230100D02*
G75*
G03*
X139620000Y-88230100I-50000J0D01*
G01*
X139711421Y-88230100D02*
G75*
G03*
X139711421Y-88230100I-141421J0D01*
G01*
X139782132Y-88230100D02*
G75*
G03*
X139782132Y-88230100I-212132J0D01*
G01*
D12*
X124890000Y-90170100D02*
X124890000Y-88670100D01*
X119490000Y-90170100D02*
X124890000Y-90170100D01*
X119490000Y-88670100D02*
X119490000Y-90170100D01*
X124890000Y-88670100D02*
X119490000Y-88670100D01*
X122690000Y-89920100D02*
X121790000Y-89420100D01*
X122690000Y-88920100D02*
X122690000Y-89920100D01*
X121790000Y-89420100D02*
X122690000Y-88920100D01*
X121690000Y-88920100D02*
X121690000Y-89920100D01*
D14*
X120440000Y-90570100D02*
G75*
G03*
X120440000Y-90570100I-50000J0D01*
G01*
X120531421Y-90570100D02*
G75*
G03*
X120531421Y-90570100I-141421J0D01*
G01*
X120602132Y-90570100D02*
G75*
G03*
X120602132Y-90570100I-212132J0D01*
G01*
X108202132Y-104210000D02*
G75*
G03*
X108202132Y-104210000I-212132J0D01*
G01*
X108131421Y-104210000D02*
G75*
G03*
X108131421Y-104210000I-141421J0D01*
G01*
X108040000Y-104210000D02*
G75*
G03*
X108040000Y-104210000I-50000J0D01*
G01*
D12*
X109290000Y-102560000D02*
X109290000Y-103560000D01*
X109390000Y-103060000D02*
X110290000Y-102560000D01*
X110290000Y-102560000D02*
X110290000Y-103560000D01*
X110290000Y-103560000D02*
X109390000Y-103060000D01*
X112490000Y-102310000D02*
X107090000Y-102310000D01*
X107090000Y-102310000D02*
X107090000Y-103810000D01*
X107090000Y-103810000D02*
X112490000Y-103810000D01*
X112490000Y-103810000D02*
X112490000Y-102310000D01*
D14*
X196832132Y-99720100D02*
G75*
G03*
X196832132Y-99720100I-212132J0D01*
G01*
X196761421Y-99720100D02*
G75*
G03*
X196761421Y-99720100I-141421J0D01*
G01*
X196670000Y-99720100D02*
G75*
G03*
X196670000Y-99720100I-50000J0D01*
G01*
D12*
X197920000Y-98070100D02*
X197920000Y-99070100D01*
X198020000Y-98570100D02*
X198920000Y-98070100D01*
X198920000Y-98070100D02*
X198920000Y-99070100D01*
X198920000Y-99070100D02*
X198020000Y-98570100D01*
X201120000Y-97820100D02*
X195720000Y-97820100D01*
X195720000Y-97820100D02*
X195720000Y-99320100D01*
X195720000Y-99320100D02*
X201120000Y-99320100D01*
X201120000Y-99320100D02*
X201120000Y-97820100D01*
X182180000Y-92470100D02*
X182180000Y-90970100D01*
X176780000Y-92470100D02*
X182180000Y-92470100D01*
X176780000Y-90970100D02*
X176780000Y-92470100D01*
X182180000Y-90970100D02*
X176780000Y-90970100D01*
X179980000Y-92220100D02*
X179080000Y-91720100D01*
X179980000Y-91220100D02*
X179980000Y-92220100D01*
X179080000Y-91720100D02*
X179980000Y-91220100D01*
X178980000Y-91220100D02*
X178980000Y-92220100D01*
D14*
X177730000Y-92870100D02*
G75*
G03*
X177730000Y-92870100I-50000J0D01*
G01*
X177821421Y-92870100D02*
G75*
G03*
X177821421Y-92870100I-141421J0D01*
G01*
X177892132Y-92870100D02*
G75*
G03*
X177892132Y-92870100I-212132J0D01*
G01*
D12*
X162980000Y-87690100D02*
X162980000Y-86190100D01*
X157580000Y-87690100D02*
X162980000Y-87690100D01*
X157580000Y-86190100D02*
X157580000Y-87690100D01*
X162980000Y-86190100D02*
X157580000Y-86190100D01*
X160780000Y-87440100D02*
X159880000Y-86940100D01*
X160780000Y-86440100D02*
X160780000Y-87440100D01*
X159880000Y-86940100D02*
X160780000Y-86440100D01*
X159780000Y-86440100D02*
X159780000Y-87440100D01*
D14*
X158530000Y-88090100D02*
G75*
G03*
X158530000Y-88090100I-50000J0D01*
G01*
X158621421Y-88090100D02*
G75*
G03*
X158621421Y-88090100I-141421J0D01*
G01*
X158692132Y-88090100D02*
G75*
G03*
X158692132Y-88090100I-212132J0D01*
G01*
X139732132Y-90600100D02*
G75*
G03*
X139732132Y-90600100I-212132J0D01*
G01*
X139661421Y-90600100D02*
G75*
G03*
X139661421Y-90600100I-141421J0D01*
G01*
X139570000Y-90600100D02*
G75*
G03*
X139570000Y-90600100I-50000J0D01*
G01*
D12*
X140820000Y-88950100D02*
X140820000Y-89950100D01*
X140920000Y-89450100D02*
X141820000Y-88950100D01*
X141820000Y-88950100D02*
X141820000Y-89950100D01*
X141820000Y-89950100D02*
X140920000Y-89450100D01*
X144020000Y-88700100D02*
X138620000Y-88700100D01*
X138620000Y-88700100D02*
X138620000Y-90200100D01*
X138620000Y-90200100D02*
X144020000Y-90200100D01*
X144020000Y-90200100D02*
X144020000Y-88700100D01*
D14*
X120622132Y-92980100D02*
G75*
G03*
X120622132Y-92980100I-212132J0D01*
G01*
X120551421Y-92980100D02*
G75*
G03*
X120551421Y-92980100I-141421J0D01*
G01*
X120460000Y-92980100D02*
G75*
G03*
X120460000Y-92980100I-50000J0D01*
G01*
D12*
X121710000Y-91330100D02*
X121710000Y-92330100D01*
X121810000Y-91830100D02*
X122710000Y-91330100D01*
X122710000Y-91330100D02*
X122710000Y-92330100D01*
X122710000Y-92330100D02*
X121810000Y-91830100D01*
X124910000Y-91080100D02*
X119510000Y-91080100D01*
X119510000Y-91080100D02*
X119510000Y-92580100D01*
X119510000Y-92580100D02*
X124910000Y-92580100D01*
X124910000Y-92580100D02*
X124910000Y-91080100D01*
D14*
X101802132Y-101830000D02*
G75*
G03*
X101802132Y-101830000I-212132J0D01*
G01*
X101731421Y-101830000D02*
G75*
G03*
X101731421Y-101830000I-141421J0D01*
G01*
X101640000Y-101830000D02*
G75*
G03*
X101640000Y-101830000I-50000J0D01*
G01*
D12*
X102890000Y-100180000D02*
X102890000Y-101180000D01*
X102990000Y-100680000D02*
X103890000Y-100180000D01*
X103890000Y-100180000D02*
X103890000Y-101180000D01*
X103890000Y-101180000D02*
X102990000Y-100680000D01*
X106090000Y-99930000D02*
X100690000Y-99930000D01*
X100690000Y-99930000D02*
X100690000Y-101430000D01*
X100690000Y-101430000D02*
X106090000Y-101430000D01*
X106090000Y-101430000D02*
X106090000Y-99930000D01*
X182150000Y-109010000D02*
X182150000Y-107510000D01*
X176750000Y-109010000D02*
X182150000Y-109010000D01*
X176750000Y-107510000D02*
X176750000Y-109010000D01*
X182150000Y-107510000D02*
X176750000Y-107510000D01*
X179950000Y-108760000D02*
X179050000Y-108260000D01*
X179950000Y-107760000D02*
X179950000Y-108760000D01*
X179050000Y-108260000D02*
X179950000Y-107760000D01*
X178950000Y-107760000D02*
X178950000Y-108760000D01*
D14*
X177700000Y-109410000D02*
G75*
G03*
X177700000Y-109410000I-50000J0D01*
G01*
X177791421Y-109410000D02*
G75*
G03*
X177791421Y-109410000I-141421J0D01*
G01*
X177862132Y-109410000D02*
G75*
G03*
X177862132Y-109410000I-212132J0D01*
G01*
X177872132Y-111750000D02*
G75*
G03*
X177872132Y-111750000I-212132J0D01*
G01*
X177801421Y-111750000D02*
G75*
G03*
X177801421Y-111750000I-141421J0D01*
G01*
X177710000Y-111750000D02*
G75*
G03*
X177710000Y-111750000I-50000J0D01*
G01*
D12*
X178960000Y-110100000D02*
X178960000Y-111100000D01*
X179060000Y-110600000D02*
X179960000Y-110100000D01*
X179960000Y-110100000D02*
X179960000Y-111100000D01*
X179960000Y-111100000D02*
X179060000Y-110600000D01*
X182160000Y-109850000D02*
X176760000Y-109850000D01*
X176760000Y-109850000D02*
X176760000Y-111350000D01*
X176760000Y-111350000D02*
X182160000Y-111350000D01*
X182160000Y-111350000D02*
X182160000Y-109850000D01*
D14*
X170122132Y-109850000D02*
G75*
G03*
X170122132Y-109850000I-212132J0D01*
G01*
X170051421Y-109850000D02*
G75*
G03*
X170051421Y-109850000I-141421J0D01*
G01*
X169960000Y-109850000D02*
G75*
G03*
X169960000Y-109850000I-50000J0D01*
G01*
D12*
X171210000Y-108200000D02*
X171210000Y-109200000D01*
X171310000Y-108700000D02*
X172210000Y-108200000D01*
X172210000Y-108200000D02*
X172210000Y-109200000D01*
X172210000Y-109200000D02*
X171310000Y-108700000D01*
X174410000Y-107950000D02*
X169010000Y-107950000D01*
X169010000Y-107950000D02*
X169010000Y-109450000D01*
X169010000Y-109450000D02*
X174410000Y-109450000D01*
X174410000Y-109450000D02*
X174410000Y-107950000D01*
X144540000Y-115460000D02*
X144540000Y-113960000D01*
X139140000Y-115460000D02*
X144540000Y-115460000D01*
X139140000Y-113960000D02*
X139140000Y-115460000D01*
X144540000Y-113960000D02*
X139140000Y-113960000D01*
X142340000Y-115210000D02*
X141440000Y-114710000D01*
X142340000Y-114210000D02*
X142340000Y-115210000D01*
X141440000Y-114710000D02*
X142340000Y-114210000D01*
X141340000Y-114210000D02*
X141340000Y-115210000D01*
D14*
X140090000Y-115860000D02*
G75*
G03*
X140090000Y-115860000I-50000J0D01*
G01*
X140181421Y-115860000D02*
G75*
G03*
X140181421Y-115860000I-141421J0D01*
G01*
X140252132Y-115860000D02*
G75*
G03*
X140252132Y-115860000I-212132J0D01*
G01*
X132332132Y-115850000D02*
G75*
G03*
X132332132Y-115850000I-212132J0D01*
G01*
X132261421Y-115850000D02*
G75*
G03*
X132261421Y-115850000I-141421J0D01*
G01*
X132170000Y-115850000D02*
G75*
G03*
X132170000Y-115850000I-50000J0D01*
G01*
D12*
X133420000Y-114200000D02*
X133420000Y-115200000D01*
X133520000Y-114700000D02*
X134420000Y-114200000D01*
X134420000Y-114200000D02*
X134420000Y-115200000D01*
X134420000Y-115200000D02*
X133520000Y-114700000D01*
X136620000Y-113950000D02*
X131220000Y-113950000D01*
X131220000Y-113950000D02*
X131220000Y-115450000D01*
X131220000Y-115450000D02*
X136620000Y-115450000D01*
X136620000Y-115450000D02*
X136620000Y-113950000D01*
X110360000Y-117440000D02*
X110360000Y-115940000D01*
X104960000Y-117440000D02*
X110360000Y-117440000D01*
X104960000Y-115940000D02*
X104960000Y-117440000D01*
X110360000Y-115940000D02*
X104960000Y-115940000D01*
X108160000Y-117190000D02*
X107260000Y-116690000D01*
X108160000Y-116190000D02*
X108160000Y-117190000D01*
X107260000Y-116690000D02*
X108160000Y-116190000D01*
X107160000Y-116190000D02*
X107160000Y-117190000D01*
D14*
X105910000Y-117840000D02*
G75*
G03*
X105910000Y-117840000I-50000J0D01*
G01*
X106001421Y-117840000D02*
G75*
G03*
X106001421Y-117840000I-141421J0D01*
G01*
X106072132Y-117840000D02*
G75*
G03*
X106072132Y-117840000I-212132J0D01*
G01*
D15*
X164760000Y-110480000D02*
X164760000Y-111180000D01*
X164760000Y-107980000D02*
X163360000Y-107980000D01*
D16*
X154660000Y-113080000D02*
X157360000Y-113080000D01*
D12*
X164960000Y-108130000D02*
X164960000Y-107780000D01*
X164960000Y-107780000D02*
X156559999Y-107780000D01*
X159960000Y-111380000D02*
X164960000Y-111380000D01*
X154460000Y-113280000D02*
X157740000Y-113280000D01*
X154460000Y-109680000D02*
X154460000Y-110680000D01*
X154460000Y-113280000D02*
X154460000Y-112920000D01*
X154660000Y-112920000D02*
X154460000Y-112920000D01*
X154690000Y-110680000D02*
X154690000Y-112920000D01*
X154460000Y-110680000D02*
X154660000Y-110680000D01*
X164760000Y-108130000D02*
X164960000Y-108130000D01*
X164740000Y-110380000D02*
X164740000Y-108130000D01*
X164960000Y-110380000D02*
X164760000Y-110380000D01*
X164960000Y-111380000D02*
X164960000Y-110380000D01*
D17*
X162960000Y-109580000D02*
X156260000Y-109580000D01*
D18*
X164260000Y-108380000D02*
X164260000Y-110880000D01*
D16*
X164660000Y-111080000D02*
X163260000Y-111080000D01*
D19*
X156190000Y-109280000D02*
X156190000Y-111520000D01*
D20*
X155060000Y-112780000D02*
X155060000Y-110980001D01*
D10*
X154560000Y-110579999D02*
X154560000Y-109680000D01*
D18*
X157343682Y-112858529D02*
G75*
G02*
X159560000Y-110980000I2151318J-291471D01*
G01*
D12*
X154460000Y-109680001D02*
G75*
G02*
X156559999Y-107780000I2000000J-99999D01*
G01*
X157743682Y-113258529D02*
G75*
G02*
X159960000Y-111380000I2151318J-291471D01*
G01*
D14*
X118360000Y-65280100D02*
X126160000Y-65280100D01*
X126160000Y-68980100D02*
X118360000Y-68980100D01*
X124260000Y-68530100D02*
X124260000Y-68630100D01*
X127142843Y-67930100D02*
G75*
G03*
X127142843Y-67930100I-282843J0D01*
G01*
X127001421Y-67930100D02*
G75*
G03*
X127001421Y-67930100I-141421J0D01*
G01*
X126860000Y-67930100D02*
X126860000Y-68030100D01*
X124260000Y-68730100D02*
X124260000Y-68630100D01*
X126960000Y-67930100D02*
G75*
G03*
X126960000Y-67930100I-100000J0D01*
G01*
X124260000Y-68530100D02*
X124260000Y-68430100D01*
X126160000Y-68630100D02*
X126160000Y-67030100D01*
X126060000Y-67130100D02*
X126060000Y-68530100D01*
X124260000Y-67230100D02*
X124260000Y-67130100D01*
X126160000Y-67030100D02*
X124260000Y-67030100D01*
X124260000Y-68630100D02*
X126160000Y-68630100D01*
X124260000Y-67030100D02*
X124260000Y-67130100D01*
X125960000Y-68430100D02*
X125960000Y-67230100D01*
X124260000Y-68430100D02*
X125960000Y-68430100D01*
X127083607Y-67930100D02*
G75*
G03*
X127083607Y-67930100I-223607J0D01*
G01*
X125960000Y-67130100D02*
X125960000Y-67030100D01*
X125960000Y-67030100D02*
X126260000Y-67030100D01*
X126860000Y-68030100D02*
X126860000Y-68130100D01*
X126260000Y-67030100D02*
X126260000Y-68730100D01*
X124260000Y-67130100D02*
X125960000Y-67130100D01*
X126060000Y-68530100D02*
X124260000Y-68530100D01*
X124260000Y-67130100D02*
X126060000Y-67130100D01*
X125960000Y-67230100D02*
X124260000Y-67230100D01*
X126260000Y-68730100D02*
X124260000Y-68730100D01*
X126260000Y-87780100D02*
X124260000Y-87780100D01*
X125960000Y-86280100D02*
X124260000Y-86280100D01*
X124260000Y-86180100D02*
X126060000Y-86180100D01*
X126060000Y-87580100D02*
X124260000Y-87580100D01*
X124260000Y-86180100D02*
X125960000Y-86180100D01*
X126260000Y-86080100D02*
X126260000Y-87780100D01*
X126860000Y-87080100D02*
X126860000Y-87180100D01*
X125960000Y-86080100D02*
X126260000Y-86080100D01*
X125960000Y-86180100D02*
X125960000Y-86080100D01*
X127083607Y-86980100D02*
G75*
G03*
X127083607Y-86980100I-223607J0D01*
G01*
X124260000Y-87480100D02*
X125960000Y-87480100D01*
X125960000Y-87480100D02*
X125960000Y-86280100D01*
X124260000Y-86080100D02*
X124260000Y-86180100D01*
X124260000Y-87680100D02*
X126160000Y-87680100D01*
X126160000Y-86080100D02*
X124260000Y-86080100D01*
X124260000Y-86280100D02*
X124260000Y-86180100D01*
X126060000Y-86180100D02*
X126060000Y-87580100D01*
X126160000Y-87680100D02*
X126160000Y-86080100D01*
X124260000Y-87580100D02*
X124260000Y-87480100D01*
X126960000Y-86980100D02*
G75*
G03*
X126960000Y-86980100I-100000J0D01*
G01*
X124260000Y-87780100D02*
X124260000Y-87680100D01*
X126860000Y-86980100D02*
X126860000Y-87080100D01*
X127001421Y-86980100D02*
G75*
G03*
X127001421Y-86980100I-141421J0D01*
G01*
X127142843Y-86980100D02*
G75*
G03*
X127142843Y-86980100I-282843J0D01*
G01*
X124260000Y-87580100D02*
X124260000Y-87680100D01*
X126160000Y-88030100D02*
X118360000Y-88030100D01*
X118360000Y-84330100D02*
X126160000Y-84330100D01*
X118360000Y-103380000D02*
X126160000Y-103380000D01*
X126160000Y-107080000D02*
X118360000Y-107080000D01*
X124260000Y-106630000D02*
X124260000Y-106730000D01*
X127142843Y-106030000D02*
G75*
G03*
X127142843Y-106030000I-282843J0D01*
G01*
X127001421Y-106030000D02*
G75*
G03*
X127001421Y-106030000I-141421J0D01*
G01*
X126860000Y-106030000D02*
X126860000Y-106130000D01*
X124260000Y-106830000D02*
X124260000Y-106730000D01*
X126960000Y-106030000D02*
G75*
G03*
X126960000Y-106030000I-100000J0D01*
G01*
X124260000Y-106630000D02*
X124260000Y-106530000D01*
X126160000Y-106730000D02*
X126160000Y-105130000D01*
X126060000Y-105230000D02*
X126060000Y-106630000D01*
X124260000Y-105330000D02*
X124260000Y-105230000D01*
X126160000Y-105130000D02*
X124260000Y-105130000D01*
X124260000Y-106730000D02*
X126160000Y-106730000D01*
X124260000Y-105130000D02*
X124260000Y-105230000D01*
X125960000Y-106530000D02*
X125960000Y-105330000D01*
X124260000Y-106530000D02*
X125960000Y-106530000D01*
X127083607Y-106030000D02*
G75*
G03*
X127083607Y-106030000I-223607J0D01*
G01*
X125960000Y-105230000D02*
X125960000Y-105130000D01*
X125960000Y-105130000D02*
X126260000Y-105130000D01*
X126860000Y-106130000D02*
X126860000Y-106230000D01*
X126260000Y-105130000D02*
X126260000Y-106830000D01*
X124260000Y-105230000D02*
X125960000Y-105230000D01*
X126060000Y-106630000D02*
X124260000Y-106630000D01*
X124260000Y-105230000D02*
X126060000Y-105230000D01*
X125960000Y-105330000D02*
X124260000Y-105330000D01*
X126260000Y-106830000D02*
X124260000Y-106830000D01*
X145310000Y-66230100D02*
X143310000Y-66230100D01*
X145010000Y-64730100D02*
X143310000Y-64730100D01*
X143310000Y-64630100D02*
X145110000Y-64630100D01*
X145110000Y-66030100D02*
X143310000Y-66030100D01*
X143310000Y-64630100D02*
X145010000Y-64630100D01*
X145310000Y-64530100D02*
X145310000Y-66230100D01*
X145910000Y-65530100D02*
X145910000Y-65630100D01*
X145010000Y-64530100D02*
X145310000Y-64530100D01*
X145010000Y-64630100D02*
X145010000Y-64530100D01*
X146133607Y-65430100D02*
G75*
G03*
X146133607Y-65430100I-223607J0D01*
G01*
X143310000Y-65930100D02*
X145010000Y-65930100D01*
X145010000Y-65930100D02*
X145010000Y-64730100D01*
X143310000Y-64530100D02*
X143310000Y-64630100D01*
X143310000Y-66130100D02*
X145210000Y-66130100D01*
X145210000Y-64530100D02*
X143310000Y-64530100D01*
X143310000Y-64730100D02*
X143310000Y-64630100D01*
X145110000Y-64630100D02*
X145110000Y-66030100D01*
X145210000Y-66130100D02*
X145210000Y-64530100D01*
X143310000Y-66030100D02*
X143310000Y-65930100D01*
X146010000Y-65430100D02*
G75*
G03*
X146010000Y-65430100I-100000J0D01*
G01*
X143310000Y-66230100D02*
X143310000Y-66130100D01*
X145910000Y-65430100D02*
X145910000Y-65530100D01*
X146051421Y-65430100D02*
G75*
G03*
X146051421Y-65430100I-141421J0D01*
G01*
X146192843Y-65430100D02*
G75*
G03*
X146192843Y-65430100I-282843J0D01*
G01*
X143310000Y-66030100D02*
X143310000Y-66130100D01*
X145210000Y-66480100D02*
X137410000Y-66480100D01*
X137410000Y-62780100D02*
X145210000Y-62780100D01*
X137410000Y-81830100D02*
X145210000Y-81830100D01*
X145210000Y-85530100D02*
X137410000Y-85530100D01*
X143310000Y-85080100D02*
X143310000Y-85180100D01*
X146192843Y-84480100D02*
G75*
G03*
X146192843Y-84480100I-282843J0D01*
G01*
X146051421Y-84480100D02*
G75*
G03*
X146051421Y-84480100I-141421J0D01*
G01*
X145910000Y-84480100D02*
X145910000Y-84580100D01*
X143310000Y-85280100D02*
X143310000Y-85180100D01*
X146010000Y-84480100D02*
G75*
G03*
X146010000Y-84480100I-100000J0D01*
G01*
X143310000Y-85080100D02*
X143310000Y-84980100D01*
X145210000Y-85180100D02*
X145210000Y-83580100D01*
X145110000Y-83680100D02*
X145110000Y-85080100D01*
X143310000Y-83780100D02*
X143310000Y-83680100D01*
X145210000Y-83580100D02*
X143310000Y-83580100D01*
X143310000Y-85180100D02*
X145210000Y-85180100D01*
X143310000Y-83580100D02*
X143310000Y-83680100D01*
X145010000Y-84980100D02*
X145010000Y-83780100D01*
X143310000Y-84980100D02*
X145010000Y-84980100D01*
X146133607Y-84480100D02*
G75*
G03*
X146133607Y-84480100I-223607J0D01*
G01*
X145010000Y-83680100D02*
X145010000Y-83580100D01*
X145010000Y-83580100D02*
X145310000Y-83580100D01*
X145910000Y-84580100D02*
X145910000Y-84680100D01*
X145310000Y-83580100D02*
X145310000Y-85280100D01*
X143310000Y-83680100D02*
X145010000Y-83680100D01*
X145110000Y-85080100D02*
X143310000Y-85080100D01*
X143310000Y-83680100D02*
X145110000Y-83680100D01*
X145010000Y-83780100D02*
X143310000Y-83780100D01*
X145310000Y-85280100D02*
X143310000Y-85280100D01*
X145310000Y-104330000D02*
X143310000Y-104330000D01*
X145010000Y-102830000D02*
X143310000Y-102830000D01*
X143310000Y-102730000D02*
X145110000Y-102730000D01*
X145110000Y-104130000D02*
X143310000Y-104130000D01*
X143310000Y-102730000D02*
X145010000Y-102730000D01*
X145310000Y-102630000D02*
X145310000Y-104330000D01*
X145910000Y-103630000D02*
X145910000Y-103730000D01*
X145010000Y-102630000D02*
X145310000Y-102630000D01*
X145010000Y-102730000D02*
X145010000Y-102630000D01*
X146133607Y-103530000D02*
G75*
G03*
X146133607Y-103530000I-223607J0D01*
G01*
X143310000Y-104030000D02*
X145010000Y-104030000D01*
X145010000Y-104030000D02*
X145010000Y-102830000D01*
X143310000Y-102630000D02*
X143310000Y-102730000D01*
X143310000Y-104230000D02*
X145210000Y-104230000D01*
X145210000Y-102630000D02*
X143310000Y-102630000D01*
X143310000Y-102830000D02*
X143310000Y-102730000D01*
X145110000Y-102730000D02*
X145110000Y-104130000D01*
X145210000Y-104230000D02*
X145210000Y-102630000D01*
X143310000Y-104130000D02*
X143310000Y-104030000D01*
X146010000Y-103530000D02*
G75*
G03*
X146010000Y-103530000I-100000J0D01*
G01*
X143310000Y-104330000D02*
X143310000Y-104230000D01*
X145910000Y-103530000D02*
X145910000Y-103630000D01*
X146051421Y-103530000D02*
G75*
G03*
X146051421Y-103530000I-141421J0D01*
G01*
X146192843Y-103530000D02*
G75*
G03*
X146192843Y-103530000I-282843J0D01*
G01*
X143310000Y-104130000D02*
X143310000Y-104230000D01*
X145210000Y-104580000D02*
X137410000Y-104580000D01*
X137410000Y-100880000D02*
X145210000Y-100880000D01*
X145310000Y-67150100D02*
X143310000Y-67150100D01*
X145010000Y-68650100D02*
X143310000Y-68650100D01*
X143310000Y-68750100D02*
X145110000Y-68750100D01*
X145110000Y-67350100D02*
X143310000Y-67350100D01*
X143310000Y-68750100D02*
X145010000Y-68750100D01*
X145310000Y-68850100D02*
X145310000Y-67150100D01*
X145910000Y-67850100D02*
X145910000Y-67750100D01*
X145010000Y-68850100D02*
X145310000Y-68850100D01*
X145010000Y-68750100D02*
X145010000Y-68850100D01*
X146133607Y-67950100D02*
G75*
G03*
X146133607Y-67950100I-223607J0D01*
G01*
X143310000Y-67450100D02*
X145010000Y-67450100D01*
X145010000Y-67450100D02*
X145010000Y-68650100D01*
X143310000Y-68850100D02*
X143310000Y-68750100D01*
X143310000Y-67250100D02*
X145210000Y-67250100D01*
X145210000Y-68850100D02*
X143310000Y-68850100D01*
X143310000Y-68650100D02*
X143310000Y-68750100D01*
X145110000Y-68750100D02*
X145110000Y-67350100D01*
X145210000Y-67250100D02*
X145210000Y-68850100D01*
X143310000Y-67350100D02*
X143310000Y-67450100D01*
X146010000Y-67950100D02*
G75*
G03*
X146010000Y-67950100I-100000J0D01*
G01*
X143310000Y-67150100D02*
X143310000Y-67250100D01*
X145910000Y-67950100D02*
X145910000Y-67850100D01*
X146051421Y-67950100D02*
G75*
G03*
X146051421Y-67950100I-141421J0D01*
G01*
X146192843Y-67950100D02*
G75*
G03*
X146192843Y-67950100I-282843J0D01*
G01*
X143310000Y-67350100D02*
X143310000Y-67250100D01*
X145210000Y-70600100D02*
X137410000Y-70600100D01*
X137410000Y-66900100D02*
X145210000Y-66900100D01*
X194570000Y-76020100D02*
X202370000Y-76020100D01*
X202370000Y-79720100D02*
X194570000Y-79720100D01*
X200470000Y-76470100D02*
X200470000Y-76370100D01*
X203352843Y-77070100D02*
G75*
G03*
X203352843Y-77070100I-282843J0D01*
G01*
X203211421Y-77070100D02*
G75*
G03*
X203211421Y-77070100I-141421J0D01*
G01*
X203070000Y-77070100D02*
X203070000Y-76970100D01*
X200470000Y-76270100D02*
X200470000Y-76370100D01*
X203170000Y-77070100D02*
G75*
G03*
X203170000Y-77070100I-100000J0D01*
G01*
X200470000Y-76470100D02*
X200470000Y-76570100D01*
X202370000Y-76370100D02*
X202370000Y-77970100D01*
X202270000Y-77870100D02*
X202270000Y-76470100D01*
X200470000Y-77770100D02*
X200470000Y-77870100D01*
X202370000Y-77970100D02*
X200470000Y-77970100D01*
X200470000Y-76370100D02*
X202370000Y-76370100D01*
X200470000Y-77970100D02*
X200470000Y-77870100D01*
X202170000Y-76570100D02*
X202170000Y-77770100D01*
X200470000Y-76570100D02*
X202170000Y-76570100D01*
X203293607Y-77070100D02*
G75*
G03*
X203293607Y-77070100I-223607J0D01*
G01*
X202170000Y-77870100D02*
X202170000Y-77970100D01*
X202170000Y-77970100D02*
X202470000Y-77970100D01*
X203070000Y-76970100D02*
X203070000Y-76870100D01*
X202470000Y-77970100D02*
X202470000Y-76270100D01*
X200470000Y-77870100D02*
X202170000Y-77870100D01*
X202270000Y-76470100D02*
X200470000Y-76470100D01*
X200470000Y-77870100D02*
X202270000Y-77870100D01*
X202170000Y-77770100D02*
X200470000Y-77770100D01*
X202470000Y-76270100D02*
X200470000Y-76270100D01*
X202450000Y-114370000D02*
X200450000Y-114370000D01*
X202150000Y-115870000D02*
X200450000Y-115870000D01*
X200450000Y-115970000D02*
X202250000Y-115970000D01*
X202250000Y-114570000D02*
X200450000Y-114570000D01*
X200450000Y-115970000D02*
X202150000Y-115970000D01*
X202450000Y-116070000D02*
X202450000Y-114370000D01*
X203050000Y-115070000D02*
X203050000Y-114970000D01*
X202150000Y-116070000D02*
X202450000Y-116070000D01*
X202150000Y-115970000D02*
X202150000Y-116070000D01*
X203273607Y-115170000D02*
G75*
G03*
X203273607Y-115170000I-223607J0D01*
G01*
X200450000Y-114670000D02*
X202150000Y-114670000D01*
X202150000Y-114670000D02*
X202150000Y-115870000D01*
X200450000Y-116070000D02*
X200450000Y-115970000D01*
X200450000Y-114470000D02*
X202350000Y-114470000D01*
X202350000Y-116070000D02*
X200450000Y-116070000D01*
X200450000Y-115870000D02*
X200450000Y-115970000D01*
X202250000Y-115970000D02*
X202250000Y-114570000D01*
X202350000Y-114470000D02*
X202350000Y-116070000D01*
X200450000Y-114570000D02*
X200450000Y-114670000D01*
X203150000Y-115170000D02*
G75*
G03*
X203150000Y-115170000I-100000J0D01*
G01*
X200450000Y-114370000D02*
X200450000Y-114470000D01*
X203050000Y-115170000D02*
X203050000Y-115070000D01*
X203191421Y-115170000D02*
G75*
G03*
X203191421Y-115170000I-141421J0D01*
G01*
X203332843Y-115170000D02*
G75*
G03*
X203332843Y-115170000I-282843J0D01*
G01*
X200450000Y-114570000D02*
X200450000Y-114470000D01*
X202350000Y-117820000D02*
X194550000Y-117820000D01*
X194550000Y-114120000D02*
X202350000Y-114120000D01*
X156460000Y-102470000D02*
X164260000Y-102470000D01*
X164260000Y-106170000D02*
X156460000Y-106170000D01*
X162360000Y-102920000D02*
X162360000Y-102820000D01*
X165242843Y-103520000D02*
G75*
G03*
X165242843Y-103520000I-282843J0D01*
G01*
X165101421Y-103520000D02*
G75*
G03*
X165101421Y-103520000I-141421J0D01*
G01*
X164960000Y-103520000D02*
X164960000Y-103420000D01*
X162360000Y-102720000D02*
X162360000Y-102820000D01*
X165060000Y-103520000D02*
G75*
G03*
X165060000Y-103520000I-100000J0D01*
G01*
X162360000Y-102920000D02*
X162360000Y-103020000D01*
X164260000Y-102820000D02*
X164260000Y-104420000D01*
X164160000Y-104320000D02*
X164160000Y-102920000D01*
X162360000Y-104220000D02*
X162360000Y-104320000D01*
X164260000Y-104420000D02*
X162360000Y-104420000D01*
X162360000Y-102820000D02*
X164260000Y-102820000D01*
X162360000Y-104420000D02*
X162360000Y-104320000D01*
X164060000Y-103020000D02*
X164060000Y-104220000D01*
X162360000Y-103020000D02*
X164060000Y-103020000D01*
X165183607Y-103520000D02*
G75*
G03*
X165183607Y-103520000I-223607J0D01*
G01*
X164060000Y-104320000D02*
X164060000Y-104420000D01*
X164060000Y-104420000D02*
X164360000Y-104420000D01*
X164960000Y-103420000D02*
X164960000Y-103320000D01*
X164360000Y-104420000D02*
X164360000Y-102720000D01*
X162360000Y-104320000D02*
X164060000Y-104320000D01*
X164160000Y-102920000D02*
X162360000Y-102920000D01*
X162360000Y-104320000D02*
X164160000Y-104320000D01*
X164060000Y-104220000D02*
X162360000Y-104220000D01*
X164360000Y-102720000D02*
X162360000Y-102720000D01*
X121880000Y-114110000D02*
X129680000Y-114110000D01*
X129680000Y-117810000D02*
X121880000Y-117810000D01*
X127780000Y-114560000D02*
X127780000Y-114460000D01*
X130662843Y-115160000D02*
G75*
G03*
X130662843Y-115160000I-282843J0D01*
G01*
X130521421Y-115160000D02*
G75*
G03*
X130521421Y-115160000I-141421J0D01*
G01*
X130380000Y-115160000D02*
X130380000Y-115060000D01*
X127780000Y-114360000D02*
X127780000Y-114460000D01*
X130480000Y-115160000D02*
G75*
G03*
X130480000Y-115160000I-100000J0D01*
G01*
X127780000Y-114560000D02*
X127780000Y-114660000D01*
X129680000Y-114460000D02*
X129680000Y-116060000D01*
X129580000Y-115960000D02*
X129580000Y-114560000D01*
X127780000Y-115860000D02*
X127780000Y-115960000D01*
X129680000Y-116060000D02*
X127780000Y-116060000D01*
X127780000Y-114460000D02*
X129680000Y-114460000D01*
X127780000Y-116060000D02*
X127780000Y-115960000D01*
X129480000Y-114660000D02*
X129480000Y-115860000D01*
X127780000Y-114660000D02*
X129480000Y-114660000D01*
X130603607Y-115160000D02*
G75*
G03*
X130603607Y-115160000I-223607J0D01*
G01*
X129480000Y-115960000D02*
X129480000Y-116060000D01*
X129480000Y-116060000D02*
X129780000Y-116060000D01*
X130380000Y-115060000D02*
X130380000Y-114960000D01*
X129780000Y-116060000D02*
X129780000Y-114360000D01*
X127780000Y-115960000D02*
X129480000Y-115960000D01*
X129580000Y-114560000D02*
X127780000Y-114560000D01*
X127780000Y-115960000D02*
X129580000Y-115960000D01*
X129480000Y-115860000D02*
X127780000Y-115860000D01*
X129780000Y-114360000D02*
X127780000Y-114360000D01*
X106190000Y-118700000D02*
X104190000Y-118700000D01*
X105890000Y-120200000D02*
X104190000Y-120200000D01*
X104190000Y-120300000D02*
X105990000Y-120300000D01*
X105990000Y-118900000D02*
X104190000Y-118900000D01*
X104190000Y-120300000D02*
X105890000Y-120300000D01*
X106190000Y-120400000D02*
X106190000Y-118700000D01*
X106790000Y-119400000D02*
X106790000Y-119300000D01*
X105890000Y-120400000D02*
X106190000Y-120400000D01*
X105890000Y-120300000D02*
X105890000Y-120400000D01*
X107013607Y-119500000D02*
G75*
G03*
X107013607Y-119500000I-223607J0D01*
G01*
X104190000Y-119000000D02*
X105890000Y-119000000D01*
X105890000Y-119000000D02*
X105890000Y-120200000D01*
X104190000Y-120400000D02*
X104190000Y-120300000D01*
X104190000Y-118800000D02*
X106090000Y-118800000D01*
X106090000Y-120400000D02*
X104190000Y-120400000D01*
X104190000Y-120200000D02*
X104190000Y-120300000D01*
X105990000Y-120300000D02*
X105990000Y-118900000D01*
X106090000Y-118800000D02*
X106090000Y-120400000D01*
X104190000Y-118900000D02*
X104190000Y-119000000D01*
X106890000Y-119500000D02*
G75*
G03*
X106890000Y-119500000I-100000J0D01*
G01*
X104190000Y-118700000D02*
X104190000Y-118800000D01*
X106790000Y-119500000D02*
X106790000Y-119400000D01*
X106931421Y-119500000D02*
G75*
G03*
X106931421Y-119500000I-141421J0D01*
G01*
X107072843Y-119500000D02*
G75*
G03*
X107072843Y-119500000I-282843J0D01*
G01*
X104190000Y-118900000D02*
X104190000Y-118800000D01*
X106090000Y-122150000D02*
X98290000Y-122150000D01*
X98290000Y-118450000D02*
X106090000Y-118450000D01*
D12*
D21*
X97027588Y-80587923D02*
X97051397Y-80623637D01*
X97122826Y-80659351D01*
X97170445Y-80659351D01*
X97241873Y-80623637D01*
X97289492Y-80552208D01*
X97313302Y-80480780D01*
X97337111Y-80337923D01*
X97337111Y-80230780D01*
X97313302Y-80087923D01*
X97289492Y-80016494D01*
X97241873Y-79945066D01*
X97170445Y-79909351D01*
X97122826Y-79909351D01*
X97051397Y-79945066D01*
X97027588Y-79980780D01*
X96718064Y-79909351D02*
X96622826Y-79909351D01*
X96575207Y-79945066D01*
X96527588Y-80016494D01*
X96503778Y-80159351D01*
X96503778Y-80409351D01*
X96527588Y-80552208D01*
X96575207Y-80623637D01*
X96622826Y-80659351D01*
X96718064Y-80659351D01*
X96765683Y-80623637D01*
X96813302Y-80552208D01*
X96837111Y-80409351D01*
X96837111Y-80159351D01*
X96813302Y-80016494D01*
X96765683Y-79945066D01*
X96718064Y-79909351D01*
X96051397Y-80659351D02*
X96289492Y-80659351D01*
X96289492Y-79909351D01*
X95622826Y-80659351D02*
X95908540Y-80659351D01*
X95765683Y-80659351D02*
X95765683Y-79909351D01*
X95813302Y-80016494D01*
X95860921Y-80087923D01*
X95908540Y-80123637D01*
X107895207Y-83098571D02*
X107823778Y-83134285D01*
X107704730Y-83134285D01*
X107657111Y-83098571D01*
X107633302Y-83062857D01*
X107609492Y-82991428D01*
X107609492Y-82920000D01*
X107633302Y-82848571D01*
X107657111Y-82812857D01*
X107704730Y-82777142D01*
X107799969Y-82741428D01*
X107847588Y-82705714D01*
X107871397Y-82670000D01*
X107895207Y-82598571D01*
X107895207Y-82527142D01*
X107871397Y-82455714D01*
X107847588Y-82420000D01*
X107799969Y-82384285D01*
X107680921Y-82384285D01*
X107609492Y-82420000D01*
X107109492Y-83062857D02*
X107133302Y-83098571D01*
X107204730Y-83134285D01*
X107252349Y-83134285D01*
X107323778Y-83098571D01*
X107371397Y-83027142D01*
X107395207Y-82955714D01*
X107419016Y-82812857D01*
X107419016Y-82705714D01*
X107395207Y-82562857D01*
X107371397Y-82491428D01*
X107323778Y-82420000D01*
X107252349Y-82384285D01*
X107204730Y-82384285D01*
X107133302Y-82420000D01*
X107109492Y-82455714D01*
X106657111Y-83134285D02*
X106895207Y-83134285D01*
X106895207Y-82384285D01*
X106490445Y-83134285D02*
X106490445Y-82384285D01*
X106204730Y-83134285D02*
X106419016Y-82705714D01*
X106204730Y-82384285D02*
X106490445Y-82812857D01*
X97017588Y-83127923D02*
X97041397Y-83163637D01*
X97112826Y-83199351D01*
X97160445Y-83199351D01*
X97231873Y-83163637D01*
X97279492Y-83092208D01*
X97303302Y-83020780D01*
X97327111Y-82877923D01*
X97327111Y-82770780D01*
X97303302Y-82627923D01*
X97279492Y-82556494D01*
X97231873Y-82485066D01*
X97160445Y-82449351D01*
X97112826Y-82449351D01*
X97041397Y-82485066D01*
X97017588Y-82520780D01*
X96708064Y-82449351D02*
X96612826Y-82449351D01*
X96565207Y-82485066D01*
X96517588Y-82556494D01*
X96493778Y-82699351D01*
X96493778Y-82949351D01*
X96517588Y-83092208D01*
X96565207Y-83163637D01*
X96612826Y-83199351D01*
X96708064Y-83199351D01*
X96755683Y-83163637D01*
X96803302Y-83092208D01*
X96827111Y-82949351D01*
X96827111Y-82699351D01*
X96803302Y-82556494D01*
X96755683Y-82485066D01*
X96708064Y-82449351D01*
X96041397Y-83199351D02*
X96279492Y-83199351D01*
X96279492Y-82449351D01*
X95898540Y-82520780D02*
X95874730Y-82485066D01*
X95827111Y-82449351D01*
X95708064Y-82449351D01*
X95660445Y-82485066D01*
X95636635Y-82520780D01*
X95612826Y-82592208D01*
X95612826Y-82663637D01*
X95636635Y-82770780D01*
X95922349Y-83199351D01*
X95612826Y-83199351D01*
X107814714Y-85772285D02*
X107814714Y-85022285D01*
X107648047Y-85558000D01*
X107481380Y-85022285D01*
X107481380Y-85772285D01*
X107243285Y-85772285D02*
X107243285Y-85022285D01*
X107029000Y-85736571D02*
X106957571Y-85772285D01*
X106838523Y-85772285D01*
X106790904Y-85736571D01*
X106767095Y-85700857D01*
X106743285Y-85629428D01*
X106743285Y-85558000D01*
X106767095Y-85486571D01*
X106790904Y-85450857D01*
X106838523Y-85415142D01*
X106933761Y-85379428D01*
X106981380Y-85343714D01*
X107005190Y-85308000D01*
X107029000Y-85236571D01*
X107029000Y-85165142D01*
X107005190Y-85093714D01*
X106981380Y-85058000D01*
X106933761Y-85022285D01*
X106814714Y-85022285D01*
X106743285Y-85058000D01*
X106433761Y-85022285D02*
X106338523Y-85022285D01*
X106290904Y-85058000D01*
X106243285Y-85129428D01*
X106219476Y-85272285D01*
X106219476Y-85522285D01*
X106243285Y-85665142D01*
X106290904Y-85736571D01*
X106338523Y-85772285D01*
X106433761Y-85772285D01*
X106481380Y-85736571D01*
X106529000Y-85665142D01*
X106552809Y-85522285D01*
X106552809Y-85272285D01*
X106529000Y-85129428D01*
X106481380Y-85058000D01*
X106433761Y-85022285D01*
X97037588Y-85707923D02*
X97061397Y-85743637D01*
X97132826Y-85779351D01*
X97180445Y-85779351D01*
X97251873Y-85743637D01*
X97299492Y-85672208D01*
X97323302Y-85600780D01*
X97347111Y-85457923D01*
X97347111Y-85350780D01*
X97323302Y-85207923D01*
X97299492Y-85136494D01*
X97251873Y-85065066D01*
X97180445Y-85029351D01*
X97132826Y-85029351D01*
X97061397Y-85065066D01*
X97037588Y-85100780D01*
X96728064Y-85029351D02*
X96632826Y-85029351D01*
X96585207Y-85065066D01*
X96537588Y-85136494D01*
X96513778Y-85279351D01*
X96513778Y-85529351D01*
X96537588Y-85672208D01*
X96585207Y-85743637D01*
X96632826Y-85779351D01*
X96728064Y-85779351D01*
X96775683Y-85743637D01*
X96823302Y-85672208D01*
X96847111Y-85529351D01*
X96847111Y-85279351D01*
X96823302Y-85136494D01*
X96775683Y-85065066D01*
X96728064Y-85029351D01*
X96061397Y-85779351D02*
X96299492Y-85779351D01*
X96299492Y-85029351D01*
X95942349Y-85029351D02*
X95632826Y-85029351D01*
X95799492Y-85315066D01*
X95728064Y-85315066D01*
X95680445Y-85350780D01*
X95656635Y-85386494D01*
X95632826Y-85457923D01*
X95632826Y-85636494D01*
X95656635Y-85707923D01*
X95680445Y-85743637D01*
X95728064Y-85779351D01*
X95870921Y-85779351D01*
X95918540Y-85743637D01*
X95942349Y-85707923D01*
X107885683Y-88159351D02*
X107885683Y-87409351D01*
X107719016Y-87945066D01*
X107552349Y-87409351D01*
X107552349Y-88159351D01*
X107219016Y-87409351D02*
X107123778Y-87409351D01*
X107076159Y-87445066D01*
X107028540Y-87516494D01*
X107004730Y-87659351D01*
X107004730Y-87909351D01*
X107028540Y-88052208D01*
X107076159Y-88123637D01*
X107123778Y-88159351D01*
X107219016Y-88159351D01*
X107266635Y-88123637D01*
X107314254Y-88052208D01*
X107338064Y-87909351D01*
X107338064Y-87659351D01*
X107314254Y-87516494D01*
X107266635Y-87445066D01*
X107219016Y-87409351D01*
X106814254Y-88123637D02*
X106742826Y-88159351D01*
X106623778Y-88159351D01*
X106576159Y-88123637D01*
X106552349Y-88087923D01*
X106528540Y-88016494D01*
X106528540Y-87945066D01*
X106552349Y-87873637D01*
X106576159Y-87837923D01*
X106623778Y-87802208D01*
X106719016Y-87766494D01*
X106766635Y-87730780D01*
X106790445Y-87695066D01*
X106814254Y-87623637D01*
X106814254Y-87552208D01*
X106790445Y-87480780D01*
X106766635Y-87445066D01*
X106719016Y-87409351D01*
X106599969Y-87409351D01*
X106528540Y-87445066D01*
X106314254Y-88159351D02*
X106314254Y-87409351D01*
X97047588Y-88197923D02*
X97071397Y-88233637D01*
X97142826Y-88269351D01*
X97190445Y-88269351D01*
X97261873Y-88233637D01*
X97309492Y-88162208D01*
X97333302Y-88090780D01*
X97357111Y-87947923D01*
X97357111Y-87840780D01*
X97333302Y-87697923D01*
X97309492Y-87626494D01*
X97261873Y-87555066D01*
X97190445Y-87519351D01*
X97142826Y-87519351D01*
X97071397Y-87555066D01*
X97047588Y-87590780D01*
X96738064Y-87519351D02*
X96642826Y-87519351D01*
X96595207Y-87555066D01*
X96547588Y-87626494D01*
X96523778Y-87769351D01*
X96523778Y-88019351D01*
X96547588Y-88162208D01*
X96595207Y-88233637D01*
X96642826Y-88269351D01*
X96738064Y-88269351D01*
X96785683Y-88233637D01*
X96833302Y-88162208D01*
X96857111Y-88019351D01*
X96857111Y-87769351D01*
X96833302Y-87626494D01*
X96785683Y-87555066D01*
X96738064Y-87519351D01*
X96071397Y-88269351D02*
X96309492Y-88269351D01*
X96309492Y-87519351D01*
X95690445Y-87769351D02*
X95690445Y-88269351D01*
X95809492Y-87483637D02*
X95928540Y-88019351D01*
X95619016Y-88019351D01*
X97047588Y-90747923D02*
X97071397Y-90783637D01*
X97142826Y-90819351D01*
X97190445Y-90819351D01*
X97261873Y-90783637D01*
X97309492Y-90712208D01*
X97333302Y-90640780D01*
X97357111Y-90497923D01*
X97357111Y-90390780D01*
X97333302Y-90247923D01*
X97309492Y-90176494D01*
X97261873Y-90105066D01*
X97190445Y-90069351D01*
X97142826Y-90069351D01*
X97071397Y-90105066D01*
X97047588Y-90140780D01*
X96738064Y-90069351D02*
X96642826Y-90069351D01*
X96595207Y-90105066D01*
X96547588Y-90176494D01*
X96523778Y-90319351D01*
X96523778Y-90569351D01*
X96547588Y-90712208D01*
X96595207Y-90783637D01*
X96642826Y-90819351D01*
X96738064Y-90819351D01*
X96785683Y-90783637D01*
X96833302Y-90712208D01*
X96857111Y-90569351D01*
X96857111Y-90319351D01*
X96833302Y-90176494D01*
X96785683Y-90105066D01*
X96738064Y-90069351D01*
X96071397Y-90819351D02*
X96309492Y-90819351D01*
X96309492Y-90069351D01*
X95666635Y-90069351D02*
X95904730Y-90069351D01*
X95928540Y-90426494D01*
X95904730Y-90390780D01*
X95857111Y-90355066D01*
X95738064Y-90355066D01*
X95690445Y-90390780D01*
X95666635Y-90426494D01*
X95642826Y-90497923D01*
X95642826Y-90676494D01*
X95666635Y-90747923D01*
X95690445Y-90783637D01*
X95738064Y-90819351D01*
X95857111Y-90819351D01*
X95904730Y-90783637D01*
X95928540Y-90747923D01*
X107890921Y-90754285D02*
X107890921Y-90004285D01*
X107605207Y-90754285D01*
X107605207Y-90004285D01*
X107081397Y-90682857D02*
X107105207Y-90718571D01*
X107176635Y-90754285D01*
X107224254Y-90754285D01*
X107295683Y-90718571D01*
X107343302Y-90647142D01*
X107367111Y-90575714D01*
X107390921Y-90432857D01*
X107390921Y-90325714D01*
X107367111Y-90182857D01*
X107343302Y-90111428D01*
X107295683Y-90040000D01*
X107224254Y-90004285D01*
X107176635Y-90004285D01*
X107105207Y-90040000D01*
X107081397Y-90075714D01*
X106890921Y-90718571D02*
X106819492Y-90754285D01*
X106700445Y-90754285D01*
X106652826Y-90718571D01*
X106629016Y-90682857D01*
X106605207Y-90611428D01*
X106605207Y-90540000D01*
X106629016Y-90468571D01*
X106652826Y-90432857D01*
X106700445Y-90397142D01*
X106795683Y-90361428D01*
X106843302Y-90325714D01*
X106867111Y-90290000D01*
X106890921Y-90218571D01*
X106890921Y-90147142D01*
X106867111Y-90075714D01*
X106843302Y-90040000D01*
X106795683Y-90004285D01*
X106676635Y-90004285D01*
X106605207Y-90040000D01*
X107590921Y-73069351D02*
X107757588Y-72712208D01*
X107876635Y-73069351D02*
X107876635Y-72319351D01*
X107686159Y-72319351D01*
X107638540Y-72355066D01*
X107614730Y-72390780D01*
X107590921Y-72462208D01*
X107590921Y-72569351D01*
X107614730Y-72640780D01*
X107638540Y-72676494D01*
X107686159Y-72712208D01*
X107876635Y-72712208D01*
X107281397Y-72319351D02*
X107186159Y-72319351D01*
X107138540Y-72355066D01*
X107090921Y-72426494D01*
X107067111Y-72569351D01*
X107067111Y-72819351D01*
X107090921Y-72962208D01*
X107138540Y-73033637D01*
X107186159Y-73069351D01*
X107281397Y-73069351D01*
X107329016Y-73033637D01*
X107376635Y-72962208D01*
X107400445Y-72819351D01*
X107400445Y-72569351D01*
X107376635Y-72426494D01*
X107329016Y-72355066D01*
X107281397Y-72319351D01*
X106900445Y-72319351D02*
X106781397Y-73069351D01*
X106686159Y-72533637D01*
X106590921Y-73069351D01*
X106471873Y-72319351D01*
X106186159Y-72319351D02*
X106138540Y-72319351D01*
X106090921Y-72355066D01*
X106067111Y-72390780D01*
X106043302Y-72462208D01*
X106019492Y-72605066D01*
X106019492Y-72783637D01*
X106043302Y-72926494D01*
X106067111Y-72997923D01*
X106090921Y-73033637D01*
X106138540Y-73069351D01*
X106186159Y-73069351D01*
X106233778Y-73033637D01*
X106257588Y-72997923D01*
X106281397Y-72926494D01*
X106305207Y-72783637D01*
X106305207Y-72605066D01*
X106281397Y-72462208D01*
X106257588Y-72390780D01*
X106233778Y-72355066D01*
X106186159Y-72319351D01*
X96877111Y-73023637D02*
X96805683Y-73059351D01*
X96686635Y-73059351D01*
X96639016Y-73023637D01*
X96615207Y-72987923D01*
X96591397Y-72916494D01*
X96591397Y-72845066D01*
X96615207Y-72773637D01*
X96639016Y-72737923D01*
X96686635Y-72702208D01*
X96781873Y-72666494D01*
X96829492Y-72630780D01*
X96853302Y-72595066D01*
X96877111Y-72523637D01*
X96877111Y-72452208D01*
X96853302Y-72380780D01*
X96829492Y-72345066D01*
X96781873Y-72309351D01*
X96662826Y-72309351D01*
X96591397Y-72345066D01*
X96377111Y-73059351D02*
X96377111Y-72309351D01*
X96258064Y-72309351D01*
X96186635Y-72345066D01*
X96139016Y-72416494D01*
X96115207Y-72487923D01*
X96091397Y-72630780D01*
X96091397Y-72737923D01*
X96115207Y-72880780D01*
X96139016Y-72952208D01*
X96186635Y-73023637D01*
X96258064Y-73059351D01*
X96377111Y-73059351D01*
X95900921Y-72845066D02*
X95662826Y-72845066D01*
X95948540Y-73059351D02*
X95781873Y-72309351D01*
X95615207Y-73059351D01*
X107600921Y-75577785D02*
X107767588Y-75220642D01*
X107886635Y-75577785D02*
X107886635Y-74827785D01*
X107696159Y-74827785D01*
X107648540Y-74863500D01*
X107624730Y-74899214D01*
X107600921Y-74970642D01*
X107600921Y-75077785D01*
X107624730Y-75149214D01*
X107648540Y-75184928D01*
X107696159Y-75220642D01*
X107886635Y-75220642D01*
X107291397Y-74827785D02*
X107196159Y-74827785D01*
X107148540Y-74863500D01*
X107100921Y-74934928D01*
X107077111Y-75077785D01*
X107077111Y-75327785D01*
X107100921Y-75470642D01*
X107148540Y-75542071D01*
X107196159Y-75577785D01*
X107291397Y-75577785D01*
X107339016Y-75542071D01*
X107386635Y-75470642D01*
X107410445Y-75327785D01*
X107410445Y-75077785D01*
X107386635Y-74934928D01*
X107339016Y-74863500D01*
X107291397Y-74827785D01*
X106910445Y-74827785D02*
X106791397Y-75577785D01*
X106696159Y-75042071D01*
X106600921Y-75577785D01*
X106481873Y-74827785D01*
X106029492Y-75577785D02*
X106315207Y-75577785D01*
X106172349Y-75577785D02*
X106172349Y-74827785D01*
X106219969Y-74934928D01*
X106267588Y-75006357D01*
X106315207Y-75042071D01*
X96865207Y-75542071D02*
X96793778Y-75577785D01*
X96674730Y-75577785D01*
X96627111Y-75542071D01*
X96603302Y-75506357D01*
X96579492Y-75434928D01*
X96579492Y-75363500D01*
X96603302Y-75292071D01*
X96627111Y-75256357D01*
X96674730Y-75220642D01*
X96769969Y-75184928D01*
X96817588Y-75149214D01*
X96841397Y-75113500D01*
X96865207Y-75042071D01*
X96865207Y-74970642D01*
X96841397Y-74899214D01*
X96817588Y-74863500D01*
X96769969Y-74827785D01*
X96650921Y-74827785D01*
X96579492Y-74863500D01*
X96079492Y-75506357D02*
X96103302Y-75542071D01*
X96174730Y-75577785D01*
X96222349Y-75577785D01*
X96293778Y-75542071D01*
X96341397Y-75470642D01*
X96365207Y-75399214D01*
X96389016Y-75256357D01*
X96389016Y-75149214D01*
X96365207Y-75006357D01*
X96341397Y-74934928D01*
X96293778Y-74863500D01*
X96222349Y-74827785D01*
X96174730Y-74827785D01*
X96103302Y-74863500D01*
X96079492Y-74899214D01*
X95627111Y-75577785D02*
X95865207Y-75577785D01*
X95865207Y-74827785D01*
X107610921Y-78119351D02*
X107777588Y-77762208D01*
X107896635Y-78119351D02*
X107896635Y-77369351D01*
X107706159Y-77369351D01*
X107658540Y-77405066D01*
X107634730Y-77440780D01*
X107610921Y-77512208D01*
X107610921Y-77619351D01*
X107634730Y-77690780D01*
X107658540Y-77726494D01*
X107706159Y-77762208D01*
X107896635Y-77762208D01*
X107301397Y-77369351D02*
X107206159Y-77369351D01*
X107158540Y-77405066D01*
X107110921Y-77476494D01*
X107087111Y-77619351D01*
X107087111Y-77869351D01*
X107110921Y-78012208D01*
X107158540Y-78083637D01*
X107206159Y-78119351D01*
X107301397Y-78119351D01*
X107349016Y-78083637D01*
X107396635Y-78012208D01*
X107420445Y-77869351D01*
X107420445Y-77619351D01*
X107396635Y-77476494D01*
X107349016Y-77405066D01*
X107301397Y-77369351D01*
X106920445Y-77369351D02*
X106801397Y-78119351D01*
X106706159Y-77583637D01*
X106610921Y-78119351D01*
X106491873Y-77369351D01*
X106325207Y-77440780D02*
X106301397Y-77405066D01*
X106253778Y-77369351D01*
X106134730Y-77369351D01*
X106087111Y-77405066D01*
X106063302Y-77440780D01*
X106039492Y-77512208D01*
X106039492Y-77583637D01*
X106063302Y-77690780D01*
X106349016Y-78119351D01*
X106039492Y-78119351D01*
X97037588Y-78017923D02*
X97061397Y-78053637D01*
X97132826Y-78089351D01*
X97180445Y-78089351D01*
X97251873Y-78053637D01*
X97299492Y-77982208D01*
X97323302Y-77910780D01*
X97347111Y-77767923D01*
X97347111Y-77660780D01*
X97323302Y-77517923D01*
X97299492Y-77446494D01*
X97251873Y-77375066D01*
X97180445Y-77339351D01*
X97132826Y-77339351D01*
X97061397Y-77375066D01*
X97037588Y-77410780D01*
X96728064Y-77339351D02*
X96632826Y-77339351D01*
X96585207Y-77375066D01*
X96537588Y-77446494D01*
X96513778Y-77589351D01*
X96513778Y-77839351D01*
X96537588Y-77982208D01*
X96585207Y-78053637D01*
X96632826Y-78089351D01*
X96728064Y-78089351D01*
X96775683Y-78053637D01*
X96823302Y-77982208D01*
X96847111Y-77839351D01*
X96847111Y-77589351D01*
X96823302Y-77446494D01*
X96775683Y-77375066D01*
X96728064Y-77339351D01*
X96061397Y-78089351D02*
X96299492Y-78089351D01*
X96299492Y-77339351D01*
X95799492Y-77339351D02*
X95751873Y-77339351D01*
X95704254Y-77375066D01*
X95680445Y-77410780D01*
X95656635Y-77482208D01*
X95632826Y-77625066D01*
X95632826Y-77803637D01*
X95656635Y-77946494D01*
X95680445Y-78017923D01*
X95704254Y-78053637D01*
X95751873Y-78089351D01*
X95799492Y-78089351D01*
X95847111Y-78053637D01*
X95870921Y-78017923D01*
X95894730Y-77946494D01*
X95918540Y-77803637D01*
X95918540Y-77625066D01*
X95894730Y-77482208D01*
X95870921Y-77410780D01*
X95847111Y-77375066D01*
X95799492Y-77339351D01*
X107620921Y-80629351D02*
X107787588Y-80272208D01*
X107906635Y-80629351D02*
X107906635Y-79879351D01*
X107716159Y-79879351D01*
X107668540Y-79915066D01*
X107644730Y-79950780D01*
X107620921Y-80022208D01*
X107620921Y-80129351D01*
X107644730Y-80200780D01*
X107668540Y-80236494D01*
X107716159Y-80272208D01*
X107906635Y-80272208D01*
X107311397Y-79879351D02*
X107216159Y-79879351D01*
X107168540Y-79915066D01*
X107120921Y-79986494D01*
X107097111Y-80129351D01*
X107097111Y-80379351D01*
X107120921Y-80522208D01*
X107168540Y-80593637D01*
X107216159Y-80629351D01*
X107311397Y-80629351D01*
X107359016Y-80593637D01*
X107406635Y-80522208D01*
X107430445Y-80379351D01*
X107430445Y-80129351D01*
X107406635Y-79986494D01*
X107359016Y-79915066D01*
X107311397Y-79879351D01*
X106930445Y-79879351D02*
X106811397Y-80629351D01*
X106716159Y-80093637D01*
X106620921Y-80629351D01*
X106501873Y-79879351D01*
X106359016Y-79879351D02*
X106049492Y-79879351D01*
X106216159Y-80165066D01*
X106144730Y-80165066D01*
X106097111Y-80200780D01*
X106073302Y-80236494D01*
X106049492Y-80307923D01*
X106049492Y-80486494D01*
X106073302Y-80557923D01*
X106097111Y-80593637D01*
X106144730Y-80629351D01*
X106287588Y-80629351D01*
X106335207Y-80593637D01*
X106359016Y-80557923D01*
X96700921Y-69805066D02*
X96748540Y-69769351D01*
X96819969Y-69769351D01*
X96891397Y-69805066D01*
X96939016Y-69876494D01*
X96962826Y-69947923D01*
X96986635Y-70090780D01*
X96986635Y-70197923D01*
X96962826Y-70340780D01*
X96939016Y-70412208D01*
X96891397Y-70483637D01*
X96819969Y-70519351D01*
X96772349Y-70519351D01*
X96700921Y-70483637D01*
X96677111Y-70447923D01*
X96677111Y-70197923D01*
X96772349Y-70197923D01*
X96462826Y-70519351D02*
X96462826Y-69769351D01*
X96177111Y-70519351D01*
X96177111Y-69769351D01*
X95939016Y-70519351D02*
X95939016Y-69769351D01*
X95819969Y-69769351D01*
X95748540Y-69805066D01*
X95700921Y-69876494D01*
X95677111Y-69947923D01*
X95653302Y-70090780D01*
X95653302Y-70197923D01*
X95677111Y-70340780D01*
X95700921Y-70412208D01*
X95748540Y-70483637D01*
X95819969Y-70519351D01*
X95939016Y-70519351D01*
X107823166Y-69747785D02*
X107656500Y-70497785D01*
X107489833Y-69747785D01*
X107037452Y-70426357D02*
X107061261Y-70462071D01*
X107132690Y-70497785D01*
X107180309Y-70497785D01*
X107251738Y-70462071D01*
X107299357Y-70390642D01*
X107323166Y-70319214D01*
X107346976Y-70176357D01*
X107346976Y-70069214D01*
X107323166Y-69926357D01*
X107299357Y-69854928D01*
X107251738Y-69783500D01*
X107180309Y-69747785D01*
X107132690Y-69747785D01*
X107061261Y-69783500D01*
X107037452Y-69819214D01*
X106537452Y-70426357D02*
X106561261Y-70462071D01*
X106632690Y-70497785D01*
X106680309Y-70497785D01*
X106751738Y-70462071D01*
X106799357Y-70390642D01*
X106823166Y-70319214D01*
X106846976Y-70176357D01*
X106846976Y-70069214D01*
X106823166Y-69926357D01*
X106799357Y-69854928D01*
X106751738Y-69783500D01*
X106680309Y-69747785D01*
X106632690Y-69747785D01*
X106561261Y-69783500D01*
X106537452Y-69819214D01*
X96680921Y-67258000D02*
X96728540Y-67222285D01*
X96799969Y-67222285D01*
X96871397Y-67258000D01*
X96919016Y-67329428D01*
X96942826Y-67400857D01*
X96966635Y-67543714D01*
X96966635Y-67650857D01*
X96942826Y-67793714D01*
X96919016Y-67865142D01*
X96871397Y-67936571D01*
X96799969Y-67972285D01*
X96752349Y-67972285D01*
X96680921Y-67936571D01*
X96657111Y-67900857D01*
X96657111Y-67650857D01*
X96752349Y-67650857D01*
X96442826Y-67972285D02*
X96442826Y-67222285D01*
X96157111Y-67972285D01*
X96157111Y-67222285D01*
X95919016Y-67972285D02*
X95919016Y-67222285D01*
X95799969Y-67222285D01*
X95728540Y-67258000D01*
X95680921Y-67329428D01*
X95657111Y-67400857D01*
X95633302Y-67543714D01*
X95633302Y-67650857D01*
X95657111Y-67793714D01*
X95680921Y-67865142D01*
X95728540Y-67936571D01*
X95799969Y-67972285D01*
X95919016Y-67972285D01*
X107563778Y-67919351D02*
X107730445Y-67562208D01*
X107849492Y-67919351D02*
X107849492Y-67169351D01*
X107659016Y-67169351D01*
X107611397Y-67205066D01*
X107587588Y-67240780D01*
X107563778Y-67312208D01*
X107563778Y-67419351D01*
X107587588Y-67490780D01*
X107611397Y-67526494D01*
X107659016Y-67562208D01*
X107849492Y-67562208D01*
X107373302Y-67883637D02*
X107301873Y-67919351D01*
X107182826Y-67919351D01*
X107135207Y-67883637D01*
X107111397Y-67847923D01*
X107087588Y-67776494D01*
X107087588Y-67705066D01*
X107111397Y-67633637D01*
X107135207Y-67597923D01*
X107182826Y-67562208D01*
X107278064Y-67526494D01*
X107325683Y-67490780D01*
X107349492Y-67455066D01*
X107373302Y-67383637D01*
X107373302Y-67312208D01*
X107349492Y-67240780D01*
X107325683Y-67205066D01*
X107278064Y-67169351D01*
X107159016Y-67169351D01*
X107087588Y-67205066D01*
X106944730Y-67169351D02*
X106659016Y-67169351D01*
X106801873Y-67919351D02*
X106801873Y-67169351D01*
X97219969Y-65409351D02*
X97219969Y-64659351D01*
X97100921Y-64659351D01*
X97029492Y-64695066D01*
X96981873Y-64766494D01*
X96958064Y-64837923D01*
X96934254Y-64980780D01*
X96934254Y-65087923D01*
X96958064Y-65230780D01*
X96981873Y-65302208D01*
X97029492Y-65373637D01*
X97100921Y-65409351D01*
X97219969Y-65409351D01*
X96743778Y-65195066D02*
X96505683Y-65195066D01*
X96791397Y-65409351D02*
X96624730Y-64659351D01*
X96458064Y-65409351D01*
X96362826Y-64659351D02*
X96077111Y-64659351D01*
X96219969Y-65409351D02*
X96219969Y-64659351D01*
X95934254Y-65195066D02*
X95696159Y-65195066D01*
X95981873Y-65409351D02*
X95815207Y-64659351D01*
X95648540Y-65409351D01*
X107590921Y-64640000D02*
X107638540Y-64604285D01*
X107709969Y-64604285D01*
X107781397Y-64640000D01*
X107829016Y-64711428D01*
X107852826Y-64782857D01*
X107876635Y-64925714D01*
X107876635Y-65032857D01*
X107852826Y-65175714D01*
X107829016Y-65247142D01*
X107781397Y-65318571D01*
X107709969Y-65354285D01*
X107662349Y-65354285D01*
X107590921Y-65318571D01*
X107567111Y-65282857D01*
X107567111Y-65032857D01*
X107662349Y-65032857D01*
X107352826Y-65354285D02*
X107352826Y-64604285D01*
X107067111Y-65354285D01*
X107067111Y-64604285D01*
X106829016Y-65354285D02*
X106829016Y-64604285D01*
X106709969Y-64604285D01*
X106638540Y-64640000D01*
X106590921Y-64711428D01*
X106567111Y-64782857D01*
X106543302Y-64925714D01*
X106543302Y-65032857D01*
X106567111Y-65175714D01*
X106590921Y-65247142D01*
X106638540Y-65318571D01*
X106709969Y-65354285D01*
X106829016Y-65354285D01*
X96541397Y-62859351D02*
X96779492Y-62859351D01*
X96779492Y-62109351D01*
X96374730Y-62466494D02*
X96208064Y-62466494D01*
X96136635Y-62859351D02*
X96374730Y-62859351D01*
X96374730Y-62109351D01*
X96136635Y-62109351D01*
X95922349Y-62859351D02*
X95922349Y-62109351D01*
X95803302Y-62109351D01*
X95731873Y-62145066D01*
X95684254Y-62216494D01*
X95660445Y-62287923D01*
X95636635Y-62430780D01*
X95636635Y-62537923D01*
X95660445Y-62680780D01*
X95684254Y-62752208D01*
X95731873Y-62823637D01*
X95803302Y-62859351D01*
X95922349Y-62859351D01*
X111915207Y-62889351D02*
X112081873Y-62532208D01*
X112200921Y-62889351D02*
X112200921Y-62139351D01*
X112010445Y-62139351D01*
X111962826Y-62175066D01*
X111939016Y-62210780D01*
X111915207Y-62282208D01*
X111915207Y-62389351D01*
X111939016Y-62460780D01*
X111962826Y-62496494D01*
X112010445Y-62532208D01*
X112200921Y-62532208D01*
X111724730Y-62675066D02*
X111486635Y-62675066D01*
X111772349Y-62889351D02*
X111605683Y-62139351D01*
X111439016Y-62889351D01*
X111319969Y-62139351D02*
X111200921Y-62889351D01*
X111105683Y-62353637D01*
X111010445Y-62889351D01*
X110891397Y-62139351D01*
D12*
X103787380Y-91307380D02*
X103596904Y-91307380D01*
X103501666Y-91355000D01*
X103406428Y-91450238D01*
X103358809Y-91640714D01*
X103358809Y-91974047D01*
X103406428Y-92164523D01*
X103501666Y-92259761D01*
X103596904Y-92307380D01*
X103787380Y-92307380D01*
X103882619Y-92259761D01*
X103977857Y-92164523D01*
X104025476Y-91974047D01*
X104025476Y-91640714D01*
X103977857Y-91450238D01*
X103882619Y-91355000D01*
X103787380Y-91307380D01*
X102454047Y-92307380D02*
X102930238Y-92307380D01*
X102930238Y-91307380D01*
X102120714Y-91783571D02*
X101787380Y-91783571D01*
X101644523Y-92307380D02*
X102120714Y-92307380D01*
X102120714Y-91307380D01*
X101644523Y-91307380D01*
X101215952Y-92307380D02*
X101215952Y-91307380D01*
X100977857Y-91307380D01*
X100835000Y-91355000D01*
X100739761Y-91450238D01*
X100692142Y-91545476D01*
X100644523Y-91735952D01*
X100644523Y-91878809D01*
X100692142Y-92069285D01*
X100739761Y-92164523D01*
X100835000Y-92259761D01*
X100977857Y-92307380D01*
X101215952Y-92307380D01*
D22*
X99648769Y-99647762D02*
X99648769Y-98834962D01*
X99455245Y-98834962D01*
X99339130Y-98873667D01*
X99261721Y-98951076D01*
X99223016Y-99028486D01*
X99184311Y-99183305D01*
X99184311Y-99299419D01*
X99223016Y-99454238D01*
X99261721Y-99531647D01*
X99339130Y-99609057D01*
X99455245Y-99647762D01*
X99648769Y-99647762D01*
X98874673Y-99415533D02*
X98487626Y-99415533D01*
X98952083Y-99647762D02*
X98681149Y-98834962D01*
X98410216Y-99647762D01*
X98255397Y-98834962D02*
X97790940Y-98834962D01*
X98023169Y-99647762D02*
X98023169Y-98834962D01*
X97558711Y-99415533D02*
X97171664Y-99415533D01*
X97636121Y-99647762D02*
X97365188Y-98834962D01*
X97094254Y-99647762D01*
D11*
X157742902Y-58982447D02*
X157076235Y-58982447D01*
X157504807Y-59982447D01*
X157604807Y-78311019D02*
X157700045Y-78263400D01*
X157747664Y-78215781D01*
X157795283Y-78120543D01*
X157795283Y-78072924D01*
X157747664Y-77977686D01*
X157700045Y-77930067D01*
X157604807Y-77882447D01*
X157414330Y-77882447D01*
X157319092Y-77930067D01*
X157271473Y-77977686D01*
X157223854Y-78072924D01*
X157223854Y-78120543D01*
X157271473Y-78215781D01*
X157319092Y-78263400D01*
X157414330Y-78311019D01*
X157604807Y-78311019D01*
X157700045Y-78358638D01*
X157747664Y-78406257D01*
X157795283Y-78501495D01*
X157795283Y-78691971D01*
X157747664Y-78787209D01*
X157700045Y-78834828D01*
X157604807Y-78882447D01*
X157414330Y-78882447D01*
X157319092Y-78834828D01*
X157271473Y-78787209D01*
X157223854Y-78691971D01*
X157223854Y-78501495D01*
X157271473Y-78406257D01*
X157319092Y-78358638D01*
X157414330Y-78311019D01*
X157610045Y-98032447D02*
X157419569Y-98032447D01*
X157324330Y-97984828D01*
X157276711Y-97937209D01*
X157181473Y-97794352D01*
X157133854Y-97603876D01*
X157133854Y-97222924D01*
X157181473Y-97127686D01*
X157229092Y-97080067D01*
X157324330Y-97032447D01*
X157514807Y-97032447D01*
X157610045Y-97080067D01*
X157657664Y-97127686D01*
X157705283Y-97222924D01*
X157705283Y-97461019D01*
X157657664Y-97556257D01*
X157610045Y-97603876D01*
X157514807Y-97651495D01*
X157324330Y-97651495D01*
X157229092Y-97603876D01*
X157181473Y-97556257D01*
X157133854Y-97461019D01*
X157840045Y-117072447D02*
X158411473Y-117072447D01*
X158125759Y-117072447D02*
X158125759Y-116072447D01*
X158220997Y-116215305D01*
X158316235Y-116310543D01*
X158411473Y-116358162D01*
X157220997Y-116072447D02*
X157125759Y-116072447D01*
X157030521Y-116120067D01*
X156982902Y-116167686D01*
X156935283Y-116262924D01*
X156887664Y-116453400D01*
X156887664Y-116691495D01*
X156935283Y-116881971D01*
X156982902Y-116977209D01*
X157030521Y-117024828D01*
X157125759Y-117072447D01*
X157220997Y-117072447D01*
X157316235Y-117024828D01*
X157363854Y-116977209D01*
X157411473Y-116881971D01*
X157459092Y-116691495D01*
X157459092Y-116453400D01*
X157411473Y-116262924D01*
X157363854Y-116167686D01*
X157316235Y-116120067D01*
X157220997Y-116072447D01*
X176875045Y-64607447D02*
X177446473Y-64607447D01*
X177160759Y-64607447D02*
X177160759Y-63607447D01*
X177255997Y-63750305D01*
X177351235Y-63845543D01*
X177446473Y-63893162D01*
X175922664Y-64607447D02*
X176494092Y-64607447D01*
X176208378Y-64607447D02*
X176208378Y-63607447D01*
X176303616Y-63750305D01*
X176398854Y-63845543D01*
X176494092Y-63893162D01*
X176925045Y-83707447D02*
X177496473Y-83707447D01*
X177210759Y-83707447D02*
X177210759Y-82707447D01*
X177305997Y-82850305D01*
X177401235Y-82945543D01*
X177496473Y-82993162D01*
X176544092Y-82802686D02*
X176496473Y-82755067D01*
X176401235Y-82707447D01*
X176163140Y-82707447D01*
X176067902Y-82755067D01*
X176020283Y-82802686D01*
X175972664Y-82897924D01*
X175972664Y-82993162D01*
X176020283Y-83136019D01*
X176591711Y-83707447D01*
X175972664Y-83707447D01*
X176810045Y-102722447D02*
X177381473Y-102722447D01*
X177095759Y-102722447D02*
X177095759Y-101722447D01*
X177190997Y-101865305D01*
X177286235Y-101960543D01*
X177381473Y-102008162D01*
X176476711Y-101722447D02*
X175857664Y-101722447D01*
X176190997Y-102103400D01*
X176048140Y-102103400D01*
X175952902Y-102151019D01*
X175905283Y-102198638D01*
X175857664Y-102293876D01*
X175857664Y-102531971D01*
X175905283Y-102627209D01*
X175952902Y-102674828D01*
X176048140Y-102722447D01*
X176333854Y-102722447D01*
X176429092Y-102674828D01*
X176476711Y-102627209D01*
X176710045Y-121842447D02*
X177281473Y-121842447D01*
X176995759Y-121842447D02*
X176995759Y-120842447D01*
X177090997Y-120985305D01*
X177186235Y-121080543D01*
X177281473Y-121128162D01*
X175852902Y-121175781D02*
X175852902Y-121842447D01*
X176090997Y-120794828D02*
X176329092Y-121509114D01*
X175710045Y-121509114D01*
X195875045Y-71657447D02*
X196446473Y-71657447D01*
X196160759Y-71657447D02*
X196160759Y-70657447D01*
X196255997Y-70800305D01*
X196351235Y-70895543D01*
X196446473Y-70943162D01*
X194970283Y-70657447D02*
X195446473Y-70657447D01*
X195494092Y-71133638D01*
X195446473Y-71086019D01*
X195351235Y-71038400D01*
X195113140Y-71038400D01*
X195017902Y-71086019D01*
X194970283Y-71133638D01*
X194922664Y-71228876D01*
X194922664Y-71466971D01*
X194970283Y-71562209D01*
X195017902Y-71609828D01*
X195113140Y-71657447D01*
X195351235Y-71657447D01*
X195446473Y-71609828D01*
X195494092Y-71562209D01*
X195825045Y-90657447D02*
X196396473Y-90657447D01*
X196110759Y-90657447D02*
X196110759Y-89657447D01*
X196205997Y-89800305D01*
X196301235Y-89895543D01*
X196396473Y-89943162D01*
X194967902Y-89657447D02*
X195158378Y-89657447D01*
X195253616Y-89705067D01*
X195301235Y-89752686D01*
X195396473Y-89895543D01*
X195444092Y-90086019D01*
X195444092Y-90466971D01*
X195396473Y-90562209D01*
X195348854Y-90609828D01*
X195253616Y-90657447D01*
X195063140Y-90657447D01*
X194967902Y-90609828D01*
X194920283Y-90562209D01*
X194872664Y-90466971D01*
X194872664Y-90228876D01*
X194920283Y-90133638D01*
X194967902Y-90086019D01*
X195063140Y-90038400D01*
X195253616Y-90038400D01*
X195348854Y-90086019D01*
X195396473Y-90133638D01*
X195444092Y-90228876D01*
X195790045Y-109772447D02*
X196361473Y-109772447D01*
X196075759Y-109772447D02*
X196075759Y-108772447D01*
X196170997Y-108915305D01*
X196266235Y-109010543D01*
X196361473Y-109058162D01*
X195456711Y-108772447D02*
X194790045Y-108772447D01*
X195218616Y-109772447D01*
X195930045Y-128812447D02*
X196501473Y-128812447D01*
X196215759Y-128812447D02*
X196215759Y-127812447D01*
X196310997Y-127955305D01*
X196406235Y-128050543D01*
X196501473Y-128098162D01*
X195358616Y-128241019D02*
X195453854Y-128193400D01*
X195501473Y-128145781D01*
X195549092Y-128050543D01*
X195549092Y-128002924D01*
X195501473Y-127907686D01*
X195453854Y-127860067D01*
X195358616Y-127812447D01*
X195168140Y-127812447D01*
X195072902Y-127860067D01*
X195025283Y-127907686D01*
X194977664Y-128002924D01*
X194977664Y-128050543D01*
X195025283Y-128145781D01*
X195072902Y-128193400D01*
X195168140Y-128241019D01*
X195358616Y-128241019D01*
X195453854Y-128288638D01*
X195501473Y-128336257D01*
X195549092Y-128431495D01*
X195549092Y-128621971D01*
X195501473Y-128717209D01*
X195453854Y-128764828D01*
X195358616Y-128812447D01*
X195168140Y-128812447D01*
X195072902Y-128764828D01*
X195025283Y-128717209D01*
X194977664Y-128621971D01*
X194977664Y-128431495D01*
X195025283Y-128336257D01*
X195072902Y-128288638D01*
X195168140Y-128241019D01*
D12*
X103839923Y-99238795D02*
X103839923Y-98425995D01*
X103530285Y-98425995D01*
X103452876Y-98464700D01*
X103414171Y-98503404D01*
X103375466Y-98580814D01*
X103375466Y-98696928D01*
X103414171Y-98774338D01*
X103452876Y-98813042D01*
X103530285Y-98851747D01*
X103839923Y-98851747D01*
X102601371Y-99238795D02*
X103065828Y-99238795D01*
X102833600Y-99238795D02*
X102833600Y-98425995D01*
X102911009Y-98542109D01*
X102988419Y-98619519D01*
X103065828Y-98658223D01*
X101789923Y-99238795D02*
X101789923Y-98425995D01*
X101480285Y-98425995D01*
X101402876Y-98464700D01*
X101364171Y-98503404D01*
X101325466Y-98580814D01*
X101325466Y-98696928D01*
X101364171Y-98774338D01*
X101402876Y-98813042D01*
X101480285Y-98851747D01*
X101789923Y-98851747D01*
X101015828Y-98503404D02*
X100977123Y-98464700D01*
X100899714Y-98425995D01*
X100706190Y-98425995D01*
X100628780Y-98464700D01*
X100590076Y-98503404D01*
X100551371Y-98580814D01*
X100551371Y-98658223D01*
X100590076Y-98774338D01*
X101054533Y-99238795D01*
X100551371Y-99238795D01*
X112215490Y-94586366D02*
X112254195Y-94702480D01*
X112254195Y-94896004D01*
X112215490Y-94973414D01*
X112176785Y-95012119D01*
X112099376Y-95050823D01*
X112021966Y-95050823D01*
X111944557Y-95012119D01*
X111905852Y-94973414D01*
X111867147Y-94896004D01*
X111828442Y-94741185D01*
X111789738Y-94663776D01*
X111751033Y-94625071D01*
X111673623Y-94586366D01*
X111596214Y-94586366D01*
X111518804Y-94625071D01*
X111480100Y-94663776D01*
X111441395Y-94741185D01*
X111441395Y-94934709D01*
X111480100Y-95050823D01*
X111441395Y-95321757D02*
X112254195Y-95515280D01*
X111673623Y-95670100D01*
X112254195Y-95824919D01*
X111441395Y-96018442D01*
X112254195Y-96753833D02*
X112254195Y-96289376D01*
X112254195Y-96521604D02*
X111441395Y-96521604D01*
X111557509Y-96444195D01*
X111634919Y-96366785D01*
X111673623Y-96289376D01*
X109775490Y-94626366D02*
X109814195Y-94742480D01*
X109814195Y-94936004D01*
X109775490Y-95013414D01*
X109736785Y-95052119D01*
X109659376Y-95090823D01*
X109581966Y-95090823D01*
X109504557Y-95052119D01*
X109465852Y-95013414D01*
X109427147Y-94936004D01*
X109388442Y-94781185D01*
X109349738Y-94703776D01*
X109311033Y-94665071D01*
X109233623Y-94626366D01*
X109156214Y-94626366D01*
X109078804Y-94665071D01*
X109040100Y-94703776D01*
X109001395Y-94781185D01*
X109001395Y-94974709D01*
X109040100Y-95090823D01*
X109001395Y-95361757D02*
X109814195Y-95555280D01*
X109233623Y-95710100D01*
X109814195Y-95864919D01*
X109001395Y-96058442D01*
X109078804Y-96329376D02*
X109040100Y-96368080D01*
X109001395Y-96445490D01*
X109001395Y-96639014D01*
X109040100Y-96716423D01*
X109078804Y-96755128D01*
X109156214Y-96793833D01*
X109233623Y-96793833D01*
X109349738Y-96755128D01*
X109814195Y-96290671D01*
X109814195Y-96793833D01*
X97941980Y-97323433D02*
X97465790Y-96990100D01*
X97941980Y-96752004D02*
X96941980Y-96752004D01*
X96941980Y-97132957D01*
X96989600Y-97228195D01*
X97037219Y-97275814D01*
X97132457Y-97323433D01*
X97275314Y-97323433D01*
X97370552Y-97275814D01*
X97418171Y-97228195D01*
X97465790Y-97132957D01*
X97465790Y-96752004D01*
X97037219Y-97704385D02*
X96989600Y-97752004D01*
X96941980Y-97847242D01*
X96941980Y-98085338D01*
X96989600Y-98180576D01*
X97037219Y-98228195D01*
X97132457Y-98275814D01*
X97227695Y-98275814D01*
X97370552Y-98228195D01*
X97941980Y-97656766D01*
X97941980Y-98275814D01*
X95077380Y-96105619D02*
X94601190Y-95772285D01*
X95077380Y-95534190D02*
X94077380Y-95534190D01*
X94077380Y-95915142D01*
X94125000Y-96010380D01*
X94172619Y-96058000D01*
X94267857Y-96105619D01*
X94410714Y-96105619D01*
X94505952Y-96058000D01*
X94553571Y-96010380D01*
X94601190Y-95915142D01*
X94601190Y-95534190D01*
X94553571Y-96534190D02*
X94553571Y-96867523D01*
X95077380Y-97010380D02*
X95077380Y-96534190D01*
X94077380Y-96534190D01*
X94077380Y-97010380D01*
X95029761Y-97391333D02*
X95077380Y-97534190D01*
X95077380Y-97772285D01*
X95029761Y-97867523D01*
X94982142Y-97915142D01*
X94886904Y-97962761D01*
X94791666Y-97962761D01*
X94696428Y-97915142D01*
X94648809Y-97867523D01*
X94601190Y-97772285D01*
X94553571Y-97581809D01*
X94505952Y-97486571D01*
X94458333Y-97438952D01*
X94363095Y-97391333D01*
X94267857Y-97391333D01*
X94172619Y-97438952D01*
X94125000Y-97486571D01*
X94077380Y-97581809D01*
X94077380Y-97819904D01*
X94125000Y-97962761D01*
X94553571Y-98391333D02*
X94553571Y-98724666D01*
X95077380Y-98867523D02*
X95077380Y-98391333D01*
X94077380Y-98391333D01*
X94077380Y-98867523D01*
X94077380Y-99153238D02*
X94077380Y-99724666D01*
X95077380Y-99438952D02*
X94077380Y-99438952D01*
D11*
X119023854Y-64907447D02*
X119595283Y-64907447D01*
X119309569Y-64907447D02*
X119309569Y-63907447D01*
X119404807Y-64050305D01*
X119500045Y-64145543D01*
X119595283Y-64193162D01*
X119570283Y-83077686D02*
X119522664Y-83030067D01*
X119427426Y-82982447D01*
X119189330Y-82982447D01*
X119094092Y-83030067D01*
X119046473Y-83077686D01*
X118998854Y-83172924D01*
X118998854Y-83268162D01*
X119046473Y-83411019D01*
X119617902Y-83982447D01*
X118998854Y-83982447D01*
X119642902Y-101942447D02*
X119023854Y-101942447D01*
X119357188Y-102323400D01*
X119214330Y-102323400D01*
X119119092Y-102371019D01*
X119071473Y-102418638D01*
X119023854Y-102513876D01*
X119023854Y-102751971D01*
X119071473Y-102847209D01*
X119119092Y-102894828D01*
X119214330Y-102942447D01*
X119500045Y-102942447D01*
X119595283Y-102894828D01*
X119642902Y-102847209D01*
X138219092Y-61840781D02*
X138219092Y-62507447D01*
X138457188Y-61459828D02*
X138695283Y-62174114D01*
X138076235Y-62174114D01*
X138071473Y-80507447D02*
X138547664Y-80507447D01*
X138595283Y-80983638D01*
X138547664Y-80936019D01*
X138452426Y-80888400D01*
X138214330Y-80888400D01*
X138119092Y-80936019D01*
X138071473Y-80983638D01*
X138023854Y-81078876D01*
X138023854Y-81316971D01*
X138071473Y-81412209D01*
X138119092Y-81459828D01*
X138214330Y-81507447D01*
X138452426Y-81507447D01*
X138547664Y-81459828D01*
X138595283Y-81412209D01*
X138129092Y-99562447D02*
X138319569Y-99562447D01*
X138414807Y-99610067D01*
X138462426Y-99657686D01*
X138557664Y-99800543D01*
X138605283Y-99991019D01*
X138605283Y-100371971D01*
X138557664Y-100467209D01*
X138510045Y-100514828D01*
X138414807Y-100562447D01*
X138224330Y-100562447D01*
X138129092Y-100514828D01*
X138081473Y-100467209D01*
X138033854Y-100371971D01*
X138033854Y-100133876D01*
X138081473Y-100038638D01*
X138129092Y-99991019D01*
X138224330Y-99943400D01*
X138414807Y-99943400D01*
X138510045Y-99991019D01*
X138557664Y-100038638D01*
X138605283Y-100133876D01*
X136600045Y-69182447D02*
X137171473Y-69182447D01*
X136885759Y-69182447D02*
X136885759Y-68182447D01*
X136980997Y-68325305D01*
X137076235Y-68420543D01*
X137171473Y-68468162D01*
X136123854Y-69182447D02*
X135933378Y-69182447D01*
X135838140Y-69134828D01*
X135790521Y-69087209D01*
X135695283Y-68944352D01*
X135647664Y-68753876D01*
X135647664Y-68372924D01*
X135695283Y-68277686D01*
X135742902Y-68230067D01*
X135838140Y-68182447D01*
X136028616Y-68182447D01*
X136123854Y-68230067D01*
X136171473Y-68277686D01*
X136219092Y-68372924D01*
X136219092Y-68611019D01*
X136171473Y-68706257D01*
X136123854Y-68753876D01*
X136028616Y-68801495D01*
X135838140Y-68801495D01*
X135742902Y-68753876D01*
X135695283Y-68706257D01*
X135647664Y-68611019D01*
X194246473Y-77352686D02*
X194198854Y-77305067D01*
X194103616Y-77257447D01*
X193865521Y-77257447D01*
X193770283Y-77305067D01*
X193722664Y-77352686D01*
X193675045Y-77447924D01*
X193675045Y-77543162D01*
X193722664Y-77686019D01*
X194294092Y-78257447D01*
X193675045Y-78257447D01*
X193055997Y-77257447D02*
X192960759Y-77257447D01*
X192865521Y-77305067D01*
X192817902Y-77352686D01*
X192770283Y-77447924D01*
X192722664Y-77638400D01*
X192722664Y-77876495D01*
X192770283Y-78066971D01*
X192817902Y-78162209D01*
X192865521Y-78209828D01*
X192960759Y-78257447D01*
X193055997Y-78257447D01*
X193151235Y-78209828D01*
X193198854Y-78162209D01*
X193246473Y-78066971D01*
X193294092Y-77876495D01*
X193294092Y-77638400D01*
X193246473Y-77447924D01*
X193198854Y-77352686D01*
X193151235Y-77305067D01*
X193055997Y-77257447D01*
X193971473Y-115627686D02*
X193923854Y-115580067D01*
X193828616Y-115532447D01*
X193590521Y-115532447D01*
X193495283Y-115580067D01*
X193447664Y-115627686D01*
X193400045Y-115722924D01*
X193400045Y-115818162D01*
X193447664Y-115961019D01*
X194019092Y-116532447D01*
X193400045Y-116532447D01*
X192447664Y-116532447D02*
X193019092Y-116532447D01*
X192733378Y-116532447D02*
X192733378Y-115532447D01*
X192828616Y-115675305D01*
X192923854Y-115770543D01*
X193019092Y-115818162D01*
X156101473Y-103817686D02*
X156053854Y-103770067D01*
X155958616Y-103722447D01*
X155720521Y-103722447D01*
X155625283Y-103770067D01*
X155577664Y-103817686D01*
X155530045Y-103912924D01*
X155530045Y-104008162D01*
X155577664Y-104151019D01*
X156149092Y-104722447D01*
X155530045Y-104722447D01*
X155149092Y-103817686D02*
X155101473Y-103770067D01*
X155006235Y-103722447D01*
X154768140Y-103722447D01*
X154672902Y-103770067D01*
X154625283Y-103817686D01*
X154577664Y-103912924D01*
X154577664Y-104008162D01*
X154625283Y-104151019D01*
X155196711Y-104722447D01*
X154577664Y-104722447D01*
X126621473Y-118197686D02*
X126573854Y-118150067D01*
X126478616Y-118102447D01*
X126240521Y-118102447D01*
X126145283Y-118150067D01*
X126097664Y-118197686D01*
X126050045Y-118292924D01*
X126050045Y-118388162D01*
X126097664Y-118531019D01*
X126669092Y-119102447D01*
X126050045Y-119102447D01*
X125716711Y-118102447D02*
X125097664Y-118102447D01*
X125430997Y-118483400D01*
X125288140Y-118483400D01*
X125192902Y-118531019D01*
X125145283Y-118578638D01*
X125097664Y-118673876D01*
X125097664Y-118911971D01*
X125145283Y-119007209D01*
X125192902Y-119054828D01*
X125288140Y-119102447D01*
X125573854Y-119102447D01*
X125669092Y-119054828D01*
X125716711Y-119007209D01*
X104701473Y-122597686D02*
X104653854Y-122550067D01*
X104558616Y-122502447D01*
X104320521Y-122502447D01*
X104225283Y-122550067D01*
X104177664Y-122597686D01*
X104130045Y-122692924D01*
X104130045Y-122788162D01*
X104177664Y-122931019D01*
X104749092Y-123502447D01*
X104130045Y-123502447D01*
X103272902Y-122835781D02*
X103272902Y-123502447D01*
X103510997Y-122454828D02*
X103749092Y-123169114D01*
X103130045Y-123169114D01*
M02*
